<svg width="156" height="140" viewBox="0 0 156 140" fill="none" xmlns="http://www.w3.org/2000/svg">
<g clip-path="url(#clip0_286_10981)">
<g clip-path="url(#clip1_286_10981)">
<path d="M25.9775 67.9542C25.6246 68.0297 25.2572 67.9978 24.9225 67.8627C24.5878 67.7277 24.3011 67.4956 24.0994 67.1963C23.8977 66.8971 23.7901 66.5443 23.7904 66.1834C23.7908 65.8225 23.8991 65.4699 24.1014 65.1711C28.466 58.541 35.2831 53.914 43.0562 52.3057C50.8292 50.6975 58.9227 52.2395 65.5598 56.5932C65.7587 56.7239 65.9298 56.8924 66.0635 57.0892C66.1972 57.286 66.2908 57.5072 66.339 57.7402C66.3872 57.9732 66.3891 58.2134 66.3444 58.447C66.2998 58.6807 66.2096 58.9033 66.079 59.1022C65.9483 59.301 65.7798 59.4721 65.583 59.6058C65.3862 59.7395 65.165 59.8331 64.932 59.8813C64.699 59.9295 64.4588 59.9314 64.2251 59.8868C63.9915 59.8421 63.7688 59.7519 63.57 59.6213C57.7348 55.7944 50.6196 54.4392 43.7862 55.8531C36.9527 57.2669 30.9595 61.3343 27.1219 67.1625C26.9929 67.3634 26.8253 67.5369 26.6289 67.6728C26.4325 67.8087 26.2111 67.9043 25.9775 67.9542Z" fill="#DB3232"/>
<path d="M33.2426 72.7288C32.8902 72.8018 32.5241 72.7686 32.1906 72.6332C31.8572 72.4979 31.5714 72.2665 31.3696 71.9685C31.1679 71.6706 31.0591 71.3194 31.0572 70.9595C31.0553 70.5996 31.1603 70.2473 31.3589 69.9472C34.4582 65.244 39.2962 61.9619 44.8119 60.8206C50.3276 59.6794 56.0709 60.7723 60.782 63.8595C61.1421 64.138 61.384 64.542 61.4594 64.991C61.5348 65.44 61.4381 65.9009 61.1887 66.2817C60.9393 66.6626 60.5554 66.9353 60.1137 67.0457C59.672 67.156 59.205 67.0957 58.8058 66.8768C54.8971 64.3144 50.1316 63.4072 45.5549 64.3541C40.9781 65.301 36.9639 68.0248 34.393 71.9279C34.2645 72.1315 34.0965 72.3073 33.8989 72.4448C33.7013 72.5824 33.4781 72.679 33.2426 72.7288Z" fill="#DB3232"/>
<path d="M40.5093 77.4976C40.156 77.5748 39.7877 77.5442 39.452 77.41C39.1162 77.2758 38.8284 77.044 38.6257 76.7446C38.4229 76.4452 38.3146 76.0919 38.3145 75.7303C38.3145 75.3688 38.4229 75.0155 38.6256 74.7161C40.4568 71.9363 43.3159 69.9964 46.5756 69.322C49.8353 68.6475 53.2294 69.2936 56.0133 71.1185C56.2122 71.2491 56.3833 71.4177 56.517 71.6145C56.6507 71.8113 56.7443 72.0325 56.7925 72.2655C56.8407 72.4984 56.8426 72.7386 56.7979 72.9723C56.7533 73.206 56.6631 73.4286 56.5324 73.6274C56.4018 73.8263 56.2333 73.9974 56.0365 74.1311C55.8397 74.2648 55.6185 74.3584 55.3855 74.4066C55.1525 74.4548 54.9123 74.4567 54.6786 74.412C54.4449 74.3674 54.2223 74.2772 54.0235 74.1465C53.0434 73.5019 51.9458 73.0567 50.7936 72.8365C49.6413 72.6162 48.457 72.6252 47.3082 72.8629C46.1594 73.1006 45.0688 73.5623 44.0985 74.2217C43.1283 74.8811 42.2975 75.7253 41.6536 76.7059C41.3905 77.1094 40.9797 77.3937 40.5093 77.4976Z" fill="#DB3232"/>
<path d="M50.5391 79.4564C50.9681 79.7378 51.3039 80.1402 51.5041 80.6125C51.7044 81.0849 51.76 81.606 51.6639 82.11C51.5679 82.6139 51.3245 83.0781 50.9646 83.4437C50.6047 83.8093 50.1444 84.06 49.642 84.1639C49.1396 84.2679 48.6177 84.2204 48.1423 84.0277C47.6668 83.8349 47.2592 83.5054 46.9711 83.0809C46.683 82.6565 46.5272 82.156 46.5236 81.643C46.5199 81.13 46.6685 80.6274 46.9506 80.1989C47.3283 79.625 47.9184 79.2244 48.5912 79.0852C49.2641 78.946 49.9646 79.0795 50.5391 79.4564Z" fill="#DB3232"/>
<mask id="path-5-outside-1_286_10981" maskUnits="userSpaceOnUse" x="19.33" y="50.3449" width="44.2447" height="31.9238" fill="black">
<rect fill="white" x="19.33" y="50.3449" width="44.2447" height="31.9238"/>
<path d="M20.4473 56.0934C19.8302 55.6879 19.6587 54.8589 20.0642 54.2418C20.4697 53.6247 21.2987 53.4531 21.9159 53.8587L60.3181 79.0942C60.9352 79.4997 61.1068 80.3287 60.7012 80.9458C60.2957 81.5629 59.4667 81.7344 58.8496 81.3289L20.4473 56.0934Z"/>
</mask>
<path d="M20.4473 56.0934C19.8302 55.6879 19.6587 54.8589 20.0642 54.2418C20.4697 53.6247 21.2987 53.4531 21.9159 53.8587L60.3181 79.0942C60.9352 79.4997 61.1068 80.3287 60.7012 80.9458C60.2957 81.5629 59.4667 81.7344 58.8496 81.3289L20.4473 56.0934Z" fill="#DB3232"/>
<path d="M19.33 55.3591L20.7985 53.1244L19.33 55.3591ZM61.4355 79.8284L59.967 82.0632L61.4355 79.8284ZM59.967 82.0632L19.33 55.3591L59.967 82.0632ZM20.0642 54.2418C21.443 52.1436 24.2616 51.5604 26.3598 52.9392L59.3987 74.6502C61.4968 76.029 62.08 78.8476 60.7012 80.9458L60.7012 80.9458C60.5065 81.2421 60.202 81.449 59.8548 81.5208C59.5075 81.5927 59.146 81.5236 58.8496 81.3289L20.4473 56.0934L19.33 55.3591L20.4473 56.0934C20.151 55.8987 19.9441 55.5942 19.8723 55.2469C19.8004 54.8997 19.8695 54.5381 20.0642 54.2418H20.0642Z" fill="#F8D6D6" mask="url(#path-5-outside-1_286_10981)"/>
</g>
<circle opacity="0.2" cx="45.6146" cy="66.8841" r="33.365" transform="rotate(-11.6897 45.6146 66.8841)" fill="#DB3232"/>
<path d="M124.396 25.5404C123.747 26.1926 123.092 26.8448 122.241 27.2335C121.546 27.557 120.85 27.8744 120.154 28.1857C119.231 28.6005 118.284 28.9683 117.381 29.4248C116.44 29.874 115.474 30.2702 114.488 30.6118C114.115 30.6849 113.844 30.4527 113.552 30.291C109.578 28.0931 105.21 26.7013 100.698 26.1952C97.3353 25.8091 93.9934 26.3387 90.7559 27.3222C88.2228 28.0891 85.6949 28.8874 83.3183 30.0875C82.8435 30.3275 82.3713 30.5675 82.2748 31.1701C82.2383 31.431 82.1209 31.7545 82.387 31.9528C82.6531 32.151 82.8513 31.9084 83.0653 31.8014C84.0638 31.2524 85.0944 30.7637 86.1514 30.3379C89.5898 29.0909 93.1743 28.53 96.777 28.0213C98.7294 27.761 100.714 27.8967 102.613 28.4205C106.049 29.3101 109.44 30.2857 112.651 31.8119C113.173 32.0728 113.768 32.2032 114.092 32.7563L114.045 33.1554C113.995 33.4163 113.945 33.6772 113.898 33.938C113.789 34.4989 113.776 34.5824 113.75 34.7207C113.724 34.8589 113.692 34.9998 113.651 35.172C113.571 35.1216 113.484 35.072 113.39 35.0233C112.787 34.7143 112.148 34.4803 111.488 34.3268C110.791 34.1389 110.199 34.0241 109.86 33.9641L109.555 33.912C104.583 33.1632 101.76 33.1919 101.76 33.1919C98.2077 33.2444 94.6793 33.7815 91.2725 34.7885C88.9787 35.4727 86.7478 36.3524 84.6044 37.4182C83.1774 38.1225 81.9957 38.8139 81.0643 39.3852L81.5704 34.5589C81.5704 34.512 81.5704 34.465 81.5704 34.4207C81.6252 33.6615 81.6017 33.6041 80.8295 33.445C80.0078 33.278 79.2643 32.9232 78.4816 32.6337C77.5268 32.2919 76.5929 31.8901 75.6511 31.5171C75.4867 30.9745 75.8859 30.5362 75.912 30.0301C75.9563 29.3961 75.7007 29.177 75.1006 29.3883C74.6994 29.5394 74.3561 29.8133 74.1197 30.171C73.9319 30.4318 73.8067 30.7762 73.431 30.8519L73.191 30.7918L70.3605 29.9701C70.2132 29.9283 70.0686 29.8778 69.9274 29.8188C69.8833 29.8045 69.8446 29.7771 69.8165 29.7403C69.7885 29.7034 69.7723 29.6588 69.7704 29.6125C69.7684 29.5662 69.7806 29.5204 69.8054 29.4813C69.8302 29.4421 69.8664 29.4115 69.9092 29.3935C70.4022 29.0831 70.8979 28.77 71.4092 28.4883C72.0823 28.1178 72.7736 27.7813 73.4493 27.4161C75.7972 26.1456 78.0564 24.7003 80.3443 23.3177C84.3444 20.9002 88.3367 18.4653 92.3212 16.0131C92.4701 15.9109 92.6408 15.8449 92.8198 15.8205C92.9987 15.796 93.1808 15.8137 93.3517 15.8722C97.6457 17.0879 101.94 18.3045 106.234 19.5219C108.243 20.088 110.267 20.615 112.273 21.1915C113.129 21.4367 113.961 21.7576 114.801 22.0576C117.376 22.9759 119.969 23.8368 122.596 24.5908C123.243 24.776 123.88 25.003 124.516 25.2091C124.524 25.2699 124.518 25.3317 124.497 25.3894C124.476 25.4471 124.441 25.4989 124.396 25.5404Z" fill="black"/>
<path d="M144.721 124.593C112.305 124.841 79.8643 124.072 47.5284 124.317C47.6902 123.659 47.8728 123.013 48.0502 122.352C49.4419 117.724 51.4142 113.29 53.92 109.157C56.0428 105.546 58.525 102.158 61.3289 99.0456C63.0666 97.1289 64.9649 95.3642 67.003 93.7707C67.17 93.6402 67.3343 93.5098 67.4856 93.382C67.4596 93.1785 67.3109 93.108 67.1882 93.0193C63.1551 90.1653 60.7785 86.2182 59.5758 81.4937C59.0081 79.2229 58.7449 76.8867 58.7932 74.5465C58.8513 68.711 60.2227 62.9635 62.8055 57.7303C64.039 55.1743 65.6964 52.8457 67.7074 50.8431C68.6048 49.9587 69.424 48.9935 70.3162 48.0987C71.1527 47.2586 72.0127 46.4438 72.8963 45.6542C73.7798 44.8647 74.6868 44.0977 75.6172 43.3533C76.5477 42.6089 77.4973 41.8932 78.466 41.2063C78.8704 40.9193 79.2747 40.6376 79.6843 40.3584C79.9869 40.1523 80.3052 39.9462 80.6026 39.7245C80.7565 39.6097 80.9078 39.4897 81.0513 39.3619C81.1992 39.2521 81.3574 39.1569 81.5235 39.0775C81.74 38.9471 81.9566 38.8166 82.1757 38.694C82.6662 38.407 83.1644 38.1331 83.6679 37.867C83.9758 37.7079 84.2836 37.5488 84.594 37.3948C86.7374 36.3291 88.9683 35.4493 91.2621 34.7652C94.6689 33.7582 98.1973 33.2211 101.749 33.1686C101.749 33.1686 104.572 33.1399 109.544 33.8886L109.85 33.9408C110.189 34.0008 110.781 34.1156 111.478 34.3034C112.138 34.457 112.776 34.6909 113.379 35C113.472 35.0487 113.559 35.0982 113.64 35.1487C113.886 35.2932 114.121 35.4545 114.345 35.6313C115.161 36.6122 115.446 37.7992 115.419 39.1036C115.419 39.3645 115.419 39.6488 115.419 39.928C115.702 39.9368 115.984 39.8935 116.252 39.8001C117.463 39.5314 118.729 39.6727 119.852 40.2019C121.894 41.1724 122.609 43.3063 121.965 45.2394C121.868 45.529 121.735 45.8056 121.615 46.0925C121.701 46.2934 121.897 46.3064 122.074 46.3534C122.581 46.4907 123.051 46.7354 123.454 47.0708C123.761 47.3058 124.017 47.5994 124.209 47.9344C124.4 48.2694 124.524 48.6391 124.571 49.0222C124.592 49.2048 124.6 49.3874 124.613 49.5648C124.861 49.7553 125.153 49.7083 125.414 49.7813C127.172 50.2692 127.986 51.8527 127.879 53.4336C127.806 54.2628 127.612 55.0767 127.302 55.8494C126.972 56.6774 126.736 57.5404 126.601 58.4216C126.423 59.7886 126.71 60.9626 127.738 61.9513C130.843 64.9384 132.434 68.6637 132.984 72.8795C133.355 75.4435 133.289 78.0518 132.789 80.5937C131.869 85.229 129.328 89.3852 125.622 92.3176C124.73 93.017 123.796 93.6617 122.826 94.2481C122.789 94.462 122.941 94.5298 123.058 94.6133C129.116 98.8943 133.939 104.308 138.004 110.446C140.547 114.284 142.673 118.33 144.142 122.707C144.356 123.326 144.541 123.96 144.721 124.593Z" fill="#252468"/>
<path d="M114.097 32.7512L111.749 31.6686C110.616 31.1154 109.437 30.664 108.224 30.3199C108.136 30.3 108.049 30.2747 107.964 30.2442C106.137 29.4929 104.204 29.0989 102.297 28.6189C102.06 28.5589 101.82 28.4963 101.588 28.4207C100.323 28.0213 98.9809 27.9318 97.6745 28.1598C96.2162 28.3867 94.7553 28.5798 93.2943 28.7885C92.1056 28.9509 90.9291 29.1923 89.7725 29.5111C88.562 29.8529 87.3254 30.1112 86.1515 30.5807C85.1487 30.9733 84.1764 31.4398 83.2427 31.9764C82.9211 32.1552 82.5882 32.313 82.2461 32.4486C82.2182 32.4627 82.1871 32.4692 82.1559 32.4676C82.1247 32.466 82.0944 32.4563 82.0681 32.4395C82.0418 32.4226 82.0203 32.3992 82.0058 32.3715C81.9913 32.3439 81.9842 32.3129 81.9853 32.2817C81.9618 31.9133 81.9618 31.5439 81.9853 31.1755C82.0017 30.917 82.0921 30.6687 82.2456 30.4601C82.3992 30.2515 82.6094 30.0915 82.8514 29.999C85.6315 28.6811 88.5274 27.6227 91.5021 26.8371C94.4719 26.017 97.5586 25.7021 100.633 25.9058C102.416 26.0117 104.174 26.3791 105.85 26.9963C106.223 27.1345 106.61 27.2415 106.996 27.3484C108.595 27.7972 110.189 28.2694 111.678 29.0181C112.642 29.482 113.574 30.0101 114.467 30.599C114.349 31.3225 114.225 32.0399 114.097 32.7512Z" fill="#FDC33D"/>
<path d="M73.4598 30.8259C73.6585 30.3767 73.9409 29.9695 74.292 29.6259C74.4543 29.4392 74.6547 29.2893 74.8796 29.1863C75.1046 29.0832 75.3489 29.0294 75.5964 29.0285C75.6737 29.015 75.7531 29.0192 75.8286 29.0407C75.9041 29.0621 75.9738 29.1004 76.0325 29.1525C76.0912 29.2047 76.1373 29.2694 76.1675 29.3419C76.1977 29.4144 76.2111 29.4927 76.2068 29.5711C76.2169 30.0015 76.1388 30.4295 75.9772 30.8285C75.8887 31.0557 75.7877 31.2778 75.6746 31.4938C75.4619 31.7205 75.1913 31.8847 74.892 31.9686C74.5294 32.0442 74.4224 32.2842 74.3494 32.6182C74.059 33.8776 73.508 35.0622 72.7319 36.0957C72.3015 36.6928 71.9152 37.3206 71.5762 37.974C71.1964 38.6414 70.7469 39.2666 70.2353 39.8393C70.0396 40.0793 69.8805 40.1002 69.5831 39.9515C69.197 39.7688 68.897 39.4297 68.477 39.3019C68.4274 39.2862 68.3726 39.1323 68.3961 39.0671C68.4665 38.867 68.5538 38.6732 68.657 38.4879C69.6405 36.7114 70.8666 35.0965 72.0693 33.4712C72.2473 33.2211 72.452 32.9911 72.6797 32.7851C72.9431 32.573 73.1502 32.2992 73.2826 31.9879C73.415 31.6767 73.4687 31.3376 73.4389 31.0007C73.4399 30.9419 73.4469 30.8833 73.4598 30.8259Z" fill="#FDC33E"/>
<path d="M114.054 33.1612L114.021 33.1504L114.054 33.1531V33.1612Z" fill="#FDC33D"/>
<path d="M130.318 76.6546C130.294 80.3774 129.068 83.9927 126.822 86.9619C125.323 88.9643 123.419 90.6291 121.234 91.8482C119.004 93.0941 116.605 94.0114 114.112 94.5717C111.265 95.2238 108.385 95.728 105.485 96.0822C102.237 96.4928 98.9654 96.6836 95.6918 96.6536C94.8231 96.6692 93.9283 96.6536 93.0204 96.6301C91.2569 96.5727 89.436 96.4292 87.6176 96.2153C83.0288 95.67 78.4869 94.83 74.1224 93.2961C72.7202 92.8359 71.3695 92.2318 70.0918 91.4934C66.2621 89.1768 63.7864 85.7984 62.5681 81.5043C61.7572 78.5617 61.4867 75.4963 61.7698 72.4571C62.0856 68.6217 62.9719 64.8549 64.3995 61.2811C65.1618 59.3317 66.1494 57.4782 67.3422 55.7583C68.0015 54.8306 68.7353 53.9581 69.5362 53.1495C70.7206 51.9416 71.8475 50.6763 73.0606 49.4972C77.4121 45.2605 82.2618 41.7256 87.7611 39.0986C91.2371 37.4412 94.9712 36.3912 98.8015 35.9941C101.003 35.7386 103.221 35.647 105.436 35.7202C107.064 35.788 108.691 35.8924 110.262 36.3985C110.733 36.5415 111.182 36.7477 111.598 37.0115L111.626 37.0324C111.886 37.1887 112.103 37.4081 112.256 37.6703C112.409 37.9325 112.493 38.2291 112.5 38.5325C112.545 39.8916 112.649 40.0977 111.373 40.9012C109.427 42.1352 107.46 43.3352 105.493 44.5535C104.719 44.9969 103.974 45.4911 103.265 46.0327C102.922 46.2932 102.606 46.5868 102.321 46.9093C102.172 47.0867 102.067 47.2973 102.016 47.5234C101.965 47.7496 101.969 47.9846 102.027 48.209C102.086 48.4333 102.197 48.6403 102.352 48.8127C102.507 48.9851 102.701 49.1178 102.918 49.1998C103.056 49.2701 103.207 49.3095 103.362 49.3154C103.516 49.3213 103.67 49.2934 103.813 49.2337C104.092 49.1059 104.363 48.9728 104.632 48.8163C107.533 47.204 110.424 45.5683 113.392 44.0813C114.217 43.6691 115.072 43.3222 115.918 42.957C116.375 42.774 116.854 42.6487 117.342 42.5839C117.741 42.5303 118.147 42.5909 118.513 42.7587C119.32 43.1004 119.557 43.9144 119.116 44.6735C118.889 45.0416 118.593 45.3623 118.245 45.6179C117.809 45.9571 117.355 46.2779 116.899 46.591C114.608 48.1563 112.258 49.6067 109.855 51.005C109.558 51.1679 109.274 51.3528 109.004 51.5581C108.723 51.779 108.536 52.0998 108.484 52.4541C108.431 52.8085 108.517 53.1694 108.723 53.4625C108.807 53.6202 108.922 53.7589 109.062 53.8702C109.201 53.9814 109.362 54.0628 109.535 54.1092C109.707 54.1557 109.887 54.1663 110.064 54.1403C110.241 54.1143 110.41 54.0523 110.562 53.9582C111.24 53.5982 111.892 53.1912 112.555 52.7999C114.061 51.9052 115.614 51.091 117.206 50.3607C118.211 49.8878 119.26 49.5147 120.337 49.2467C120.667 49.1707 121.007 49.1461 121.344 49.1737C121.605 49.1919 121.696 49.3902 121.605 49.638C121.502 49.9635 121.278 50.237 120.979 50.4024C119.043 51.4459 117.381 52.8703 115.746 54.3156C115.581 54.4529 115.429 54.6048 115.292 54.7695C115.096 55.0491 115.003 55.3881 115.03 55.7284C115.057 56.0687 115.201 56.3891 115.438 56.6348C115.64 56.8937 115.934 57.0642 116.259 57.1104C116.584 57.1566 116.914 57.075 117.18 56.8826C119.035 55.6174 120.955 54.4434 122.659 52.9564C123.23 52.4555 123.88 52.4347 124.563 52.5181C124.67 52.5376 124.769 52.5901 124.844 52.6682C124.92 52.7463 124.97 52.8462 124.986 52.9538C125.043 53.195 125.03 53.4474 124.949 53.6817C124.754 54.2947 124.571 54.9156 124.36 55.5235C123.846 56.9127 123.627 58.3938 123.718 59.8723C123.8 61.1732 124.308 62.411 125.163 63.3942C125.385 63.655 125.607 63.9159 125.844 64.1455C127.952 66.2586 129.183 68.8413 129.815 71.711C130.17 73.3343 130.339 74.9929 130.318 76.6546Z" fill="white"/>
<path d="M100.779 124.497L94.1734 124.445L89.8168 124.408C90.2446 122.338 90.7828 120.291 91.429 118.278C91.4864 118.105 91.5594 117.936 91.6194 117.782C91.8803 117.644 92.0499 117.834 92.2325 117.905C92.7543 118.103 93.2604 118.317 93.756 118.559C94.4912 118.892 95.3119 118.988 96.1039 118.833C96.3492 118.8 96.5918 118.759 96.8318 118.708C97.5544 118.562 98.264 118.364 98.971 118.158C99.3388 118.051 99.4145 118.077 99.4928 118.419C99.7536 119.493 100.015 120.568 100.252 121.651C100.437 122.59 100.615 123.542 100.779 124.497Z" fill="white"/>
<path d="M84.0201 114.2C84.046 114.127 84.0445 114.048 84.0156 113.976C83.9868 113.904 83.9327 113.846 83.8635 113.811L83.6261 113.668C81.5004 112.42 79.542 110.907 77.7981 109.165C77.6923 109.055 77.5655 108.968 77.4253 108.908C77.285 108.847 77.1341 108.816 76.9816 108.816C75.9376 108.75 74.9018 108.589 73.8875 108.333C69.8242 107.39 66.0463 105.486 62.8707 102.781C62.688 102.627 62.5419 102.411 62.2785 102.372C58.7983 106.173 54.1912 114.077 53.2103 117.07C53.406 117.145 53.6043 117.226 53.8077 117.297C55.0931 117.725 56.3991 118.088 57.7209 118.385C59.8445 118.906 61.9576 119.428 63.9324 120.404C63.9794 120.427 64.0498 120.404 64.1437 120.404C64.3264 119.827 64.5011 119.243 64.6942 118.664C65.6099 115.914 66.883 113.321 68.2369 110.767C68.3199 110.602 68.4234 110.449 68.5448 110.31C68.6861 110.145 68.8713 110.023 69.079 109.958C69.2867 109.894 69.5085 109.889 69.7187 109.945C70.5692 110.156 71.2501 110.931 70.8509 111.99C70.7298 112.273 70.5922 112.548 70.4387 112.815C69.0305 115.482 67.8809 118.277 67.0056 121.163C66.7004 122.206 66.4108 123.25 66.1186 124.28C71.0161 124.291 75.9128 124.313 80.8087 124.348C81.6956 121.231 82.6974 118.15 83.7357 115.079C83.8296 114.787 83.9314 114.495 84.0201 114.2Z" fill="black"/>
<path d="M122.45 117.286C121.472 115.066 120.546 112.817 119.293 110.728C119.262 110.676 119.226 110.626 119.2 110.571C119.057 110.247 119.038 109.883 119.146 109.546C119.253 109.209 119.48 108.923 119.783 108.741C120.087 108.559 120.446 108.494 120.794 108.558C121.142 108.623 121.454 108.811 121.673 109.089C121.884 109.391 122.076 109.707 122.247 110.034C123.197 111.791 124.058 113.595 124.827 115.439C125.479 116.934 126.131 118.424 126.88 119.874C127.096 120.297 127.104 120.299 127.506 120.172C130.814 119.115 134.13 118.085 137.385 116.885C137.667 116.78 137.993 116.744 138.236 116.444C138.056 116.115 137.868 115.765 137.675 115.421C136.472 113.31 135.145 111.271 133.702 109.316C131.725 106.604 129.522 104.064 127.117 101.722C126.875 101.437 126.58 101.201 126.248 101.028C125.821 101.464 125.432 101.902 124.996 102.294C121.866 105.111 118.286 107.042 114.084 107.699C113.778 107.742 113.499 107.897 113.301 108.135C112.847 108.636 112.383 109.129 111.903 109.606C110.51 111 109.028 112.303 107.468 113.506C107.139 113.767 107.001 113.817 107.207 114.338C107.669 115.444 108.086 116.569 108.511 117.691C109.367 119.968 110.218 122.251 110.945 124.573C115.859 124.604 120.772 124.626 125.685 124.638C125.133 123.065 124.473 121.532 123.71 120.049C123.259 119.149 122.857 118.215 122.45 117.286Z" fill="black"/>
<path d="M117.465 96.7681C117.48 97.0916 117.277 97.3368 117.144 97.6056C116.021 99.8665 114.65 101.995 113.056 103.953C110.89 106.676 108.404 109.129 105.652 111.257C103.545 112.913 101.193 114.229 98.6788 115.157C98.311 115.288 97.9562 115.489 97.5649 115.473C97.4057 115.327 97.544 115.238 97.5857 115.142C97.6275 115.045 97.6953 114.92 97.7397 114.805C97.9509 114.288 97.9509 113.708 97.7397 113.19C97.5791 112.803 97.2996 112.476 96.9413 112.258C96.5831 112.039 96.1647 111.94 95.7465 111.975C95.0072 112.015 94.2858 112.217 93.6334 112.567C93.4765 112.636 93.3446 112.752 93.2555 112.898C93.1663 113.045 93.1243 113.215 93.1352 113.386C93.156 113.843 93.0595 114.304 93.216 114.756C93.248 114.814 93.2597 114.881 93.2493 114.947C93.2389 115.012 93.207 115.073 93.1586 115.118C93.0496 115.098 92.9424 115.069 92.8377 115.032C90.3755 113.992 87.9735 112.814 85.6427 111.505C81.8227 109.345 78.5825 106.292 76.1989 102.607C74.8084 100.462 73.5484 98.2447 72.2518 96.0481C72.2178 95.9707 72.1941 95.8891 72.1814 95.8055C72.3614 95.6698 72.4892 95.8185 72.6145 95.8655C74.7138 96.655 76.8729 97.2753 79.0712 97.7203C79.2665 97.7438 79.4532 97.8142 79.6154 97.9255C79.7776 98.0368 79.9104 98.1857 80.0025 98.3595C80.7066 99.5911 81.6224 100.689 82.7078 101.602C84.597 103.283 86.6985 104.708 88.9585 105.841C89.7025 106.209 90.4724 106.521 91.262 106.775C91.5647 106.875 91.5986 106.937 91.5099 107.242C91.2442 108.126 91.0796 109.037 91.0194 109.958C91.0194 110.081 91.0038 110.206 90.9933 110.326C90.9625 110.542 91.0086 110.763 91.1235 110.949C91.2384 111.134 91.4148 111.274 91.6221 111.343C92.2211 111.588 92.8589 111.724 93.5056 111.745C94.4656 111.784 95.4048 111.596 96.357 111.526C96.7848 111.492 97.2127 111.437 97.6405 111.398C98.3214 111.338 98.5614 111.156 98.684 110.464C98.9138 109.473 98.9773 108.45 98.8719 107.438C98.8093 107 98.8197 106.989 99.2319 106.835C102.54 105.607 105.216 103.478 107.619 100.96C108.196 100.361 108.689 99.687 109.088 98.9569C109.175 98.7803 109.304 98.628 109.464 98.5138C109.625 98.3995 109.811 98.3268 110.006 98.3021C111.311 98.0647 112.602 97.8116 113.893 97.5325C114.913 97.3108 115.923 97.0342 116.94 96.7994C117.099 96.7681 117.272 96.6194 117.465 96.7681Z" fill="#36C6F4"/>
<path d="M105.79 114.886C105.618 114.875 105.449 114.932 105.318 115.045C104.423 115.644 103.491 116.185 102.527 116.665C102.099 116.874 102.107 117.015 102.206 117.38C102.689 119.162 103.083 120.962 103.427 122.775C103.536 123.357 103.636 123.939 103.732 124.52L109.323 124.562C108.556 122.191 107.695 119.853 106.805 117.518C106.466 116.634 106.122 115.75 105.79 114.886Z" fill="#36C6F4"/>
<path d="M88.862 116.811C88.969 116.49 88.9612 116.477 88.6533 116.323C87.6333 115.817 86.6133 115.316 85.5697 114.802C85.4173 114.939 85.3146 115.123 85.2776 115.324C84.3671 117.967 83.5036 120.625 82.7079 123.305C82.6036 123.654 82.4992 124.006 82.3975 124.348L86.8715 124.395C87.002 123.73 87.1324 123.067 87.2915 122.404C87.7116 120.508 88.2542 118.656 88.862 116.811Z" fill="#36C6F4"/>
<path d="M106.664 98.85C106.672 98.9353 106.658 99.0211 106.624 99.0998C106.59 99.1785 106.538 99.2477 106.471 99.3013C105.301 100.65 103.976 101.855 102.524 102.894C101.574 103.569 100.564 104.159 99.5084 104.655C99.4235 104.694 99.3364 104.728 99.2475 104.756C98.8979 104.874 98.5405 105.101 98.204 105.072C97.8675 105.043 97.7292 104.55 97.4892 104.289C97.1944 103.961 96.9048 103.624 96.6205 103.285L96.2892 102.894C95.8665 102.395 95.4778 102.317 94.9222 102.664C94.81 102.734 94.7004 102.808 94.5935 102.886C94.0176 103.282 93.5011 103.758 93.0595 104.3C92.9185 104.465 92.7887 104.639 92.6708 104.822C92.5064 105.082 92.316 105.082 92.0421 104.994C91.0154 104.673 90.0248 104.246 89.0863 103.721C87.1845 102.711 85.4153 101.469 83.8192 100.024C83.4383 99.6692 83.0887 99.2778 82.7313 98.897C82.6612 98.8465 82.6088 98.7752 82.5816 98.6932C82.5544 98.6112 82.5539 98.5228 82.58 98.4404C84.5679 98.717 86.561 99.0483 88.5802 99.2231C88.9559 99.2544 89.3315 99.2883 89.7072 99.317C91.3533 99.4474 92.9995 99.5492 94.6639 99.5648C96.6622 99.5831 98.6579 99.5648 100.664 99.437C102.67 99.3091 104.661 99.09 106.664 98.85Z" fill="white"/>
<path d="M141.713 124.614C140.993 122.266 140.041 119.918 139.493 119.177C136.405 120.383 133.232 121.385 130.083 122.397C129.588 122.556 129.087 122.705 128.589 122.866C128.307 122.96 128.27 123.052 128.354 123.349C128.361 123.379 128.37 123.409 128.38 123.438C128.523 123.837 128.656 124.241 128.787 124.643C133.097 124.652 137.405 124.642 141.713 124.614Z" fill="#36C6F4"/>
<path d="M63.0194 123.219C62.8863 123.14 62.7585 123.072 62.6124 123.002C61.3509 122.361 60.017 121.873 58.6392 121.549C56.5522 121.027 54.4495 120.584 52.4173 119.861C52.0599 119.736 52.0025 119.759 51.8773 120.101C51.3738 121.481 50.9199 122.877 50.5442 124.299C54.7391 124.276 58.9366 124.267 63.1368 124.273L63.2698 123.816C63.3638 123.482 63.3246 123.401 63.0194 123.219Z" fill="#36C6F4"/>
<path d="M68.7927 96.0691C69.2101 96.6091 72.7789 102.568 73.0789 103.209C70.9919 103.155 67.624 100.921 66.0039 98.5135C66.4891 97.8874 67.4518 97.037 68.7927 96.0691Z" fill="#FDC33B"/>
<path d="M63.6533 100.707L65.0595 99.3403C65.1873 99.476 65.2995 99.5777 65.3934 99.6977C67.363 102.218 69.9744 103.72 73.0267 104.529C73.4363 104.636 73.9137 104.613 74.2372 104.894C74.512 105.183 74.7543 105.5 74.9598 105.841L75.4815 106.556C75.1722 106.631 74.8479 106.614 74.5476 106.509C70.6976 105.642 67.1163 103.851 64.1125 101.292C63.902 101.15 63.7415 100.945 63.6533 100.707Z" fill="#FDC33B"/>
<path d="M96.9283 109.473C96.0607 109.676 95.1739 109.786 94.283 109.802C92.7856 109.82 92.9056 109.864 93.1508 108.56C93.3538 107.374 93.8904 106.27 94.6978 105.377C94.8401 105.219 94.9927 105.07 95.1543 104.931C95.1751 104.909 95.2001 104.891 95.228 104.879C95.2558 104.867 95.2858 104.861 95.3161 104.861C95.3464 104.861 95.3764 104.867 95.4042 104.879C95.432 104.891 95.4571 104.909 95.4778 104.931C96.3179 105.816 96.9831 106.791 97.004 108.062C96.9988 108.513 96.9518 108.967 96.9283 109.473Z" fill="#FEFEFE"/>
<path d="M123.601 98.6465C124.029 98.9531 124.434 99.2914 124.811 99.6587C122.917 102.067 117.861 105.195 115.785 105.228L116.972 103.564C117.107 103.4 117.289 103.28 117.493 103.222C118.122 102.982 118.746 102.727 119.367 102.461C120.189 102.112 120.924 101.585 121.516 100.916C122.038 100.319 122.56 99.7135 123.081 99.1161C123.23 98.9517 123.308 98.7352 123.601 98.6465Z" fill="#FDC33D"/>
<path d="M118.177 101.902L120.859 96.6091C121.507 97.0247 122.127 97.4823 122.716 97.9787C122.182 98.7285 121.597 99.4398 120.963 100.108C120.218 100.952 119.254 101.573 118.177 101.902Z" fill="#FDC33B"/>
<path d="M95.6996 113.96C95.7544 113.976 95.8118 113.991 95.8666 114.012C95.9214 114.033 95.9422 114.083 95.8874 114.148C95.8692 114.171 95.8587 114.203 95.8353 114.218C95.5535 114.411 95.2561 114.44 95.1074 114.283C95.0918 114.268 95.1074 114.231 95.1074 114.205C95.1231 114.015 95.3005 113.942 95.6996 113.96Z" fill="#C3DBDB"/>
<path d="M68.837 68.3065C68.3466 69.7961 66.93 74.2284 68.2109 79.4512C69.6666 85.3862 73.7441 88.8611 75.3485 90.189C81.7035 95.4535 89.4125 96.1892 93.0204 96.6483C91.2569 96.5909 89.436 96.4475 87.6176 96.2335C83.0288 95.6883 78.4869 94.8483 74.1224 93.3143C72.7202 92.8542 71.3695 92.2501 70.0918 91.5116C66.2621 89.1768 63.7864 85.7984 62.5681 81.5043C61.7572 78.5617 61.4867 75.4963 61.7698 72.4571C62.0856 68.6217 62.9719 64.8549 64.3995 61.2811C65.1618 59.3317 66.1494 57.4782 67.3422 55.7583C68.0015 54.8306 68.7353 53.9581 69.5362 53.1495C70.7206 51.9416 71.8475 50.6763 73.0606 49.4972C77.4121 45.2605 82.2618 41.7256 87.7611 39.0986C91.2371 37.4412 94.9712 36.3912 98.8015 35.9941C101.003 35.7386 103.221 35.647 105.436 35.7202C107.064 35.788 108.691 35.8924 110.262 36.3985C110.733 36.5415 111.182 36.7477 111.598 37.0115L111.626 37.0324C107.575 37.5385 103.09 39.2081 97.2623 41.376C97.2623 41.376 83.874 46.4032 72.3432 61.7872C70.8159 63.7475 69.6305 65.9516 68.837 68.3065Z" fill="#A7A6CD"/>
<path d="M96.4588 94.3498C94.1813 94.4046 91.9039 94.3811 89.629 94.2403C89.1072 94.209 88.5855 94.222 88.0637 94.2194C84.6175 94.2194 81.2626 93.6715 78.0643 92.3515C74.5163 90.8854 71.5032 88.6992 69.3483 85.4878C67.6816 83.0776 66.5412 80.3434 66.0012 77.4632C64.6108 69.6029 68.4248 61.8287 75.3015 58.3251C77.6113 57.1456 80.1641 56.5204 82.7575 56.499C84.3227 56.4781 85.888 56.3764 87.4533 56.2746C89.9999 56.0847 92.5547 56.0263 95.1074 56.0998C97.5049 56.1911 99.905 56.2798 102.3 56.3972C104.88 56.5251 107.46 56.6712 110.035 56.919C111.446 57.0292 112.822 57.4156 114.084 58.0564C118.691 60.4435 121.746 64.1323 123.371 69.029C124.078 71.1952 124.473 73.4509 124.545 75.7283C124.63 77.1719 124.559 78.6204 124.331 80.0485C123.805 83.038 122.401 85.8034 120.298 87.9922C117.765 90.6427 114.652 92.3072 111.133 93.2672C109.175 93.7873 107.159 94.0633 105.133 94.0889C102.949 94.1333 100.768 94.2663 98.5849 94.3498C97.8727 94.3707 97.1658 94.3498 96.4588 94.3498Z" fill="#252468"/>
<path d="M122.059 77.3355C122.064 80.6992 120.744 83.9296 118.386 86.328C116.173 88.6367 113.442 90.0455 110.387 90.8699C108.539 91.3445 106.639 91.5933 104.731 91.6107C102.905 91.6499 101.102 91.7386 99.2892 91.8038C98.1518 91.8429 97.0144 91.8768 95.5717 91.9212C92.582 91.8299 89.2872 91.8012 86.0027 91.6107C82.3243 91.3968 78.8703 90.369 75.7658 88.3106C73.349 86.7438 71.4138 84.5377 70.1752 81.9374C69.51 80.5443 68.8865 79.1486 68.5708 77.6303C68.5708 77.6303 68.5708 77.6172 68.5708 77.612C67.0786 70.4587 70.4309 63.7724 76.178 60.6862C77.8842 59.7536 79.7716 59.2001 81.7112 59.0636C82.4939 59.0088 83.3078 59.0036 84.1061 58.9618C86.287 58.847 88.468 58.7009 90.6489 58.6096C92.5251 58.5222 94.4046 58.5405 96.2787 58.6644C97.4735 58.7479 98.6788 58.7322 99.8762 58.7975L100.445 58.8288C103.264 58.9836 106.083 59.147 108.903 59.3192C109.516 59.3557 110.129 59.4418 110.729 59.5201C111.629 59.6323 112.432 60.0419 113.215 60.4462C116.465 62.1463 119.012 64.9366 120.41 68.3274C121.214 70.2318 121.722 72.2483 121.915 74.3067C122.023 75.3126 122.07 76.3239 122.059 77.3355Z" fill="#252468"/>
<path d="M94.8361 59.2774C90.3308 59.7653 86.822 60.3731 84.388 60.8427C83.1592 61.0879 82.7809 61.1844 82.4157 61.2888C77.8895 62.6167 75.0616 65.6507 74.292 66.5246C69.8857 71.5465 69.5361 78.2641 68.8135 78.1102C68.6726 78.0815 68.61 77.8154 68.5761 77.6041C68.0668 74.2452 68.5491 70.8107 69.964 67.722C70.6188 66.3237 72.3823 62.5436 76.1833 60.6783C78.2886 59.6479 81.1035 59.1626 81.7166 59.0557C82.734 58.8809 83.5062 58.8131 84.3645 58.7374C85.995 58.5965 86.7489 58.62 90.6543 58.6017C93.6517 58.6017 94.5674 58.5704 96.284 58.6565C96.9519 58.6904 99.2893 58.8104 99.2893 58.9513C99.2867 59.04 98.5276 59.1522 94.8361 59.2774Z" fill="#A6A6CB"/>
<path d="M95.6083 90.7419C100.114 90.2541 103.623 89.6488 106.057 89.1766C107.285 88.934 107.664 88.8375 108.029 88.7305C112.555 87.4027 115.383 84.3686 116.153 83.4947C120.559 78.4728 120.908 71.7552 121.631 71.9091C121.772 71.9378 121.834 72.2039 121.868 72.4152C122.378 75.7741 121.895 79.2087 120.48 82.2973C119.826 83.6982 118.062 87.4783 114.261 89.341C112.156 90.3715 109.341 90.8567 108.728 90.9637C107.71 91.1384 106.938 91.2063 106.08 91.2819C104.45 91.4254 103.696 91.3993 99.7902 91.4176C96.7927 91.4176 95.8771 91.4489 94.1605 91.3628C93.4926 91.3289 91.1552 91.2089 91.1552 91.068C91.1578 90.9741 91.9169 90.8619 95.6083 90.7419Z" fill="#A6A6CB"/>
<path d="M91.7525 101.477C92.6114 102.109 93.5748 102.585 94.5987 102.883C94.0229 103.279 93.5064 103.755 93.0647 104.297C92.9238 104.462 92.7939 104.637 92.676 104.819C92.5117 105.08 92.3212 105.08 92.0473 104.991C91.0206 104.67 90.03 104.244 89.0916 103.718C87.1898 102.708 85.4206 101.466 83.8244 100.021C83.4435 99.6665 83.094 99.2752 82.7366 98.8943C82.6664 98.8439 82.614 98.7726 82.5868 98.6906C82.5597 98.6086 82.5591 98.5201 82.5853 98.4377C84.5731 98.7143 86.5663 99.0456 88.5855 99.2204C88.9611 99.2517 89.3368 99.2856 89.7124 99.3143C90.2563 100.152 90.9475 100.885 91.7525 101.477Z" fill="#A6A6CB"/>
<path d="M102.524 102.894C101.574 103.569 100.564 104.159 99.5084 104.654C99.4235 104.694 99.3364 104.727 99.2475 104.756C98.898 104.874 98.5406 105.101 98.204 105.072C97.8675 105.043 97.7292 104.55 97.4892 104.289C97.1944 103.961 96.9048 103.624 96.6205 103.285C98.6684 103.504 100.737 103.235 102.524 102.894Z" fill="#A6A6CB"/>
<path d="M96.8188 118.708C96.0813 119.669 95.4628 120.716 94.977 121.825C94.6147 122.663 94.3452 123.538 94.1734 124.434L89.8168 124.398C90.2446 122.327 90.7828 120.28 91.429 118.267C91.4864 118.095 91.5594 117.925 91.6194 117.771C91.8803 117.633 92.0499 117.823 92.2325 117.894C92.7543 118.092 93.2604 118.306 93.756 118.549C94.4912 118.882 95.3119 118.977 96.1039 118.823C96.3405 118.797 96.5787 118.758 96.8188 118.708Z" fill="#A6A6CB"/>
<path d="M85.828 74.0169C85.6728 73.533 85.4045 73.093 85.0453 72.7334C84.3879 72.1099 83.6314 72.0734 82.9244 72.6395C82.5521 72.9477 82.2512 73.3331 82.0426 73.7691C81.8603 74.1333 81.716 74.5153 81.6122 74.9091H86.0889C86.0259 74.6052 85.9387 74.3069 85.828 74.0169Z" fill="#36C6F4"/>
<path d="M86.1593 77.6458C86.2868 76.8485 86.2798 76.0354 86.1384 75.2405H81.6748C81.5168 75.8503 81.4405 76.4784 81.4479 77.1084C81.4371 77.5317 81.4712 77.9549 81.5496 78.371H86.0054C86.0727 78.1329 86.1241 77.8907 86.1593 77.6458Z" fill="#36C6F4"/>
<path d="M81.5496 78.7153C81.6089 79.0235 81.6962 79.3257 81.8104 79.618C81.9735 80.1002 82.2479 80.5373 82.6113 80.8937C82.8723 81.1581 83.2211 81.3176 83.5918 81.3421C83.9624 81.3667 84.3292 81.2544 84.6227 81.0267C84.9707 80.7696 85.259 80.4404 85.468 80.0615C85.7131 79.6405 85.8983 79.1874 86.0184 78.7153H81.5496Z" fill="#36C6F4"/>
<path d="M106.698 74.0169C106.543 73.533 106.275 73.093 105.916 72.7334C105.258 72.1099 104.502 72.0734 103.795 72.6395C103.422 72.947 103.121 73.3326 102.913 73.7691C102.73 74.1332 102.585 74.5152 102.48 74.9091H106.946C106.887 74.6056 106.805 74.3073 106.698 74.0169Z" fill="#36C6F4"/>
<path d="M107.014 77.6458C107.141 76.8485 107.134 76.0354 106.993 75.2405H102.524C102.366 75.8503 102.29 76.4784 102.297 77.1084C102.286 77.5317 102.321 77.9549 102.399 78.371H106.855C106.923 78.1327 106.976 77.8905 107.014 77.6458Z" fill="#36C6F4"/>
<path d="M102.404 78.7153C102.459 79.0231 102.542 79.3252 102.652 79.618C102.814 80.1001 103.088 80.5372 103.45 80.8937C103.712 81.1577 104.061 81.317 104.432 81.3415C104.803 81.366 105.17 81.2541 105.464 81.0267C105.812 80.7696 106.101 80.4404 106.31 80.0615C106.554 79.64 106.739 79.1871 106.86 78.7153H102.404Z" fill="#36C6F4"/>
<path d="M87.2184 68.0636C85.9684 68.8748 84.5593 69.4093 83.0857 69.6311C81.6121 69.853 80.1081 69.757 78.6747 69.3497C77.8659 69.1227 77.5216 70.3802 78.3277 70.6097C79.9289 71.0635 81.6082 71.1716 83.2544 70.9269C84.9005 70.6823 86.4758 70.0904 87.8758 69.1906C88.5776 68.7366 87.9254 67.6044 87.2184 68.0636Z" fill="#36C6F4"/>
<path d="M110.09 70.1325C108.73 69.1738 107.181 68.5151 105.547 68.2003C103.913 67.8855 102.231 67.9216 100.612 68.3063C99.7955 68.4968 100.14 69.7568 100.959 69.5638C102.411 69.2293 103.917 69.2075 105.378 69.4998C106.839 69.7922 108.221 70.392 109.432 71.2595C109.582 71.3446 109.76 71.3677 109.926 71.3239C110.093 71.28 110.236 71.1726 110.325 71.0247C110.408 70.8743 110.43 70.6977 110.386 70.5315C110.342 70.3654 110.236 70.2224 110.09 70.1325Z" fill="#36C6F4"/>
<path d="M110.643 60.8715V66.8091C110.643 67.6491 111.947 67.6491 111.947 66.8091V60.8715C111.947 60.0314 110.643 60.0314 110.643 60.8715Z" fill="#4DCDFF"/>
<path d="M113.559 62.3895V70.1533C113.559 70.9933 114.864 70.9933 114.864 70.1533V62.3895C114.864 61.5495 113.559 61.5495 113.559 62.3895Z" fill="#4DCDFF"/>
<path d="M116.473 64.3932V68.1759C116.473 68.3489 116.542 68.5148 116.664 68.6371C116.787 68.7594 116.953 68.8281 117.126 68.8281C117.299 68.8281 117.464 68.7594 117.587 68.6371C117.709 68.5148 117.778 68.3489 117.778 68.1759V64.3932C117.778 64.2202 117.709 64.0543 117.587 63.932C117.464 63.8097 117.299 63.741 117.126 63.741C116.953 63.741 116.787 63.8097 116.664 63.932C116.542 64.0543 116.473 64.2202 116.473 64.3932Z" fill="#4DCDFF"/>
<path d="M89.509 86.1844C89.4255 85.8426 91.0195 85.013 92.7022 84.6817C93.55 84.5147 95.457 84.2721 97.3275 85.1852C97.9171 85.4722 98.8198 85.9287 99.0285 86.8183C99.1139 87.1342 99.09 87.4698 98.9606 87.7705C98.5745 88.5923 97.2519 88.8714 96.271 88.7201C94.7057 88.4801 94.677 87.2487 92.8795 86.56C91.0821 85.8713 89.5899 86.5131 89.509 86.1844Z" fill="#36C6F4"/>
<path d="M132.752 61.3853C132.868 61.0131 133.059 60.6686 133.313 60.3731C133.548 60.1093 133.817 59.8785 134.114 59.687C134.401 59.5038 134.702 59.3425 135.014 59.2044C135.324 59.0687 135.614 58.9435 135.888 58.8104C136.145 58.6914 136.387 58.5416 136.608 58.3643C136.817 58.1909 136.972 57.9609 137.054 57.7017C137.123 57.5031 137.141 57.2905 137.108 57.083C137.075 56.8755 136.991 56.6794 136.864 56.5121C136.55 56.1 136.11 55.8014 135.611 55.6616C135.085 55.4762 134.522 55.4233 133.97 55.5077C133.46 55.5951 132.979 55.8066 132.57 56.1234L130.829 54.1433C131.575 53.5609 132.46 53.1848 133.397 53.0529C135.361 52.8636 137.327 53.4102 138.911 54.5868C139.463 55.0083 139.886 55.5758 140.132 56.2251C140.352 56.8653 140.346 57.5614 140.114 58.1974C139.879 59.0024 139.349 59.689 138.63 60.1201C138.32 60.3065 137.997 60.4713 137.664 60.6131C137.336 60.754 137.02 60.8949 136.725 61.0357C136.443 61.1631 136.18 61.3291 135.943 61.5288C135.715 61.7298 135.547 61.9898 135.457 62.2801L132.752 61.3853ZM132.624 66.3264C132.399 66.2585 132.191 66.1452 132.011 65.9936C131.832 65.8419 131.685 65.6551 131.581 65.4446C131.475 65.2459 131.411 65.0276 131.393 64.8032C131.375 64.5788 131.403 64.3531 131.476 64.1402C131.541 63.9258 131.651 63.7278 131.798 63.5595C131.946 63.3912 132.128 63.2565 132.332 63.1645C132.77 62.985 133.259 62.9681 133.708 63.1168C134.158 63.2656 134.54 63.5703 134.784 63.9758C134.89 64.1718 134.953 64.3877 134.97 64.6097C134.988 64.8317 134.958 65.0548 134.884 65.2646C134.815 65.4771 134.704 65.6737 134.558 65.8427C134.412 66.0116 134.233 66.1495 134.033 66.2481C133.817 66.3591 133.58 66.4234 133.337 66.4369C133.094 66.4504 132.852 66.4127 132.624 66.3264Z" fill="#36C6F4"/>
<path d="M59.534 56.6947C59.3711 56.3416 59.2823 55.959 59.2731 55.5703C59.2671 55.2183 59.3092 54.8672 59.3984 54.5268C59.4833 54.1956 59.595 53.872 59.7323 53.5589C59.8679 53.2511 59.9932 52.9589 60.1079 52.6797C60.2168 52.4179 60.293 52.1436 60.3349 51.8632C60.3721 51.5962 60.3303 51.3242 60.2149 51.0805C60.1308 50.8878 60.0003 50.7187 59.8351 50.5886C59.6699 50.4584 59.475 50.3711 59.2679 50.3344C58.7577 50.2438 58.2317 50.3226 57.7705 50.5588C57.2596 50.7775 56.8113 51.12 56.4661 51.5553C56.1423 51.9595 55.9228 52.437 55.8269 52.9458L53.2181 52.6693C53.3722 51.7366 53.768 50.8605 54.366 50.1283C55.0843 49.2781 55.9946 48.611 57.0217 48.1822C57.7894 47.8167 58.6165 47.5922 59.4636 47.5196C60.1556 47.457 60.8513 47.5889 61.4723 47.9004C62.0672 48.2219 62.534 48.7375 62.795 49.3614C62.9906 49.7704 63.1058 50.2132 63.1341 50.6658C63.1532 51.0443 63.1091 51.4234 63.0037 51.7875C62.9027 52.1351 62.7771 52.4751 62.628 52.805C62.4819 53.1311 62.3463 53.4467 62.2237 53.7493C62.1042 54.0345 62.0244 54.3347 61.9863 54.6415C61.9551 54.9429 62.0074 55.2471 62.1376 55.5207L59.534 56.6947ZM62.7872 60.4174C62.5748 60.5208 62.3437 60.5799 62.1078 60.5912C61.8718 60.6024 61.6361 60.5654 61.4149 60.4826C61.2033 60.4078 61.0092 60.2906 60.8446 60.1381C60.6799 59.9855 60.5482 59.8009 60.4575 59.5956C60.3599 59.3929 60.3067 59.1717 60.3013 58.9468C60.2959 58.7219 60.3385 58.4984 60.4262 58.2912C60.6264 57.8631 60.9731 57.5205 61.4036 57.3254C61.8341 57.1302 62.3201 57.0953 62.7741 57.2268C62.9847 57.2997 63.1777 57.4158 63.3408 57.5677C63.5039 57.7195 63.6334 57.9038 63.7211 58.1086C63.8157 58.312 63.8682 58.5324 63.8754 58.7565C63.8826 58.9807 63.8443 59.204 63.7628 59.413C63.6785 59.6388 63.5483 59.8446 63.3803 60.0175C63.2124 60.1904 63.0104 60.3265 62.7872 60.4174Z" fill="#36C6F4"/>
<path d="M55.347 65.6978C55.2654 65.3889 55.2486 65.0665 55.2974 64.7508C55.3454 64.4651 55.4333 64.1876 55.5583 63.9264C55.6764 63.672 55.8151 63.4277 55.9731 63.1959C56.1296 62.9664 56.2731 62.7498 56.4088 62.5411C56.5357 62.3462 56.639 62.1369 56.7166 61.9176C56.7864 61.7059 56.7937 61.4785 56.7375 61.2628C56.6991 61.0941 56.6194 60.9376 56.5056 60.8074C56.3918 60.6772 56.2473 60.5773 56.0853 60.5167C55.6871 60.3676 55.2513 60.352 54.8435 60.4724C54.3969 60.5721 53.9819 60.7809 53.6356 61.0802C53.3192 61.3653 53.0773 61.7236 52.9313 62.1237L50.8442 61.5054C51.1074 60.7761 51.5571 60.1284 52.1486 59.6271C52.8567 59.0498 53.6918 58.6492 54.5852 58.4584C55.2591 58.2786 55.96 58.222 56.654 58.2914C57.2222 58.3444 57.7643 58.5549 58.2193 58.8993C58.6508 59.2493 58.9499 59.7361 59.0671 60.2793C59.1629 60.6371 59.1895 61.0099 59.1454 61.3776C59.1078 61.6856 59.0197 61.9853 58.8845 62.2646C58.7492 62.5282 58.5967 62.7827 58.428 63.0264C58.261 63.269 58.1019 63.5038 57.9584 63.7281C57.82 63.9405 57.7103 64.1704 57.6323 64.4116C57.5656 64.6514 57.5656 64.9049 57.6323 65.1447L55.347 65.6978ZM57.4105 69.1909C57.2238 69.2432 57.0284 69.2565 56.8363 69.23C56.6442 69.2035 56.4596 69.1378 56.294 69.037C56.1343 68.9454 55.9952 68.8219 55.8853 68.6742C55.7753 68.5266 55.6969 68.3579 55.6548 68.1787C55.6087 68.0026 55.6 67.8187 55.6292 67.639C55.6584 67.4593 55.7249 67.2877 55.8244 67.1352C56.0506 66.8189 56.3826 66.5943 56.7602 66.5019C57.1379 66.4095 57.5361 66.4556 57.8827 66.6317C58.0419 66.7217 58.1803 66.8442 58.2891 66.9911C58.3978 67.1381 58.4745 67.3063 58.5141 67.4848C58.5582 67.6607 58.5667 67.8437 58.5389 68.0229C58.5111 68.2021 58.4477 68.374 58.3523 68.5283C58.25 68.6978 58.1133 68.8441 57.9511 68.9578C57.789 69.0714 57.6048 69.1499 57.4105 69.1883V69.1909Z" fill="#36C6F4"/>
<path d="M130.409 33.6252C130.695 32.6889 131.088 31.9093 131.588 31.2865C132.126 30.644 132.708 30.1083 133.335 29.6794C133.963 29.2505 134.601 28.887 135.25 28.5889C135.937 28.2711 136.572 27.9687 137.156 27.6817C137.748 27.3662 138.256 27.0248 138.678 26.6575C139.129 26.2987 139.437 25.8498 139.601 25.3107C139.861 24.4594 139.71 23.6843 139.148 22.9854C138.614 22.2951 137.794 21.781 136.687 21.4432C135.552 21.0967 134.434 21.0501 133.333 21.3034C132.261 21.5653 131.293 22.0921 130.431 22.8836L125.129 17.5425C126.816 15.9792 128.882 14.9505 131.329 14.4565C133.784 13.9341 136.572 14.1493 139.693 15.1022C141.878 15.7692 143.712 16.6703 145.196 17.8057C146.716 18.9213 147.777 20.2222 148.378 21.7085C148.979 23.1948 149.015 24.8034 148.487 26.5343C148.149 27.641 147.684 28.5538 147.093 29.2727C146.501 29.9916 145.84 30.5809 145.111 31.0406C144.409 31.509 143.678 31.9218 142.918 32.279C142.166 32.6078 141.447 32.9312 140.761 33.249C140.103 33.5754 139.525 33.9421 139.029 34.3489C138.533 34.7557 138.185 35.2854 137.985 35.9381L130.409 33.6252ZM130.767 46.0183C129.377 45.5939 128.362 44.8033 127.722 43.6464C127.083 42.4896 126.949 41.3011 127.322 40.081C127.703 38.8324 128.473 37.9353 129.632 37.3896C130.8 36.8156 132.079 36.7407 133.47 37.1652C134.917 37.607 135.95 38.3877 136.57 39.5075C137.227 40.6076 137.365 41.7819 136.984 43.0304C136.611 44.2506 135.837 45.1619 134.66 45.7643C133.512 46.3755 132.214 46.4601 130.767 46.0183Z" fill="#4DCDFF"/>
</g>
<defs>
<clipPath id="clip0_286_10981">
<rect width="156" height="139.07" fill="white" transform="translate(0 0.5979)"/>
</clipPath>
<clipPath id="clip1_286_10981">
<rect width="50" height="50" fill="white" transform="matrix(0.979259 -0.202611 -0.202611 -0.979259 25.767 96.1475)"/>
</clipPath>
</defs>
</svg>
