<svg width="28" height="27" viewBox="0 0 28 27" fill="none" xmlns="http://www.w3.org/2000/svg">
<rect x="0.5" width="27" height="27" rx="13.5" fill="#FEECEB"/>
<mask id="mask0_1050_12746" style="mask-type:alpha" maskUnits="userSpaceOnUse" x="4" y="3" width="20" height="21">
<rect x="4" y="3.5" width="20" height="20" fill="#D9D9D9"/>
</mask>
<g mask="url(#mask0_1050_12746)">
<mask id="mask1_1050_12746" style="mask-type:alpha" maskUnits="userSpaceOnUse" x="2" y="2" width="24" height="24">
<rect x="2.57153" y="2.54785" width="22.8571" height="22.8571" fill="#D9D9D9"/>
</mask>
<g mask="url(#mask1_1050_12746)">
<path d="M10.5716 18.7379L14.0001 15.3093L17.4287 18.7379L18.762 17.4045L15.3335 13.976L18.762 10.5474L17.4287 9.21405L14.0001 12.6426L10.5716 9.21405L9.23822 10.5474L12.6668 13.976L9.23822 17.4045L10.5716 18.7379ZM14.0001 23.4998C12.6827 23.4998 11.4446 23.2496 10.2858 22.7493C9.12711 22.2496 8.11918 21.5712 7.26203 20.7141C6.40489 19.8569 5.72648 18.849 5.22679 17.6902C4.72648 16.5315 4.47632 15.2934 4.47632 13.976C4.47632 12.6585 4.72648 11.4204 5.22679 10.2617C5.72648 9.10294 6.40489 8.09501 7.26203 7.23786C8.11918 6.38072 9.12711 5.70199 10.2858 5.20167C11.4446 4.70199 12.6827 4.45215 14.0001 4.45215C15.3176 4.45215 16.5557 4.70199 17.7144 5.20167C18.8731 5.70199 19.8811 6.38072 20.7382 7.23786C21.5954 8.09501 22.2738 9.10294 22.7735 10.2617C23.2738 11.4204 23.5239 12.6585 23.5239 13.976C23.5239 15.2934 23.2738 16.5315 22.7735 17.6902C22.2738 18.849 21.5954 19.8569 20.7382 20.7141C19.8811 21.5712 18.8731 22.2496 17.7144 22.7493C16.5557 23.2496 15.3176 23.4998 14.0001 23.4998Z" fill="#F04438"/>
</g>
</g>
</svg>
