<svg width="174" height="104" viewBox="0 0 174 104" fill="none" xmlns="http://www.w3.org/2000/svg">
<path fill-rule="evenodd" clip-rule="evenodd" d="M41.5159 33.9561L57.4231 52.9966C57.8023 53.5817 58.0097 54.0751 58.1367 54.6031C58.4222 55.8389 58.198 57.1278 57.5054 58.2107C56.8121 59.2903 55.7501 60.0419 54.5031 60.3287L29.9324 64.6286C29.4066 64.6881 28.8657 64.661 28.3469 64.5632C25.7416 64.0077 24.0836 61.4522 24.6549 58.8854L33.2056 35.395C33.4939 34.5714 34.0185 33.8127 34.7345 33.2589C36.7955 31.5936 39.8445 31.9172 41.5159 33.9561ZM41.255 48.3844C41.3947 49.1828 40.8569 49.9644 40.0513 50.1054C39.2457 50.2463 38.4576 49.6968 38.3179 48.8984L37.4944 44.1929C37.3544 43.3928 37.9125 42.6283 38.7181 42.4873C39.5237 42.3463 40.2915 42.8788 40.4315 43.6789L41.255 48.3844ZM41.0468 55.7941C40.2412 55.935 39.4532 55.3855 39.3137 54.5888C39.1737 53.7887 39.7286 53.0059 40.5342 52.8649C41.3398 52.724 42.1082 53.2598 42.2476 54.0565C42.3902 54.8715 41.8524 55.6531 41.0468 55.7941Z" fill="#DB3232"/>
<circle opacity="0.2" cx="39.5779" cy="47.3707" r="33.3648" transform="rotate(-9.92634 39.5779 47.3707)" fill="#DB3232"/>
<path d="M143.8 93.2922L144.915 93.1364L144.672 92.0367L143.656 92.2617C144.672 92.0367 144.672 92.0363 144.671 92.0359L144.671 92.0351L144.671 92.0333L144.67 92.0284L144.667 92.0146C144.664 92.0035 144.661 91.9888 144.656 91.9707C144.647 91.9346 144.635 91.8848 144.618 91.8233C144.584 91.7007 144.534 91.5304 144.466 91.3291C144.33 90.9309 144.113 90.3896 143.793 89.8501C143.178 88.8134 141.971 87.4734 140.012 87.7467L140.011 87.7467L84.9152 95.4403C82.9184 95.7191 82.2169 97.375 81.993 98.5478C81.8771 99.155 81.8616 99.7334 81.8725 100.15C81.878 100.361 81.8904 100.537 81.9018 100.663C81.9076 100.727 81.913 100.778 81.9174 100.814C81.9195 100.833 81.9214 100.848 81.9228 100.859L81.9247 100.873L81.9253 100.878L81.9256 100.88L81.9257 100.881C81.9258 100.881 81.9258 100.882 82.9562 100.738L81.9258 100.882L82.0697 101.912L83.1001 101.768L143.8 93.2922ZM83.987 100.596C83.987 100.596 83.987 100.596 83.9869 100.596L83.987 100.596Z" fill="#E6F6FF" stroke="#252468" stroke-width="2.08083"/>
<path fill-rule="evenodd" clip-rule="evenodd" d="M158.72 78.071L65.4567 91.4786L62.5474 90.2394L59.5288 71.2617L158.022 57.6534L160.584 75.9985L158.72 78.071Z" fill="#76ACEE"/>
<path d="M147.342 1.83827L55.2723 14.6949C52.1938 15.1248 50.3234 18.2698 50.765 21.4327L60.0184 87.6993C60.4604 90.8643 63.1208 93.374 66.199 92.9442L158.269 80.0876C161.316 79.662 162.809 76.6062 162.363 73.408L153.109 7.14139C152.663 3.94371 150.389 1.41278 147.342 1.83827ZM158.887 73.8938C158.989 74.6279 158.904 75.3379 158.677 75.8445C158.461 76.326 158.161 76.5562 157.783 76.6089L65.7132 89.4655C64.8947 89.5798 63.7114 88.7676 63.4945 87.2143L61.8255 75.262L157.218 61.9415L158.887 73.8938Z" fill="#E6F6FF" stroke="#252468" stroke-width="2.08083"/>
<path fill-rule="evenodd" clip-rule="evenodd" d="M113.73 74.839C113.958 76.4712 112.821 77.9764 111.187 78.2045C109.557 78.4321 108.051 77.296 107.823 75.6638C107.595 74.0325 108.732 72.5219 110.362 72.2943C111.996 72.0662 113.502 73.2077 113.73 74.839Z" fill="#0D4E9E"/>
<path d="M90.2414 42.0049L80.3495 43.3862L83.1478 63.4258L93.0398 62.0445L90.2414 42.0049Z" fill="#1270E2"/>
<path d="M103.429 36.1836L93.5367 37.5649L96.8803 61.509L106.772 60.1277L103.429 36.1836Z" fill="#1270E2"/>
<path d="M116.048 26.2839L106.161 27.6646L110.619 59.5899L120.506 58.2092L116.048 26.2839Z" fill="#1270E2"/>
<path d="M129.015 14.4141L119.126 15.7949L124.962 57.588L134.851 56.2072L129.015 14.4141Z" fill="#1270E2"/>
<path d="M138.312 55.0174L79.1462 63.2793L79.5097 65.8824L138.676 57.6206L138.312 55.0174Z" fill="#0D4E9E"/>
<path d="M130.089 35.0721L127.477 20.9575L119.459 32.8607L123.799 31.4166C118.955 40.8511 106.684 52.064 86.4629 54.8878L86.8321 57.5318C108.584 54.4944 121.64 42.0824 126.546 31.8962L130.089 35.0721Z" fill="#1270E2"/>
<path d="M83.3815 25.9952L81.6185 26.8369L82.4599 28.5991L84.2228 27.7574L83.3815 25.9952Z" fill="#1270E2"/>
<path d="M86.2965 27.2686L88.2477 27.2215L88.1963 25.2686L86.2462 25.3142L86.2965 27.2686Z" fill="#1270E2"/>
<path d="M90.345 27.6089L92.1433 28.3621L92.8961 26.5616L91.0893 25.8114L90.345 27.6089Z" fill="#1270E2"/>
<path d="M95.3205 28.2347L93.8981 29.5752L95.2367 30.9957L96.6592 29.6552L95.3205 28.2347Z" fill="#1270E2"/>
<path d="M96.3502 32.8083L97.0014 34.6519L98.8418 34.0035L98.1943 32.1638L96.3502 32.8083Z" fill="#1270E2"/>
<path d="M97.2743 36.7668L97.1193 38.71L99.0662 38.869L99.2204 36.9201L97.2743 36.7668Z" fill="#1270E2"/>
<path d="M96.5086 40.7543L95.5743 42.4673L97.2915 43.4001L98.2243 41.6824L96.5086 40.7543Z" fill="#1270E2"/>
<path d="M94.1924 44.0859L92.6384 45.2729L93.8238 46.8248L95.3778 45.6378L94.1924 44.0859Z" fill="#1270E2"/>
<path d="M90.7164 46.1861L88.8158 46.6367L89.2658 48.5347L91.1663 48.0841L90.7164 46.1861Z" fill="#1270E2"/>
<path d="M86.6829 46.6925L84.7667 46.3298L84.4057 48.2516L86.3245 48.6072L86.6829 46.6925Z" fill="#1270E2"/>
<path d="M82.7971 45.5144L81.1901 44.4023L80.0807 46.0098L81.6879 47.1174L82.7971 45.5144Z" fill="#1270E2"/>
<path d="M78.7044 41.1857L77.0417 42.2021L78.0613 43.8697L79.7239 42.8532L78.7044 41.1857Z" fill="#1270E2"/>
<path d="M78.0003 39.1788L77.75 37.242L75.8122 37.4952L76.0585 39.4347L78.0003 39.1788Z" fill="#1270E2"/>
<path d="M77.9183 35.1184L78.4778 33.249L76.6043 32.6914L76.0491 34.5628L77.9183 35.1184Z" fill="#1270E2"/>
<path d="M79.2835 28.6266L78.0155 30.1094L79.4996 31.3786L80.7676 29.8958L79.2835 28.6266Z" fill="#1270E2"/>
<path d="M78.6368 41.1708C80.9682 46.0746 86.8234 48.1537 91.7257 45.8271C96.6271 43.4975 98.7146 37.6419 96.3851 32.7441C94.0548 27.8383 88.1966 25.7574 83.2985 28.0852C78.398 30.4147 76.3104 36.2693 78.6368 41.1708ZM84.8497 38.2186C84.1523 36.7523 84.7748 34.9938 86.2477 34.2958C87.7163 33.5989 89.473 34.2208 90.1722 35.6904C90.8705 37.1624 90.2463 38.9248 88.7788 39.6197C87.3052 40.3164 85.5484 39.6901 84.8497 38.2186Z" fill="#1270E2"/>
<path d="M82.2191 39.4714C83.6072 42.3937 87.1038 43.6362 90.0224 42.2508C92.9447 40.8654 94.1921 37.3654 92.8041 34.444C91.4131 31.5234 87.9167 30.2764 84.9949 31.6649C82.0731 33.0534 80.8292 36.5529 82.2191 39.4714ZM84.8623 38.2181C84.1687 36.7535 84.7939 35.008 86.2551 34.3157C87.7153 33.6227 89.4593 34.2405 90.156 35.7015C90.8511 37.1668 90.2259 38.9123 88.7695 39.6066C87.3078 40.3016 85.5585 39.6814 84.8623 38.2181Z" fill="#97DAFF"/>
<path d="M66.1686 29.3439L67.8031 28.5679L67.0245 26.9221L65.3847 27.7016L66.1686 29.3439Z" fill="#1270E2"/>
<path d="M70.2162 28.4382L71.9288 29.0461L72.5336 27.3438L70.8286 26.7326L70.2162 28.4382Z" fill="#1270E2"/>
<path d="M73.7139 30.6689L74.4952 32.3062L76.1329 31.5275L75.359 29.8891L73.7139 30.6689Z" fill="#1270E2"/>
<path d="M74.6207 34.7177L74.0068 36.4284L75.7148 37.0392L76.3245 35.3299L74.6207 34.7177Z" fill="#1270E2"/>
<path d="M72.3918 38.2215L70.7525 38.9983L71.5292 40.6371L73.1676 39.857L72.3918 38.2215Z" fill="#1270E2"/>
<path d="M68.339 39.1228L66.6316 38.5164L66.0231 40.2184L67.733 40.8289L68.339 39.1228Z" fill="#1270E2"/>
<path d="M64.0634 35.258L62.4277 36.0361L63.207 37.6742L64.8427 36.8961L64.0634 35.258Z" fill="#1270E2"/>
<path d="M63.9387 32.8435L64.5425 31.1337L62.8397 30.5285L62.2305 32.235L63.9387 32.8435Z" fill="#1270E2"/>
<path d="M63.9452 36.317C65.3418 39.2583 68.8661 40.5161 71.8109 39.1159C74.7557 37.7193 76.0098 34.1902 74.6139 31.2443C73.2142 28.3026 69.6892 27.0497 66.7428 28.4479C63.7962 29.8448 62.5441 33.3687 63.9452 36.317ZM67.1834 34.7755C66.6299 33.6246 67.1258 32.2366 68.2817 31.6864C69.4401 31.1386 70.8265 31.6272 71.374 32.7861C71.9237 33.9451 71.4298 35.3287 70.2738 35.8776C69.1121 36.4308 67.7311 35.9361 67.1834 34.7755Z" fill="#1270E2"/>
<path opacity="0.1" d="M148.945 28.2834C147.208 29.2796 145.961 30.8885 145.434 32.814C144.344 36.8041 146.702 40.9393 150.694 42.0292C152.63 42.5584 154.657 42.2985 156.407 41.297C158.143 40.302 159.389 38.6953 159.915 36.7709C160.443 34.84 160.184 32.8175 159.189 31.0741C158.194 29.3296 156.584 28.0794 154.652 27.5513C152.719 27.0235 150.691 27.2838 148.945 28.2834Z" fill="white"/>
<path d="M155.804 41.6088C155.902 41.563 156 41.5155 156.097 41.4664C156 41.5158 155.902 41.563 155.804 41.6088Z" fill="#A6DAE9"/>
<path opacity="0.6" d="M148.945 28.2841C150.505 27.391 152.289 27.089 154.031 27.41C153.69 27.3482 153.349 27.3096 153.006 27.2943C152.122 27.4367 151.26 27.7378 150.457 28.1981C148.721 29.1935 147.475 30.8023 146.949 32.7281C145.858 36.7197 148.217 40.853 152.207 41.9455C152.751 42.0932 153.303 42.1786 153.853 42.2032C154.517 42.0965 155.166 41.9006 155.787 41.6164C154.189 42.349 152.406 42.4976 150.694 42.0306C146.702 40.9407 144.343 36.8052 145.434 32.8154C145.961 30.8891 147.208 29.2799 148.945 28.2841Z" fill="white"/>
<path d="M154.044 27.4136C154.102 27.4241 154.16 27.4358 154.218 27.4477C154.16 27.4359 154.102 27.4244 154.044 27.4136Z" fill="#A6DAE9"/>
<path d="M154.254 27.4551C154.306 27.4663 154.357 27.4778 154.409 27.4911C154.357 27.4781 154.306 27.4657 154.254 27.4551Z" fill="#A6DAE9"/>
<path d="M154.457 27.5024C154.522 27.5172 154.587 27.5343 154.652 27.5518C154.587 27.5343 154.522 27.5176 154.457 27.5024Z" fill="#A6DAE9"/>
<path d="M159.148 46.1988C158.53 46.5526 157.742 46.3362 157.389 45.7181L156.272 43.6956C155.921 43.0766 156.134 42.2909 156.75 41.9374C156.75 41.9374 156.754 41.9369 156.755 41.9363C157.373 41.5837 158.161 41.7987 158.514 42.4175L159.63 44.4396C159.983 45.0577 159.769 45.8441 159.151 46.1977C159.151 46.1977 159.149 46.1984 159.148 46.1988Z" fill="#76ACEE"/>
<path d="M142.946 32.1334C141.48 37.4953 144.651 43.0524 150.014 44.5175C152.616 45.2286 155.343 44.8803 157.689 43.5358C157.689 43.5358 157.689 43.5358 157.689 43.5351C160.022 42.199 161.695 40.0378 162.402 37.4501C163.112 34.8555 162.765 32.1361 161.429 29.7937C160.092 27.4521 157.927 25.7721 155.333 25.0625C152.731 24.3523 150.007 24.7006 147.662 26.0446C145.328 27.3819 143.653 29.5444 142.946 32.1334ZM145.434 32.814C145.961 30.8884 147.208 29.2795 148.945 28.2834C150.691 27.2838 152.718 27.0235 154.652 27.5513C156.583 28.0797 158.194 29.33 159.189 31.074C160.185 32.8174 160.442 34.84 159.914 36.7709C159.389 38.6953 158.142 40.302 156.407 41.297C154.656 42.2985 152.63 42.5584 150.693 42.0292C146.702 40.9392 144.344 36.8037 145.434 32.814Z" fill="#76ACEE"/>
<path d="M160.721 43.6921L156.221 46.271L164.297 60.366L168.798 57.7871L160.721 43.6921Z" fill="#76ACEE"/>
<path d="M159.789 44.2253L157.153 45.7358L165.229 59.8311L167.865 58.3206L159.789 44.2253Z" fill="#3A88E7"/>
<path d="M167.552 55.617L163.052 58.1963L164.291 60.358L168.791 57.7787L167.552 55.617Z" fill="#76ACEE"/>
<path d="M166.628 56.1506L163.992 57.6611L165.231 59.8234L167.867 58.3129L166.628 56.1506Z" fill="#76ACEE"/>
<path opacity="0.6" d="M157.357 30.5403C155.857 29.2152 153.933 28.5505 151.94 28.669C151.248 28.7104 150.585 28.8462 149.959 29.0609L150.109 30.6248C150.854 30.3186 151.659 30.1257 152.507 30.0754C154.5 29.9561 156.424 30.6199 157.924 31.9453C158.616 32.5567 159.183 33.2977 159.601 34.0892C159.213 32.729 158.446 31.5028 157.357 30.5403Z" fill="white"/>
</svg>
