<svg width="157" height="140" viewBox="0 0 157 140" fill="none" xmlns="http://www.w3.org/2000/svg">
<g clip-path="url(#clip0_286_10948)">
<g clip-path="url(#clip1_286_10948)">
<g clip-path="url(#clip2_286_10948)">
<path d="M28.3411 60.5299C25.797 55.5636 28.1814 49.4913 33.425 47.5829L36.0547 46.6258C38.5576 45.7149 41.1712 45.9483 43.3558 47.0322C40.9051 48.0224 39.6618 50.7847 40.5729 53.2881C41.5041 55.8467 44.3332 57.166 46.8917 56.2348C47.6274 55.967 48.2606 55.5423 48.7673 55.0123C49.2888 56.2199 50.2592 57.1946 51.4929 57.7153L51.5836 57.7536C54.9169 59.1605 56.7699 62.7474 55.9884 66.2801C55.4347 68.7827 53.6409 70.8291 51.2323 71.7057L38.5375 76.326C35.7451 77.3423 32.6176 76.674 30.4845 74.6051L30.2052 74.3342C27.9168 72.1147 27.3516 68.6585 28.8138 65.8256C29.5194 64.4586 29.5219 62.835 28.8205 61.4657L28.3411 60.5299Z" fill="#DB3232"/>
<path d="M40.5333 78.4851C40.9053 77.9151 41.669 77.7546 42.2391 78.1266L42.9271 78.5757C45.3354 80.1475 48.5783 78.9673 49.4129 76.2152L49.6514 75.4289C49.8489 74.7775 50.5371 74.4096 51.1885 74.6071C51.8399 74.8047 52.2079 75.4929 52.0103 76.1443L51.7718 76.9306C50.4603 81.2552 45.3643 83.1099 41.5799 80.64L40.8918 80.1909C40.3218 79.8189 40.1613 79.0552 40.5333 78.4851Z" fill="#DB3232"/>
<path d="M48.5769 50.3751C49.1977 52.0808 48.3182 53.9668 46.6125 54.5876C44.9067 55.2084 43.0207 54.3289 42.3999 52.6232C41.7791 50.9175 42.6586 49.0315 44.3643 48.4107C46.07 47.7899 47.9561 48.6694 48.5769 50.3751Z" fill="#DB3232"/>
</g>
<mask id="path-2-outside-1_286_10948" maskUnits="userSpaceOnUse" x="17.188" y="50.9843" width="47.8509" height="26.5693" fill="black">
<rect fill="white" x="17.188" y="50.9843" width="47.8509" height="26.5693"/>
<path d="M18.4135 56.9936C17.7367 56.678 17.4439 55.8735 17.7595 55.1967C18.0751 54.5199 18.8796 54.2271 19.5564 54.5427L61.6724 74.1824C62.3492 74.498 62.642 75.3025 62.3264 75.9793C62.0108 76.6561 61.2063 76.9489 60.5295 76.6333L18.4135 56.9936Z"/>
</mask>
<path d="M18.4135 56.9936C17.7367 56.678 17.4439 55.8735 17.7595 55.1967C18.0751 54.5199 18.8796 54.2271 19.5564 54.5427L61.6724 74.1824C62.3492 74.498 62.642 75.3025 62.3264 75.9793C62.0108 76.6561 61.2063 76.9489 60.5295 76.6333L18.4135 56.9936Z" fill="#DB3232"/>
<path d="M17.188 56.4221L18.3309 53.9713L17.188 56.4221ZM62.8978 74.7539L61.755 77.2047L62.8978 74.7539ZM61.755 77.2047L17.188 56.4221L61.755 77.2047ZM17.7595 55.1967C18.8325 52.8956 21.5678 51.9001 23.8689 52.9732L60.1029 69.8699C62.4039 70.943 63.3994 73.6782 62.3264 75.9793L62.3264 75.9793C62.1748 76.3043 61.9004 76.5558 61.5634 76.6784C61.2264 76.8011 60.8545 76.7848 60.5295 76.6333L18.4135 56.9936L17.188 56.4221L18.4135 56.9936C18.0885 56.842 17.837 56.5676 17.7143 56.2306C17.5917 55.8936 17.6079 55.5217 17.7595 55.1967H17.7595Z" fill="#F8D6D6" mask="url(#path-2-outside-1_286_10948)"/>
</g>
<circle opacity="0.2" cx="40.6715" cy="63.6226" r="33.365" transform="rotate(-19.9992 40.6715 63.6226)" fill="#DB3232"/>
<path d="M125.396 25.5404C124.747 26.1926 124.092 26.8448 123.241 27.2335C122.546 27.557 121.85 27.8744 121.154 28.1857C120.231 28.6005 119.284 28.9683 118.381 29.4248C117.44 29.874 116.474 30.2702 115.488 30.6118C115.115 30.6849 114.844 30.4527 114.552 30.291C110.578 28.0931 106.21 26.7013 101.698 26.1952C98.3353 25.8091 94.9934 26.3387 91.7559 27.3222C89.2228 28.0891 86.6949 28.8874 84.3183 30.0875C83.8435 30.3275 83.3713 30.5675 83.2748 31.1701C83.2383 31.431 83.1209 31.7545 83.387 31.9528C83.6531 32.151 83.8513 31.9084 84.0653 31.8014C85.0638 31.2524 86.0944 30.7637 87.1514 30.3379C90.5898 29.0909 94.1743 28.53 97.777 28.0213C99.7294 27.761 101.714 27.8967 103.613 28.4205C107.049 29.3101 110.44 30.2857 113.651 31.8119C114.173 32.0728 114.768 32.2032 115.092 32.7563L115.045 33.1554C114.995 33.4163 114.945 33.6772 114.898 33.938C114.789 34.4989 114.776 34.5824 114.75 34.7207C114.724 34.8589 114.692 34.9998 114.651 35.172C114.571 35.1216 114.484 35.072 114.39 35.0233C113.787 34.7143 113.148 34.4803 112.488 34.3268C111.791 34.1389 111.199 34.0241 110.86 33.9641L110.555 33.912C105.583 33.1632 102.76 33.1919 102.76 33.1919C99.2077 33.2444 95.6793 33.7815 92.2725 34.7885C89.9787 35.4727 87.7478 36.3524 85.6044 37.4182C84.1774 38.1225 82.9957 38.8139 82.0643 39.3852L82.5704 34.5589C82.5704 34.512 82.5704 34.465 82.5704 34.4207C82.6252 33.6615 82.6017 33.6041 81.8295 33.445C81.0078 33.278 80.2643 32.9232 79.4816 32.6337C78.5268 32.2919 77.5929 31.8901 76.6511 31.5171C76.4867 30.9745 76.8859 30.5362 76.912 30.0301C76.9563 29.3961 76.7007 29.177 76.1006 29.3883C75.6994 29.5394 75.3561 29.8133 75.1197 30.171C74.9319 30.4318 74.8067 30.7762 74.431 30.8519L74.191 30.7918L71.3605 29.9701C71.2132 29.9283 71.0686 29.8778 70.9274 29.8188C70.8833 29.8045 70.8446 29.7771 70.8165 29.7403C70.7885 29.7034 70.7723 29.6588 70.7704 29.6125C70.7684 29.5662 70.7806 29.5204 70.8054 29.4813C70.8302 29.4421 70.8664 29.4115 70.9092 29.3935C71.4022 29.0831 71.8979 28.77 72.4092 28.4883C73.0823 28.1178 73.7736 27.7813 74.4493 27.4161C76.7972 26.1456 79.0564 24.7003 81.3443 23.3177C85.3444 20.9002 89.3367 18.4653 93.3212 16.0131C93.4701 15.9109 93.6408 15.8449 93.8198 15.8205C93.9987 15.796 94.1808 15.8137 94.3517 15.8722C98.6457 17.0879 102.94 18.3045 107.234 19.5219C109.243 20.088 111.267 20.615 113.273 21.1915C114.129 21.4367 114.961 21.7576 115.801 22.0576C118.376 22.9759 120.969 23.8368 123.596 24.5908C124.243 24.776 124.88 25.003 125.516 25.2091C125.524 25.2699 125.518 25.3317 125.497 25.3894C125.476 25.4471 125.441 25.4989 125.396 25.5404Z" fill="black"/>
<path d="M145.721 124.593C113.304 124.841 80.8643 124.072 48.5284 124.317C48.6901 123.659 48.8727 123.013 49.0501 122.352C50.4419 117.724 52.4142 113.29 54.9199 109.157C57.0427 105.546 59.525 102.158 62.3288 99.0456C64.0666 97.1289 65.9648 95.3642 68.003 93.7707C68.1699 93.6402 68.3343 93.5098 68.4856 93.382C68.4595 93.1785 68.3108 93.108 68.1882 93.0193C64.155 90.1653 61.7784 86.2182 60.5757 81.4937C60.008 79.2229 59.7448 76.8867 59.7931 74.5465C59.8513 68.711 61.2226 62.9635 63.8054 57.7303C65.0389 55.1743 66.6963 52.8457 68.7073 50.8431C69.6047 49.9587 70.4239 48.9935 71.3161 48.0987C72.1527 47.2586 73.0127 46.4438 73.8962 45.6542C74.7797 44.8647 75.6867 44.0977 76.6172 43.3533C77.5476 42.6089 78.4972 41.8932 79.466 41.2063C79.8703 40.9193 80.2747 40.6376 80.6843 40.3584C80.9869 40.1523 81.3051 39.9462 81.6025 39.7245C81.7565 39.6097 81.9078 39.4897 82.0513 39.3619C82.1992 39.2521 82.3573 39.1569 82.5234 39.0775C82.74 38.9471 82.9565 38.8166 83.1756 38.694C83.6661 38.407 84.1644 38.1331 84.6679 37.867C84.9757 37.7079 85.2835 37.5488 85.594 37.3948C87.7373 36.3291 89.9682 35.4493 92.262 34.7652C95.6689 33.7582 99.1972 33.2211 102.749 33.1686C102.749 33.1686 105.572 33.1399 110.544 33.8886L110.85 33.9408C111.189 34.0008 111.781 34.1156 112.478 34.3034C113.138 34.457 113.776 34.6909 114.379 35C114.471 35.0487 114.558 35.0982 114.64 35.1487C114.886 35.2932 115.121 35.4545 115.345 35.6313C116.161 36.6122 116.445 37.7992 116.419 39.1036C116.419 39.3645 116.419 39.6488 116.419 39.928C116.702 39.9368 116.984 39.8935 117.252 39.8001C118.463 39.5314 119.729 39.6727 120.852 40.2019C122.894 41.1724 123.609 43.3063 122.965 45.2394C122.868 45.529 122.735 45.8056 122.615 46.0925C122.701 46.2934 122.897 46.3064 123.074 46.3534C123.581 46.4907 124.051 46.7354 124.454 47.0708C124.761 47.3058 125.017 47.5994 125.209 47.9344C125.4 48.2694 125.524 48.6391 125.571 49.0222C125.592 49.2048 125.6 49.3874 125.613 49.5648C125.861 49.7553 126.153 49.7083 126.414 49.7813C128.172 50.2692 128.986 51.8527 128.879 53.4336C128.806 54.2628 128.612 55.0767 128.302 55.8494C127.972 56.6774 127.736 57.5404 127.601 58.4216C127.423 59.7886 127.71 60.9626 128.738 61.9513C131.843 64.9384 133.434 68.6637 133.984 72.8795C134.355 75.4435 134.289 78.0518 133.789 80.5937C132.869 85.229 130.328 89.3852 126.622 92.3176C125.73 93.017 124.796 93.6617 123.826 94.2481C123.789 94.462 123.941 94.5298 124.058 94.6133C130.115 98.8943 134.939 104.308 139.004 110.446C141.547 114.284 143.673 118.33 145.142 122.707C145.356 123.326 145.541 123.96 145.721 124.593Z" fill="#252468"/>
<path d="M115.097 32.7512L112.749 31.6686C111.616 31.1154 110.437 30.664 109.224 30.3199C109.136 30.3 109.049 30.2747 108.964 30.2442C107.137 29.4929 105.204 29.0989 103.297 28.6189C103.06 28.5589 102.82 28.4963 102.588 28.4207C101.323 28.0213 99.9809 27.9318 98.6745 28.1598C97.2162 28.3867 95.7553 28.5798 94.2943 28.7885C93.1056 28.9509 91.9291 29.1923 90.7725 29.5111C89.562 29.8529 88.3254 30.1112 87.1515 30.5807C86.1487 30.9733 85.1764 31.4398 84.2427 31.9764C83.9211 32.1552 83.5882 32.313 83.2461 32.4486C83.2182 32.4627 83.1871 32.4692 83.1559 32.4676C83.1247 32.466 83.0944 32.4563 83.0681 32.4395C83.0418 32.4226 83.0203 32.3992 83.0058 32.3715C82.9913 32.3439 82.9842 32.3129 82.9853 32.2817C82.9618 31.9133 82.9618 31.5439 82.9853 31.1755C83.0017 30.917 83.0921 30.6687 83.2456 30.4601C83.3992 30.2515 83.6094 30.0915 83.8514 29.999C86.6315 28.6811 89.5274 27.6227 92.5021 26.8371C95.4719 26.017 98.5586 25.7021 101.633 25.9058C103.416 26.0117 105.174 26.3791 106.85 26.9963C107.223 27.1345 107.61 27.2415 107.996 27.3484C109.595 27.7972 111.189 28.2694 112.678 29.0181C113.642 29.482 114.574 30.0101 115.467 30.599C115.349 31.3225 115.225 32.0399 115.097 32.7512Z" fill="#FDC33D"/>
<path d="M74.4597 30.8259C74.6585 30.3767 74.9409 29.9695 75.2919 29.6259C75.4542 29.4392 75.6546 29.2893 75.8796 29.1863C76.1045 29.0832 76.3489 29.0294 76.5963 29.0285C76.6736 29.015 76.753 29.0192 76.8285 29.0407C76.904 29.0621 76.9737 29.1004 77.0324 29.1525C77.0911 29.2047 77.1372 29.2694 77.1674 29.3419C77.1976 29.4144 77.2111 29.4927 77.2067 29.5711C77.2168 30.0015 77.1387 30.4295 76.9772 30.8285C76.8887 31.0557 76.7876 31.2778 76.6746 31.4938C76.4619 31.7205 76.1912 31.8847 75.8919 31.9686C75.5293 32.0442 75.4223 32.2842 75.3493 32.6182C75.0589 33.8776 74.5079 35.0622 73.7318 36.0957C73.3014 36.6928 72.9152 37.3206 72.5762 37.974C72.1963 38.6414 71.7468 39.2666 71.2352 39.8393C71.0396 40.0793 70.8804 40.1002 70.583 39.9515C70.1969 39.7688 69.8969 39.4297 69.4769 39.3019C69.4274 39.2862 69.3726 39.1323 69.396 39.0671C69.4664 38.867 69.5537 38.6732 69.6569 38.4879C70.6404 36.7114 71.8666 35.0965 73.0692 33.4712C73.2473 33.2211 73.4519 32.9911 73.6797 32.7851C73.9431 32.573 74.1501 32.2992 74.2826 31.9879C74.415 31.6767 74.4686 31.3376 74.4388 31.0007C74.4399 30.9419 74.4469 30.8833 74.4597 30.8259Z" fill="#FDC33E"/>
<path d="M115.054 33.1612L115.021 33.1504L115.054 33.1531V33.1612Z" fill="#FDC33D"/>
<path d="M131.318 76.6546C131.294 80.3774 130.068 83.9927 127.822 86.9619C126.323 88.9643 124.419 90.6291 122.234 91.8482C120.004 93.0941 117.605 94.0114 115.112 94.5717C112.265 95.2238 109.385 95.728 106.485 96.0822C103.237 96.4928 99.9654 96.6836 96.6918 96.6536C95.823 96.6692 94.9282 96.6536 94.0204 96.6301C92.2568 96.5727 90.4359 96.4292 88.6176 96.2153C84.0287 95.67 79.4868 94.83 75.1223 93.2961C73.7202 92.8359 72.3695 92.2318 71.0918 91.4934C67.2621 89.1768 64.7863 85.7984 63.568 81.5043C62.7571 78.5617 62.4867 75.4963 62.7698 72.4571C63.0855 68.6217 63.9718 64.8549 65.3994 61.2811C66.1617 59.3317 67.1493 57.4782 68.3421 55.7583C69.0015 54.8306 69.7352 53.9581 70.5361 53.1495C71.7205 51.9416 72.8475 50.6763 74.0606 49.4972C78.412 45.2605 83.2618 41.7256 88.7611 39.0986C92.237 37.4412 95.9711 36.3912 99.8014 35.9941C102.003 35.7386 104.22 35.647 106.436 35.7202C108.063 35.788 109.691 35.8924 111.262 36.3985C111.733 36.5415 112.182 36.7477 112.598 37.0115L112.626 37.0324C112.886 37.1887 113.103 37.4081 113.256 37.6703C113.408 37.9325 113.493 38.2291 113.5 38.5325C113.545 39.8916 113.649 40.0977 112.373 40.9012C110.427 42.1352 108.46 43.3352 106.493 44.5535C105.719 44.9969 104.974 45.4911 104.265 46.0327C103.922 46.2932 103.606 46.5868 103.321 46.9093C103.171 47.0867 103.067 47.2973 103.016 47.5234C102.965 47.7496 102.969 47.9846 103.027 48.209C103.086 48.4333 103.197 48.6403 103.352 48.8127C103.507 48.9851 103.701 49.1178 103.918 49.1998C104.056 49.2701 104.207 49.3095 104.362 49.3154C104.516 49.3213 104.67 49.2934 104.813 49.2337C105.092 49.1059 105.363 48.9728 105.632 48.8163C108.533 47.204 111.424 45.5683 114.392 44.0813C115.217 43.6691 116.072 43.3222 116.918 42.957C117.375 42.774 117.854 42.6487 118.342 42.5839C118.741 42.5303 119.147 42.5909 119.513 42.7587C120.32 43.1004 120.557 43.9144 120.116 44.6735C119.889 45.0416 119.593 45.3623 119.245 45.6179C118.809 45.9571 118.355 46.2779 117.899 46.591C115.608 48.1563 113.258 49.6067 110.855 51.005C110.558 51.1679 110.274 51.3528 110.004 51.5581C109.722 51.779 109.536 52.0998 109.484 52.4541C109.431 52.8085 109.517 53.1694 109.723 53.4625C109.807 53.6202 109.922 53.7589 110.062 53.8702C110.201 53.9814 110.362 54.0628 110.535 54.1092C110.707 54.1557 110.887 54.1663 111.064 54.1403C111.241 54.1143 111.41 54.0523 111.562 53.9582C112.24 53.5982 112.892 53.1912 113.555 52.7999C115.061 51.9052 116.614 51.091 118.206 50.3607C119.211 49.8878 120.259 49.5147 121.337 49.2467C121.667 49.1707 122.007 49.1461 122.344 49.1737C122.605 49.1919 122.696 49.3902 122.605 49.638C122.502 49.9635 122.277 50.237 121.979 50.4024C120.043 51.4459 118.381 52.8703 116.745 54.3156C116.581 54.4529 116.429 54.6048 116.292 54.7695C116.096 55.0491 116.003 55.3881 116.03 55.7284C116.057 56.0687 116.201 56.3891 116.438 56.6348C116.64 56.8937 116.934 57.0642 117.259 57.1104C117.584 57.1566 117.914 57.075 118.18 56.8826C120.035 55.6174 121.955 54.4434 123.659 52.9564C124.23 52.4555 124.88 52.4347 125.563 52.5181C125.67 52.5376 125.769 52.5901 125.844 52.6682C125.92 52.7463 125.97 52.8462 125.986 52.9538C126.043 53.195 126.03 53.4474 125.949 53.6817C125.754 54.2947 125.571 54.9156 125.36 55.5235C124.846 56.9127 124.627 58.3938 124.718 59.8723C124.8 61.1732 125.307 62.411 126.163 63.3942C126.385 63.655 126.607 63.9159 126.844 64.1455C128.952 66.2586 130.183 68.8413 130.815 71.711C131.17 73.3343 131.339 74.9929 131.318 76.6546Z" fill="white"/>
<path d="M101.779 124.497L95.1735 124.445L90.8168 124.408C91.2446 122.338 91.7828 120.291 92.4291 118.278C92.4865 118.105 92.5595 117.936 92.6195 117.782C92.8804 117.644 93.05 117.834 93.2326 117.905C93.7543 118.103 94.2604 118.317 94.7561 118.559C95.4913 118.892 96.3119 118.988 97.104 118.833C97.3492 118.8 97.5918 118.759 97.8319 118.708C98.5545 118.562 99.2641 118.364 99.9711 118.158C100.339 118.051 100.415 118.077 100.493 118.419C100.754 119.493 101.015 120.568 101.252 121.651C101.437 122.59 101.615 123.542 101.779 124.497Z" fill="white"/>
<path d="M85.0201 114.2C85.046 114.127 85.0445 114.048 85.0156 113.976C84.9868 113.904 84.9327 113.846 84.8635 113.811L84.6261 113.668C82.5004 112.42 80.542 110.907 78.7981 109.165C78.6923 109.055 78.5655 108.968 78.4253 108.908C78.285 108.847 78.1341 108.816 77.9816 108.816C76.9376 108.75 75.9018 108.589 74.8875 108.333C70.8242 107.39 67.0463 105.486 63.8707 102.781C63.688 102.627 63.5419 102.411 63.2785 102.372C59.7983 106.173 55.1912 114.077 54.2103 117.07C54.406 117.145 54.6043 117.226 54.8077 117.297C56.0931 117.725 57.3991 118.088 58.7209 118.385C60.8445 118.906 62.9576 119.428 64.9324 120.404C64.9794 120.427 65.0498 120.404 65.1437 120.404C65.3264 119.827 65.5011 119.243 65.6942 118.664C66.6099 115.914 67.883 113.321 69.2369 110.767C69.3199 110.602 69.4234 110.449 69.5448 110.31C69.6861 110.145 69.8713 110.023 70.079 109.958C70.2867 109.894 70.5085 109.889 70.7187 109.945C71.5692 110.156 72.2501 110.931 71.8509 111.99C71.7298 112.273 71.5922 112.548 71.4387 112.815C70.0305 115.482 68.8809 118.277 68.0056 121.163C67.7004 122.206 67.4108 123.25 67.1186 124.28C72.0161 124.291 76.9128 124.313 81.8087 124.348C82.6956 121.231 83.6974 118.15 84.7357 115.079C84.8296 114.787 84.9314 114.495 85.0201 114.2Z" fill="black"/>
<path d="M123.45 117.286C122.472 115.066 121.546 112.817 120.293 110.728C120.262 110.676 120.226 110.626 120.2 110.571C120.057 110.247 120.038 109.883 120.146 109.546C120.253 109.209 120.48 108.923 120.783 108.741C121.087 108.559 121.446 108.494 121.794 108.558C122.142 108.623 122.454 108.811 122.673 109.089C122.884 109.391 123.076 109.707 123.247 110.034C124.197 111.791 125.058 113.595 125.827 115.439C126.479 116.934 127.131 118.424 127.88 119.874C128.096 120.297 128.104 120.299 128.506 120.172C131.814 119.115 135.13 118.085 138.385 116.885C138.667 116.78 138.993 116.744 139.236 116.444C139.056 116.115 138.868 115.765 138.675 115.421C137.472 113.31 136.145 111.271 134.702 109.316C132.725 106.604 130.522 104.064 128.117 101.722C127.875 101.437 127.58 101.201 127.248 101.028C126.821 101.464 126.432 101.902 125.996 102.294C122.866 105.111 119.286 107.042 115.084 107.699C114.778 107.742 114.499 107.897 114.301 108.135C113.847 108.636 113.383 109.129 112.903 109.606C111.51 111 110.028 112.303 108.468 113.506C108.139 113.767 108.001 113.817 108.207 114.338C108.669 115.444 109.086 116.569 109.511 117.691C110.367 119.968 111.218 122.251 111.945 124.573C116.859 124.604 121.772 124.626 126.685 124.638C126.133 123.065 125.473 121.532 124.71 120.049C124.259 119.149 123.857 118.215 123.45 117.286Z" fill="black"/>
<path d="M118.465 96.7681C118.48 97.0916 118.277 97.3368 118.144 97.6056C117.021 99.8665 115.65 101.995 114.056 103.953C111.89 106.676 109.404 109.129 106.652 111.257C104.545 112.913 102.193 114.229 99.6788 115.157C99.311 115.288 98.9562 115.489 98.5649 115.473C98.4057 115.327 98.544 115.238 98.5857 115.142C98.6275 115.045 98.6953 114.92 98.7397 114.805C98.9509 114.288 98.9509 113.708 98.7397 113.19C98.5791 112.803 98.2996 112.476 97.9413 112.258C97.5831 112.039 97.1647 111.94 96.7465 111.975C96.0072 112.015 95.2858 112.217 94.6334 112.567C94.4765 112.636 94.3446 112.752 94.2555 112.898C94.1663 113.045 94.1243 113.215 94.1352 113.386C94.156 113.843 94.0595 114.304 94.216 114.756C94.248 114.814 94.2597 114.881 94.2493 114.947C94.2389 115.012 94.207 115.073 94.1586 115.118C94.0496 115.098 93.9424 115.069 93.8377 115.032C91.3755 113.992 88.9735 112.814 86.6427 111.505C82.8227 109.345 79.5825 106.292 77.1989 102.607C75.8084 100.462 74.5484 98.2447 73.2518 96.0481C73.2178 95.9707 73.1941 95.8891 73.1814 95.8055C73.3614 95.6698 73.4892 95.8185 73.6145 95.8655C75.7138 96.655 77.8729 97.2753 80.0712 97.7203C80.2665 97.7438 80.4532 97.8142 80.6154 97.9255C80.7776 98.0368 80.9104 98.1857 81.0025 98.3595C81.7066 99.5911 82.6224 100.689 83.7078 101.602C85.597 103.283 87.6985 104.708 89.9585 105.841C90.7025 106.209 91.4724 106.521 92.262 106.775C92.5647 106.875 92.5986 106.937 92.5099 107.242C92.2442 108.126 92.0796 109.037 92.0194 109.958C92.0194 110.081 92.0038 110.206 91.9933 110.326C91.9625 110.542 92.0086 110.763 92.1235 110.949C92.2384 111.134 92.4148 111.274 92.6221 111.343C93.2211 111.588 93.8589 111.724 94.5056 111.745C95.4656 111.784 96.4048 111.596 97.357 111.526C97.7848 111.492 98.2127 111.437 98.6405 111.398C99.3214 111.338 99.5614 111.156 99.684 110.464C99.9138 109.473 99.9773 108.45 99.8719 107.438C99.8093 107 99.8197 106.989 100.232 106.835C103.54 105.607 106.216 103.478 108.619 100.96C109.196 100.361 109.689 99.687 110.088 98.9569C110.175 98.7803 110.304 98.628 110.464 98.5138C110.625 98.3995 110.811 98.3268 111.006 98.3021C112.311 98.0647 113.602 97.8116 114.893 97.5325C115.913 97.3108 116.923 97.0342 117.94 96.7994C118.099 96.7681 118.272 96.6194 118.465 96.7681Z" fill="#36C6F4"/>
<path d="M106.79 114.886C106.618 114.875 106.449 114.932 106.318 115.045C105.423 115.644 104.491 116.185 103.527 116.665C103.099 116.874 103.107 117.015 103.206 117.38C103.689 119.162 104.082 120.962 104.427 122.775C104.536 123.357 104.636 123.939 104.732 124.52L110.323 124.562C109.556 122.191 108.695 119.853 107.805 117.518C107.466 116.634 107.122 115.75 106.79 114.886Z" fill="#36C6F4"/>
<path d="M89.862 116.811C89.969 116.49 89.9612 116.477 89.6533 116.323C88.6333 115.817 87.6133 115.316 86.5697 114.802C86.4173 114.939 86.3146 115.123 86.2776 115.324C85.3671 117.967 84.5036 120.625 83.7079 123.305C83.6036 123.654 83.4992 124.006 83.3975 124.348L87.8715 124.395C88.002 123.73 88.1324 123.067 88.2915 122.404C88.7116 120.508 89.2542 118.656 89.862 116.811Z" fill="#36C6F4"/>
<path d="M107.664 98.85C107.672 98.9353 107.658 99.0211 107.624 99.0998C107.591 99.1785 107.538 99.2477 107.471 99.3013C106.301 100.65 104.976 101.855 103.524 102.894C102.574 103.569 101.564 104.159 100.508 104.655C100.424 104.694 100.336 104.728 100.248 104.756C99.898 104.874 99.5406 105.101 99.2041 105.072C98.8675 105.043 98.7293 104.55 98.4893 104.289C98.1945 103.961 97.9049 103.624 97.6205 103.285L97.2892 102.894C96.8666 102.395 96.4779 102.317 95.9222 102.664C95.81 102.734 95.7005 102.808 95.5935 102.886C95.0177 103.282 94.5012 103.758 94.0595 104.3C93.9186 104.465 93.7887 104.639 93.6708 104.822C93.5065 105.082 93.316 105.082 93.0421 104.994C92.0154 104.673 91.0249 104.246 90.0864 103.721C88.1846 102.711 86.4154 101.469 84.8192 100.024C84.4384 99.6692 84.0888 99.2778 83.7314 98.897C83.6612 98.8465 83.6088 98.7752 83.5816 98.6932C83.5545 98.6112 83.5539 98.5228 83.5801 98.4404C85.568 98.717 87.5611 99.0483 89.5803 99.2231C89.9559 99.2544 90.3316 99.2883 90.7073 99.317C92.3534 99.4474 93.9995 99.5492 95.6639 99.5648C97.6623 99.5831 99.658 99.5648 101.664 99.437C103.67 99.3091 105.661 99.09 107.664 98.85Z" fill="white"/>
<path d="M142.713 124.614C141.993 122.266 141.041 119.918 140.493 119.177C137.405 120.383 134.232 121.385 131.083 122.397C130.588 122.556 130.087 122.705 129.589 122.866C129.307 122.96 129.27 123.052 129.354 123.349C129.361 123.379 129.37 123.409 129.38 123.438C129.523 123.837 129.656 124.241 129.787 124.643C134.097 124.652 138.405 124.642 142.713 124.614Z" fill="#36C6F4"/>
<path d="M64.0194 123.219C63.8863 123.14 63.7585 123.072 63.6124 123.002C62.3509 122.361 61.017 121.873 59.6392 121.549C57.5522 121.027 55.4495 120.584 53.4173 119.861C53.0599 119.736 53.0025 119.759 52.8773 120.101C52.3738 121.481 51.9199 122.877 51.5442 124.299C55.7391 124.276 59.9366 124.267 64.1368 124.273L64.2698 123.816C64.3638 123.482 64.3246 123.401 64.0194 123.219Z" fill="#36C6F4"/>
<path d="M69.7926 96.0691C70.21 96.6091 73.7789 102.568 74.0789 103.209C71.9918 103.155 68.6239 100.921 67.0038 98.5135C67.4891 97.8874 68.4517 97.037 69.7926 96.0691Z" fill="#FDC33B"/>
<path d="M64.6533 100.707L66.0595 99.3403C66.1873 99.476 66.2995 99.5777 66.3934 99.6977C68.363 102.218 70.9744 103.72 74.0267 104.529C74.4363 104.636 74.9137 104.613 75.2372 104.894C75.512 105.183 75.7543 105.5 75.9598 105.841L76.4815 106.556C76.1722 106.631 75.8479 106.614 75.5476 106.509C71.6976 105.642 68.1163 103.851 65.1125 101.292C64.902 101.15 64.7415 100.945 64.6533 100.707Z" fill="#FDC33B"/>
<path d="M97.9283 109.473C97.0607 109.676 96.1739 109.786 95.283 109.802C93.7856 109.82 93.9056 109.864 94.1508 108.56C94.3538 107.374 94.8904 106.27 95.6978 105.377C95.8401 105.219 95.9927 105.07 96.1543 104.931C96.1751 104.909 96.2001 104.891 96.228 104.879C96.2558 104.867 96.2858 104.861 96.3161 104.861C96.3464 104.861 96.3764 104.867 96.4042 104.879C96.432 104.891 96.4571 104.909 96.4778 104.931C97.3179 105.816 97.9831 106.791 98.004 108.062C97.9988 108.513 97.9518 108.967 97.9283 109.473Z" fill="#FEFEFE"/>
<path d="M124.601 98.6465C125.029 98.9531 125.434 99.2914 125.811 99.6587C123.917 102.067 118.861 105.195 116.785 105.228L117.972 103.564C118.107 103.4 118.289 103.28 118.493 103.222C119.122 102.982 119.746 102.727 120.367 102.461C121.189 102.112 121.924 101.585 122.516 100.916C123.038 100.319 123.56 99.7135 124.081 99.1161C124.23 98.9517 124.308 98.7352 124.601 98.6465Z" fill="#FDC33D"/>
<path d="M119.177 101.902L121.859 96.6091C122.507 97.0247 123.127 97.4823 123.716 97.9787C123.182 98.7285 122.597 99.4398 121.963 100.108C121.218 100.952 120.254 101.573 119.177 101.902Z" fill="#FDC33B"/>
<path d="M96.6996 113.96C96.7544 113.976 96.8118 113.991 96.8666 114.012C96.9214 114.033 96.9422 114.083 96.8874 114.148C96.8692 114.171 96.8587 114.203 96.8353 114.218C96.5535 114.411 96.2561 114.44 96.1074 114.283C96.0918 114.268 96.1074 114.231 96.1074 114.205C96.1231 114.015 96.3005 113.942 96.6996 113.96Z" fill="#C3DBDB"/>
<path d="M69.8369 68.3065C69.3465 69.7961 67.9299 74.2284 69.2108 79.4512C70.6665 85.3862 74.7441 88.8611 76.3485 90.189C82.7035 95.4535 90.4124 96.1892 94.0204 96.6483C92.2568 96.5909 90.4359 96.4475 88.6176 96.2335C84.0287 95.6883 79.4868 94.8483 75.1223 93.3143C73.7202 92.8542 72.3695 92.2501 71.0918 91.5116C67.2621 89.1768 64.7863 85.7984 63.568 81.5043C62.7571 78.5617 62.4867 75.4963 62.7698 72.4571C63.0855 68.6217 63.9718 64.8549 65.3994 61.2811C66.1617 59.3317 67.1493 57.4782 68.3421 55.7583C69.0015 54.8306 69.7352 53.9581 70.5361 53.1495C71.7205 51.9416 72.8475 50.6763 74.0606 49.4972C78.412 45.2605 83.2618 41.7256 88.7611 39.0986C92.237 37.4412 95.9711 36.3912 99.8014 35.9941C102.003 35.7386 104.22 35.647 106.436 35.7202C108.063 35.788 109.691 35.8924 111.262 36.3985C111.733 36.5415 112.182 36.7477 112.598 37.0115L112.626 37.0324C108.575 37.5385 104.09 39.2081 98.2623 41.376C98.2623 41.376 84.874 46.4032 73.3432 61.7872C71.8158 63.7475 70.6305 65.9516 69.8369 68.3065Z" fill="#A7A6CD"/>
<path d="M97.4588 94.3498C95.1813 94.4046 92.9039 94.3811 90.629 94.2403C90.1072 94.209 89.5855 94.222 89.0637 94.2194C85.6175 94.2194 82.2626 93.6715 79.0643 92.3515C75.5163 90.8854 72.5032 88.6992 70.3483 85.4878C68.6816 83.0776 67.5412 80.3434 67.0012 77.4632C65.6108 69.6029 69.4248 61.8287 76.3015 58.3251C78.6113 57.1456 81.1641 56.5204 83.7575 56.499C85.3227 56.4781 86.888 56.3764 88.4533 56.2746C90.9999 56.0847 93.5547 56.0263 96.1074 56.0998C98.5049 56.1911 100.905 56.2798 103.3 56.3972C105.88 56.5251 108.46 56.6712 111.035 56.919C112.446 57.0292 113.822 57.4156 115.084 58.0564C119.691 60.4435 122.746 64.1323 124.371 69.029C125.078 71.1952 125.473 73.4509 125.545 75.7283C125.63 77.1719 125.559 78.6204 125.331 80.0485C124.805 83.038 123.401 85.8034 121.298 87.9922C118.765 90.6427 115.652 92.3072 112.133 93.2672C110.175 93.7873 108.159 94.0633 106.133 94.0889C103.949 94.1333 101.768 94.2663 99.5849 94.3498C98.8727 94.3707 98.1658 94.3498 97.4588 94.3498Z" fill="#252468"/>
<path d="M123.059 77.3355C123.064 80.6992 121.744 83.9296 119.386 86.328C117.173 88.6367 114.442 90.0455 111.387 90.8699C109.539 91.3445 107.64 91.5933 105.731 91.6107C103.905 91.6499 102.102 91.7386 100.289 91.8038C99.1519 91.8429 98.0144 91.8768 96.5718 91.9212C93.5821 91.8299 90.2872 91.8012 87.0028 91.6107C83.3244 91.3968 79.8703 90.369 76.7659 88.3106C74.349 86.7438 72.4139 84.5377 71.1753 81.9374C70.51 80.5443 69.8865 79.1486 69.5709 77.6303C69.5709 77.6303 69.5709 77.6172 69.5709 77.612C68.0786 70.4587 71.4309 63.7724 77.1781 60.6862C78.8843 59.7536 80.7716 59.2001 82.7113 59.0636C83.4939 59.0088 84.3079 59.0036 85.1062 58.9618C87.2871 58.847 89.4681 58.7009 91.649 58.6096C93.5251 58.5222 95.4047 58.5405 97.2788 58.6644C98.4736 58.7479 99.6788 58.7322 100.876 58.7975L101.445 58.8288C104.264 58.9836 107.083 59.147 109.903 59.3192C110.516 59.3557 111.129 59.4418 111.729 59.5201C112.629 59.6323 113.432 60.0419 114.215 60.4462C117.465 62.1463 120.012 64.9366 121.41 68.3274C122.215 70.2318 122.722 72.2483 122.915 74.3067C123.023 75.3126 123.07 76.3239 123.059 77.3355Z" fill="#252468"/>
<path d="M95.8361 59.2774C91.3308 59.7653 87.822 60.3731 85.388 60.8427C84.1592 61.0879 83.7809 61.1844 83.4157 61.2888C78.8895 62.6167 76.0616 65.6507 75.292 66.5246C70.8857 71.5465 70.5361 78.2641 69.8135 78.1102C69.6726 78.0815 69.61 77.8154 69.5761 77.6041C69.0668 74.2452 69.5491 70.8107 70.964 67.722C71.6188 66.3237 73.3823 62.5436 77.1833 60.6783C79.2886 59.6479 82.1035 59.1626 82.7166 59.0557C83.734 58.8809 84.5062 58.8131 85.3645 58.7374C86.995 58.5965 87.7489 58.62 91.6543 58.6017C94.6517 58.6017 95.5674 58.5704 97.284 58.6565C97.9519 58.6904 100.289 58.8104 100.289 58.9513C100.287 59.04 99.5276 59.1522 95.8361 59.2774Z" fill="#A6A6CB"/>
<path d="M96.6083 90.7419C101.114 90.2541 104.623 89.6488 107.057 89.1766C108.285 88.934 108.664 88.8375 109.029 88.7305C113.555 87.4027 116.383 84.3686 117.153 83.4947C121.559 78.4728 121.908 71.7552 122.631 71.9091C122.772 71.9378 122.834 72.2039 122.868 72.4152C123.378 75.7741 122.895 79.2087 121.48 82.2973C120.826 83.6982 119.062 87.4783 115.261 89.341C113.156 90.3715 110.341 90.8567 109.728 90.9637C108.71 91.1384 107.938 91.2063 107.08 91.2819C105.45 91.4254 104.696 91.3993 100.79 91.4176C97.7927 91.4176 96.8771 91.4489 95.1605 91.3628C94.4926 91.3289 92.1552 91.2089 92.1552 91.068C92.1578 90.9741 92.9169 90.8619 96.6083 90.7419Z" fill="#A6A6CB"/>
<path d="M92.7526 101.477C93.6114 102.109 94.5749 102.585 95.5988 102.883C95.023 103.279 94.5065 103.755 94.0648 104.297C93.9239 104.462 93.794 104.637 93.6761 104.819C93.5117 105.08 93.3213 105.08 93.0474 104.991C92.0207 104.67 91.0301 104.244 90.0916 103.718C88.1899 102.708 86.4206 101.466 84.8245 100.021C84.4436 99.6665 84.094 99.2752 83.7366 98.8943C83.6665 98.8439 83.6141 98.7726 83.5869 98.6906C83.5597 98.6086 83.5592 98.5201 83.5853 98.4377C85.5732 98.7143 87.5663 99.0456 89.5855 99.2204C89.9612 99.2517 90.3368 99.2856 90.7125 99.3143C91.2564 100.152 91.9476 100.885 92.7526 101.477Z" fill="#A6A6CB"/>
<path d="M103.524 102.894C102.574 103.569 101.564 104.159 100.508 104.654C100.424 104.694 100.336 104.727 100.248 104.756C99.898 104.874 99.5406 105.101 99.204 105.072C98.8675 105.043 98.7292 104.55 98.4892 104.289C98.1944 103.961 97.9048 103.624 97.6205 103.285C99.6684 103.504 101.737 103.235 103.524 102.894Z" fill="#A6A6CB"/>
<path d="M97.8188 118.708C97.0813 119.669 96.4629 120.716 95.977 121.825C95.6147 122.663 95.3453 123.538 95.1735 124.434L90.8168 124.398C91.2446 122.327 91.7828 120.28 92.4291 118.267C92.4865 118.095 92.5595 117.925 92.6195 117.771C92.8804 117.633 93.05 117.823 93.2326 117.894C93.7543 118.092 94.2604 118.306 94.7561 118.549C95.4913 118.882 96.3119 118.977 97.104 118.823C97.3405 118.797 97.5788 118.758 97.8188 118.708Z" fill="#A6A6CB"/>
<path d="M86.828 74.0169C86.6728 73.533 86.4045 73.093 86.0453 72.7334C85.3879 72.1099 84.6314 72.0734 83.9244 72.6395C83.5521 72.9477 83.2512 73.3331 83.0426 73.7691C82.8603 74.1333 82.716 74.5153 82.6122 74.9091H87.0889C87.0259 74.6052 86.9387 74.3069 86.828 74.0169Z" fill="#36C6F4"/>
<path d="M87.1593 77.6458C87.2868 76.8485 87.2797 76.0354 87.1384 75.2405H82.6748C82.5168 75.8503 82.4404 76.4784 82.4478 77.1084C82.4371 77.5317 82.4712 77.9549 82.5495 78.371H87.0053C87.0726 78.1329 87.124 77.8907 87.1593 77.6458Z" fill="#36C6F4"/>
<path d="M82.5496 78.7153C82.6089 79.0235 82.6963 79.3257 82.8105 79.618C82.9735 80.1002 83.2479 80.5373 83.6114 80.8937C83.8723 81.1581 84.2212 81.3176 84.5918 81.3421C84.9625 81.3667 85.3293 81.2544 85.6228 81.0267C85.9708 80.7696 86.2591 80.4404 86.468 80.0615C86.7131 79.6405 86.8984 79.1874 87.0185 78.7153H82.5496Z" fill="#36C6F4"/>
<path d="M107.698 74.0169C107.543 73.533 107.275 73.093 106.916 72.7334C106.258 72.1099 105.502 72.0734 104.795 72.6395C104.422 72.947 104.121 73.3326 103.913 73.7691C103.73 74.1332 103.585 74.5152 103.48 74.9091H107.946C107.887 74.6056 107.805 74.3073 107.698 74.0169Z" fill="#36C6F4"/>
<path d="M108.014 77.6458C108.141 76.8485 108.134 76.0354 107.993 75.2405H103.524C103.366 75.8503 103.29 76.4784 103.297 77.1084C103.287 77.5317 103.321 77.9549 103.399 78.371H107.855C107.923 78.1327 107.976 77.8905 108.014 77.6458Z" fill="#36C6F4"/>
<path d="M103.404 78.7153C103.459 79.0231 103.542 79.3252 103.652 79.618C103.814 80.1001 104.088 80.5372 104.45 80.8937C104.712 81.1577 105.061 81.317 105.432 81.3415C105.803 81.366 106.17 81.2541 106.464 81.0267C106.812 80.7696 107.101 80.4404 107.31 80.0615C107.554 79.64 107.739 79.1871 107.86 78.7153H103.404Z" fill="#36C6F4"/>
<path d="M88.2185 68.0636C86.9685 68.8748 85.5594 69.4093 84.0858 69.6311C82.6122 69.853 81.1082 69.757 79.6747 69.3497C78.866 69.1227 78.5216 70.3802 79.3278 70.6097C80.9289 71.0635 82.6083 71.1716 84.2544 70.9269C85.9006 70.6823 87.4759 70.0904 88.8759 69.1906C89.5777 68.7366 88.9255 67.6044 88.2185 68.0636Z" fill="#36C6F4"/>
<path d="M111.09 70.1325C109.73 69.1738 108.181 68.5151 106.547 68.2003C104.913 67.8855 103.231 67.9216 101.612 68.3063C100.795 68.4968 101.14 69.7568 101.959 69.5638C103.411 69.2293 104.917 69.2075 106.378 69.4998C107.839 69.7922 109.221 70.392 110.432 71.2595C110.582 71.3446 110.759 71.3677 110.926 71.3239C111.093 71.28 111.236 71.1726 111.324 71.0247C111.408 70.8743 111.43 70.6977 111.386 70.5315C111.342 70.3654 111.236 70.2224 111.09 70.1325Z" fill="#36C6F4"/>
<path d="M111.643 60.8715V66.8091C111.643 67.6491 112.947 67.6491 112.947 66.8091V60.8715C112.947 60.0314 111.643 60.0314 111.643 60.8715Z" fill="#4DCDFF"/>
<path d="M114.559 62.3895V70.1533C114.559 70.9933 115.864 70.9933 115.864 70.1533V62.3895C115.864 61.5495 114.559 61.5495 114.559 62.3895Z" fill="#4DCDFF"/>
<path d="M117.473 64.3932V68.1759C117.473 68.3489 117.542 68.5148 117.664 68.6371C117.787 68.7594 117.953 68.8281 118.126 68.8281C118.299 68.8281 118.464 68.7594 118.587 68.6371C118.709 68.5148 118.778 68.3489 118.778 68.1759V64.3932C118.778 64.2202 118.709 64.0543 118.587 63.932C118.464 63.8097 118.299 63.741 118.126 63.741C117.953 63.741 117.787 63.8097 117.664 63.932C117.542 64.0543 117.473 64.2202 117.473 64.3932Z" fill="#4DCDFF"/>
<path d="M90.509 86.1844C90.4255 85.8426 92.0195 85.013 93.7022 84.6817C94.55 84.5147 96.457 84.2721 98.3275 85.1852C98.9171 85.4722 99.8198 85.9287 100.028 86.8183C100.114 87.1342 100.09 87.4698 99.9606 87.7705C99.5745 88.5923 98.2519 88.8714 97.271 88.7201C95.7057 88.4801 95.677 87.2487 93.8795 86.56C92.0821 85.8713 90.5899 86.5131 90.509 86.1844Z" fill="#36C6F4"/>
<path d="M133.752 61.3853C133.868 61.0131 134.059 60.6686 134.313 60.3731C134.548 60.1093 134.817 59.8785 135.114 59.687C135.401 59.5038 135.702 59.3425 136.014 59.2044C136.324 59.0687 136.614 58.9435 136.888 58.8104C137.145 58.6914 137.387 58.5416 137.608 58.3643C137.817 58.1909 137.972 57.9609 138.054 57.7017C138.123 57.5031 138.141 57.2905 138.108 57.083C138.075 56.8755 137.991 56.6794 137.864 56.5121C137.55 56.1 137.11 55.8014 136.611 55.6616C136.085 55.4762 135.522 55.4233 134.97 55.5077C134.46 55.5951 133.979 55.8066 133.57 56.1234L131.829 54.1433C132.575 53.5609 133.46 53.1848 134.397 53.0529C136.361 52.8636 138.327 53.4102 139.911 54.5868C140.463 55.0083 140.886 55.5758 141.132 56.2251C141.352 56.8653 141.346 57.5614 141.114 58.1974C140.879 59.0024 140.349 59.689 139.63 60.1201C139.32 60.3065 138.997 60.4713 138.664 60.6131C138.336 60.754 138.02 60.8949 137.725 61.0357C137.443 61.1631 137.18 61.3291 136.943 61.5288C136.715 61.7298 136.547 61.9898 136.457 62.2801L133.752 61.3853ZM133.624 66.3264C133.399 66.2585 133.191 66.1452 133.011 65.9936C132.832 65.8419 132.685 65.6551 132.581 65.4446C132.475 65.2459 132.411 65.0276 132.393 64.8032C132.375 64.5788 132.403 64.3531 132.476 64.1402C132.541 63.9258 132.651 63.7278 132.798 63.5595C132.946 63.3912 133.128 63.2565 133.332 63.1645C133.77 62.985 134.259 62.9681 134.708 63.1168C135.158 63.2656 135.54 63.5703 135.784 63.9758C135.89 64.1718 135.953 64.3877 135.97 64.6097C135.988 64.8317 135.958 65.0548 135.884 65.2646C135.815 65.4771 135.704 65.6737 135.558 65.8427C135.412 66.0116 135.233 66.1495 135.033 66.2481C134.817 66.3591 134.58 66.4234 134.337 66.4369C134.094 66.4504 133.852 66.4127 133.624 66.3264Z" fill="#36C6F4"/>
<path d="M60.534 56.6947C60.3711 56.3416 60.2823 55.959 60.2731 55.5703C60.2671 55.2183 60.3092 54.8672 60.3984 54.5268C60.4833 54.1956 60.595 53.872 60.7323 53.5589C60.8679 53.2511 60.9932 52.9589 61.1079 52.6797C61.2168 52.4179 61.293 52.1436 61.3349 51.8632C61.3721 51.5962 61.3303 51.3242 61.2149 51.0805C61.1308 50.8878 61.0003 50.7187 60.8351 50.5886C60.6699 50.4584 60.475 50.3711 60.2679 50.3344C59.7577 50.2438 59.2317 50.3226 58.7705 50.5588C58.2596 50.7775 57.8113 51.12 57.4661 51.5553C57.1423 51.9595 56.9228 52.437 56.8269 52.9458L54.2181 52.6693C54.3722 51.7366 54.768 50.8605 55.366 50.1283C56.0843 49.2781 56.9946 48.611 58.0217 48.1822C58.7894 47.8167 59.6165 47.5922 60.4636 47.5196C61.1556 47.457 61.8513 47.5889 62.4723 47.9004C63.0672 48.2219 63.534 48.7375 63.795 49.3614C63.9906 49.7704 64.1058 50.2132 64.1341 50.6658C64.1532 51.0443 64.1091 51.4234 64.0037 51.7875C63.9027 52.1351 63.7771 52.4751 63.628 52.805C63.4819 53.1311 63.3463 53.4467 63.2237 53.7493C63.1042 54.0345 63.0244 54.3347 62.9863 54.6415C62.9551 54.9429 63.0074 55.2471 63.1376 55.5207L60.534 56.6947ZM63.7872 60.4174C63.5748 60.5208 63.3437 60.5799 63.1078 60.5912C62.8718 60.6024 62.6361 60.5654 62.4149 60.4826C62.2033 60.4078 62.0092 60.2906 61.8446 60.1381C61.6799 59.9855 61.5482 59.8009 61.4575 59.5956C61.3599 59.3929 61.3067 59.1717 61.3013 58.9468C61.2959 58.7219 61.3385 58.4984 61.4262 58.2912C61.6264 57.8631 61.9731 57.5205 62.4036 57.3254C62.8341 57.1302 63.3201 57.0953 63.7741 57.2268C63.9847 57.2997 64.1777 57.4158 64.3408 57.5677C64.5039 57.7195 64.6334 57.9038 64.7211 58.1086C64.8157 58.312 64.8682 58.5324 64.8754 58.7565C64.8826 58.9807 64.8443 59.204 64.7628 59.413C64.6785 59.6388 64.5483 59.8446 64.3803 60.0175C64.2124 60.1904 64.0104 60.3265 63.7872 60.4174Z" fill="#36C6F4"/>
<path d="M56.347 65.6978C56.2654 65.3889 56.2486 65.0665 56.2974 64.7508C56.3454 64.4651 56.4333 64.1876 56.5583 63.9264C56.6764 63.672 56.8151 63.4277 56.9731 63.1959C57.1296 62.9664 57.2731 62.7498 57.4088 62.5411C57.5357 62.3462 57.639 62.1369 57.7166 61.9176C57.7864 61.7059 57.7937 61.4785 57.7375 61.2628C57.6991 61.0941 57.6194 60.9376 57.5056 60.8074C57.3918 60.6772 57.2473 60.5773 57.0853 60.5167C56.6871 60.3676 56.2513 60.352 55.8435 60.4724C55.3969 60.5721 54.9819 60.7809 54.6356 61.0802C54.3192 61.3653 54.0773 61.7236 53.9313 62.1237L51.8442 61.5054C52.1074 60.7761 52.5571 60.1284 53.1486 59.6271C53.8567 59.0498 54.6918 58.6492 55.5852 58.4584C56.2591 58.2786 56.96 58.222 57.654 58.2914C58.2222 58.3444 58.7643 58.5549 59.2193 58.8993C59.6508 59.2493 59.9499 59.7361 60.0671 60.2793C60.1629 60.6371 60.1895 61.0099 60.1454 61.3776C60.1078 61.6856 60.0197 61.9853 59.8845 62.2646C59.7492 62.5282 59.5967 62.7827 59.428 63.0264C59.261 63.269 59.1019 63.5038 58.9584 63.7281C58.82 63.9405 58.7103 64.1704 58.6323 64.4116C58.5656 64.6514 58.5656 64.9049 58.6323 65.1447L56.347 65.6978ZM58.4105 69.1909C58.2238 69.2432 58.0284 69.2565 57.8363 69.23C57.6442 69.2035 57.4596 69.1378 57.294 69.037C57.1343 68.9454 56.9952 68.8219 56.8853 68.6742C56.7753 68.5266 56.6969 68.3579 56.6548 68.1787C56.6087 68.0026 56.6 67.8187 56.6292 67.639C56.6584 67.4593 56.7249 67.2877 56.8244 67.1352C57.0506 66.8189 57.3826 66.5943 57.7602 66.5019C58.1379 66.4095 58.5361 66.4556 58.8827 66.6317C59.0419 66.7217 59.1803 66.8442 59.2891 66.9911C59.3978 67.1381 59.4745 67.3063 59.5141 67.4848C59.5582 67.6607 59.5667 67.8437 59.5389 68.0229C59.5111 68.2021 59.4477 68.374 59.3523 68.5283C59.25 68.6978 59.1133 68.8441 58.9511 68.9578C58.789 69.0714 58.6048 69.1499 58.4105 69.1883V69.1909Z" fill="#36C6F4"/>
<path d="M130.878 33.6252C131.164 32.6889 131.557 31.9093 132.057 31.2865C132.594 30.644 133.177 30.1083 133.804 29.6794C134.431 29.2505 135.069 28.887 135.719 28.5889C136.405 28.2711 137.04 27.9687 137.624 27.6817C138.217 27.3662 138.724 27.0248 139.147 26.6575C139.597 26.2987 139.905 25.8498 140.07 25.3107C140.33 24.4594 140.178 23.6843 139.616 22.9854C139.083 22.2951 138.262 21.781 137.156 21.4432C136.021 21.0967 134.903 21.0501 133.802 21.3034C132.729 21.5653 131.762 22.0921 130.9 22.8836L125.597 17.5425C127.284 15.9792 129.351 14.9505 131.797 14.4565C134.252 13.9341 137.04 14.1493 140.162 15.1022C142.347 15.7692 144.181 16.6703 145.664 17.8057C147.185 18.9213 148.246 20.2222 148.847 21.7085C149.448 23.1948 149.484 24.8034 148.956 26.5343C148.618 27.641 148.153 28.5538 147.561 29.2727C146.97 29.9916 146.309 30.5809 145.579 31.0406C144.878 31.509 144.147 31.9218 143.386 32.279C142.635 32.6078 141.916 32.9312 141.229 33.249C140.571 33.5754 139.994 33.9421 139.497 34.3489C139.001 34.7557 138.653 35.2854 138.454 35.9381L130.878 33.6252ZM131.236 46.0183C129.845 45.5939 128.83 44.8033 128.191 43.6464C127.551 42.4896 127.418 41.3011 127.79 40.081C128.171 38.8324 128.942 37.9353 130.101 37.3896C131.269 36.8156 132.548 36.7407 133.938 37.1652C135.385 37.607 136.419 38.3877 137.039 39.5075C137.695 40.6076 137.833 41.7819 137.452 43.0304C137.08 44.2506 136.305 45.1619 135.129 45.7643C133.98 46.3755 132.683 46.4601 131.236 46.0183Z" fill="#4DCDFF"/>
</g>
<defs>
<clipPath id="clip0_286_10948">
<rect width="156" height="139.07" fill="white" transform="translate(0.468506 0.5979)"/>
</clipPath>
<clipPath id="clip1_286_10948">
<rect width="47" height="47" fill="white" transform="matrix(0.939697 -0.342007 -0.342007 -0.939697 26.7988 93.8232)"/>
</clipPath>
<clipPath id="clip2_286_10948">
<rect width="39.44" height="39.44" fill="white" transform="translate(15.5814 51.8911) rotate(-19.9992)"/>
</clipPath>
</defs>
</svg>
