<svg width="28" height="27" viewBox="0 0 28 27" fill="none" xmlns="http://www.w3.org/2000/svg">
<rect x="0.5" width="27" height="27" rx="13.5" fill="#EAF8EB"/>
<mask id="mask0_1050_12684" style="mask-type:alpha" maskUnits="userSpaceOnUse" x="4" y="3" width="20" height="21">
<rect x="4" y="3.5" width="20" height="20" fill="#D9D9D9"/>
</mask>
<g mask="url(#mask0_1050_12684)">
<path d="M12.8334 17.3332L18.7084 11.4582L17.5417 10.2915L12.8334 14.9998L10.4584 12.6248L9.29175 13.7915L12.8334 17.3332ZM14.0001 21.8332C12.8473 21.8332 11.764 21.6143 10.7501 21.1765C9.73619 20.7393 8.85425 20.1457 8.10425 19.3957C7.35425 18.6457 6.76064 17.7637 6.32341 16.7498C5.88564 15.7359 5.66675 14.6526 5.66675 13.4998C5.66675 12.3471 5.88564 11.2637 6.32341 10.2498C6.76064 9.23595 7.35425 8.354 8.10425 7.604C8.85425 6.854 9.73619 6.26011 10.7501 5.82234C11.764 5.38511 12.8473 5.1665 14.0001 5.1665C15.1529 5.1665 16.2362 5.38511 17.2501 5.82234C18.264 6.26011 19.1459 6.854 19.8959 7.604C20.6459 8.354 21.2395 9.23595 21.6767 10.2498C22.1145 11.2637 22.3334 12.3471 22.3334 13.4998C22.3334 14.6526 22.1145 15.7359 21.6767 16.7498C21.2395 17.7637 20.6459 18.6457 19.8959 19.3957C19.1459 20.1457 18.264 20.7393 17.2501 21.1765C16.2362 21.6143 15.1529 21.8332 14.0001 21.8332Z" fill="#00DF80"/>
</g>
</svg>
