<?xml version="1.0" encoding="UTF-8"?>
<svg version="1.1" xmlns="http://www.w3.org/2000/svg" width="1024" height="1024">
<path d="M0 0 C0.96357422 0.09152344 1.92714844 0.18304688 2.91992188 0.27734375 C5.76028126 0.54931343 8.59889387 0.8353564 11.4375 1.125 C13.34241867 1.31539698 15.24736488 1.50551879 17.15234375 1.6953125 C18.58073886 1.83844497 20.00912816 1.98163545 21.4375 2.125 C21.4375 2.785 21.4375 3.445 21.4375 4.125 C23.2009375 4.31255859 23.2009375 4.31255859 25 4.50390625 C48.07704977 7.42396277 70.92234264 20.20381362 90.4375 32.125 C91.99791016 33.06279297 91.99791016 33.06279297 93.58984375 34.01953125 C107.37717249 42.5407224 120.24950947 52.33207312 132.69482422 62.68652344 C134.2098666 63.93710199 135.74578987 65.16229979 137.28515625 66.3828125 C146.15933352 73.42326083 154.29168999 81.26695469 162.4375 89.125 C163.09282715 89.75696289 163.7481543 90.38892578 164.42333984 91.04003906 C171.16708185 97.57764048 177.54556336 104.18316757 183.375 111.56640625 C185.40664908 114.0867285 187.54368128 116.44464723 189.75 118.8125 C195.83931757 125.51391535 201.09712455 132.8257807 206.4375 140.125 C207.2430835 141.21723877 207.2430835 141.21723877 208.06494141 142.33154297 C218.71965423 156.78177942 228.43938461 171.63807066 237.625 187.0625 C238.2025 188.02897461 238.78 188.99544922 239.375 189.99121094 C239.90480469 190.89000977 240.43460938 191.78880859 240.98046875 192.71484375 C241.45508545 193.51784912 241.92970215 194.32085449 242.41870117 195.14819336 C243.4375 197.125 243.4375 197.125 243.4375 199.125 C244.0975 199.455 244.7575 199.785 245.4375 200.125 C246.80412352 202.77245006 248.07565426 205.41710483 249.3125 208.125 C250.1250962 209.87946527 250.93896149 211.63334315 251.75390625 213.38671875 C252.18848145 214.32306152 252.62305664 215.2594043 253.07080078 216.22412109 C254.44048544 219.13133672 255.8511966 222.01463409 257.27734375 224.89453125 C294.38426316 300.05635706 320.86753291 394.79961908 294.18359375 477.16015625 C287.49173411 496.73490514 276.91048609 514.22400103 265.36083984 531.27392578 C261.67480932 536.7194951 258.14360563 542.25759085 254.625 547.8125 C250.03961482 555.04710813 245.42483802 562.2603309 240.75 569.4375 C240.21487793 570.25919678 239.67975586 571.08089355 239.12841797 571.92749023 C238.07410198 573.54570895 237.01958141 575.16379438 235.96484375 576.78173828 C229.62710791 586.50513799 223.33207936 596.24786218 217.20629883 606.10644531 C214.1704354 610.98155447 211.06818829 615.81032692 207.9375 620.625 C203.98708863 626.70287465 200.1033659 632.81731404 196.27294922 638.97143555 C193.05618575 644.13956769 189.81501692 649.29179755 186.5625 654.4375 C186.06637207 655.22326416 185.57024414 656.00902832 185.05908203 656.81860352 C182.41853877 660.99882587 179.77055321 665.17413998 177.11328125 669.34375 C176.57106934 670.19670654 176.02885742 671.04966309 175.47021484 671.9284668 C174.43516236 673.5564488 173.39785958 675.18300311 172.35791016 676.80786133 C170.40321194 679.88599168 168.55602707 682.87877976 166.97265625 686.16796875 C165.2838982 689.42086912 163.24539703 692.11239253 161.01660156 695.00927734 C158.39963067 698.51556519 156.1199546 702.22323236 153.8125 705.9375 C152.75266476 707.62894422 151.69276724 709.32034942 150.6328125 711.01171875 C150.09946289 711.86556152 149.56611328 712.7194043 149.01660156 713.59912109 C146.58439984 717.48959094 144.13711332 721.3704768 141.6875 725.25 C141.2018457 726.01957031 140.71619141 726.78914062 140.21582031 727.58203125 C135.34946873 735.28318109 130.43547793 742.95368942 125.52075195 750.62402344 C119.33955689 760.27192441 113.18544251 769.93689371 107.03857422 779.60668945 C104.7833879 783.15384513 102.52687686 786.70015643 100.26977539 790.24609375 C99.01198433 792.2223592 97.75468622 794.19893846 96.49780273 796.17578125 C94.48001032 799.34783082 92.45898201 802.51780071 90.4375 805.6875 C89.76460937 806.74646484 89.09171875 807.80542969 88.3984375 808.89648438 C75.82572264 828.5929286 64.29328075 839.39774982 43.6875 850.0625 C41.48048539 851.21048789 39.27458597 852.36054976 37.06994629 853.51309204 C35.62507199 854.26840771 34.17903657 855.02150666 32.73181152 855.77230835 C29.23631453 857.59845388 25.79720931 859.47735928 22.41601562 861.50830078 C21.78314636 861.88596085 21.1502771 862.26362091 20.49822998 862.65272522 C18.78480582 863.68581583 17.0828714 864.7378952 15.38183594 865.79125977 C12.4375 867.125 12.4375 867.125 9.66796875 867.05688477 C7.4375 866.125 7.4375 866.125 6.29394531 864.63427734 C6.03709961 863.9583252 5.78025391 863.28237305 5.515625 862.5859375 C5.19529297 861.7722168 4.87496094 860.95849609 4.54492188 860.12011719 C4.17947266 859.13172852 3.81402344 858.14333984 3.4375 857.125 C2.96376953 855.9071582 2.49003906 854.68931641 2.00195312 853.43457031 C0.64624266 849.945107 -0.67806308 846.44464298 -1.99121094 842.93896484 C-2.81929012 840.73190242 -3.65556031 838.52805293 -4.4921875 836.32421875 C-5.02133157 834.91685389 -5.54999516 833.50930827 -6.078125 832.1015625 C-6.32806213 831.44531891 -6.57799927 830.78907532 -6.83551025 830.11294556 C-7.8847845 827.29109785 -8.5625 825.16452366 -8.5625 822.125 C-9.2225 821.795 -9.8825 821.465 -10.5625 821.125 C-11.34375 819.015625 -11.34375 819.015625 -12.0625 816.375 C-12.85400865 813.5585149 -13.65217209 810.90317957 -14.75 808.1875 C-15.5625 806.125 -15.5625 806.125 -15.5625 803.125 C-16.2225 802.795 -16.8825 802.465 -17.5625 802.125 C-18.24995422 800.29344177 -18.24995422 800.29344177 -18.89575195 797.86889648 C-20.69199506 791.53124299 -22.94820883 785.39912342 -25.23046875 779.22265625 C-26.13225879 776.76240547 -27.03394862 774.30211795 -27.93554688 771.84179688 C-29.3488423 767.99385749 -30.76483494 764.14691533 -32.18237305 760.30053711 C-33.55755599 756.56806597 -34.92516173 752.83283675 -36.29296875 749.09765625 C-36.72103317 747.94145279 -37.1490976 746.78524933 -37.59013367 745.5940094 C-38.17623161 743.99105263 -38.17623161 743.99105263 -38.77416992 742.35571289 C-39.12041916 741.41546768 -39.4666684 740.47522247 -39.82341003 739.50648499 C-40.5625 737.125 -40.5625 737.125 -40.5625 734.125 C-41.2225 733.795 -41.8825 733.465 -42.5625 733.125 C-43.18115234 731.49682617 -43.18115234 731.49682617 -43.7734375 729.23046875 C-45.17709098 724.28272134 -46.80914498 719.45377973 -48.5390625 714.61328125 C-48.8235173 713.81687225 -49.10797211 713.02046326 -49.40104675 712.19992065 C-50.32782075 709.61170957 -51.25765727 707.02461001 -52.1875 704.4375 C-52.84140572 702.61139204 -53.49512921 700.78521881 -54.14868164 698.95898438 C-57.85115363 688.62360591 -61.58380213 678.29933304 -65.33203125 667.98046875 C-65.72320129 666.90267654 -66.11437134 665.82488434 -66.51739502 664.71443176 C-68.43322156 659.43604415 -70.35237397 654.15891532 -72.27783203 648.8840332 C-72.97570488 646.9643987 -73.6734647 645.04472311 -74.37109375 643.125 C-74.69535843 642.24051682 -75.01962311 641.35603363 -75.35371399 640.44474792 C-75.64618515 639.63798111 -75.93865631 638.83121429 -76.23999023 638 C-76.62513039 636.94425781 -76.62513039 636.94425781 -77.01805115 635.8671875 C-77.5625 634.125 -77.5625 634.125 -77.5625 632.125 C-78.8825 631.795 -80.2025 631.465 -81.5625 631.125 C-80.5725 631.125 -79.5825 631.125 -78.5625 631.125 C-80.06069743 627.06183307 -81.56124158 622.99953691 -83.0625 618.9375 C-83.51157715 617.72126953 -83.9606543 616.50503906 -84.42333984 615.25195312 C-86.58574408 609.40910478 -88.7629053 603.57353407 -91.0078125 597.76171875 C-91.37712891 596.80483154 -91.74644531 595.84794434 -92.12695312 594.86206055 C-92.82178063 593.06884895 -93.52084683 591.27727266 -94.22460938 589.48754883 C-94.53462891 588.68728271 -94.84464844 587.8870166 -95.1640625 587.0625 C-95.43557129 586.37027344 -95.70708008 585.67804687 -95.98681641 584.96484375 C-96.5625 583.125 -96.5625 583.125 -96.5625 580.125 C-97.2225 579.795 -97.8825 579.465 -98.5625 579.125 C-99.27124023 577.23754883 -99.27124023 577.23754883 -99.93359375 574.76953125 C-101.56432914 569.01019614 -103.55644777 563.42714178 -105.625 557.8125 C-106.1519043 556.36907227 -106.1519043 556.36907227 -106.68945312 554.89648438 C-108.59495158 549.66516228 -108.59495158 549.66516228 -110.67749023 544.50317383 C-111.5625 542.125 -111.5625 542.125 -111.5625 539.125 C-112.2225 538.795 -112.8825 538.465 -113.5625 538.125 C-114.1328125 536.359375 -114.1328125 536.359375 -114.6875 533.875 C-116.34309546 527.43382762 -118.71319619 521.37298245 -121.12338257 515.1879425 C-123.98224896 507.78297936 -126.60672876 500.31317985 -129.16796875 492.80078125 C-130.05095881 490.22370083 -130.93616139 487.64738419 -131.82202148 485.07128906 C-132.0478145 484.41451959 -132.27360752 483.75775011 -132.50624275 483.08107853 C-136.46511614 471.58216662 -140.5415223 460.12423595 -144.61084747 448.66405487 C-145.32739543 446.64553958 -146.04325102 444.62677979 -146.75897217 442.60797119 C-152.45990995 426.53115339 -158.22845494 410.48330584 -164.1875 394.5 C-170.00427187 378.89202681 -175.34772841 363.15017281 -180.52435303 347.31938171 C-181.99374336 342.83199787 -183.49712526 338.35774558 -185.02734375 333.890625 C-195.94540776 301.96481067 -205.29303778 268.94828081 -207.5625 235.125 C-207.64491943 233.95952637 -207.64491943 233.95952637 -207.72900391 232.77050781 C-208.10849019 227.2248587 -208.37836115 221.68045701 -208.5625 216.125 C-208.58586426 215.43792969 -208.60922852 214.75085938 -208.63330078 214.04296875 C-209.16257741 195.71843328 -207.39372332 177.31934897 -204.24609375 159.28125 C-203.49046181 154.9130476 -203.01814963 150.53395266 -202.5625 146.125 C-201.9025 146.125 -201.2425 146.125 -200.5625 146.125 C-200.45035156 145.14402344 -200.33820313 144.16304687 -200.22265625 143.15234375 C-196.94831105 120.45970787 -183.17950134 98.23966371 -168.5625 81.125 C-167.55123047 79.91263672 -167.55123047 79.91263672 -166.51953125 78.67578125 C-152.21064131 62.07329875 -133.96880985 51.70638184 -114.92529297 41.40551758 C-108.51081356 37.92918523 -102.21700588 34.35668425 -96.0625 30.4375 C-93.23219067 28.66181664 -90.39732555 26.89346179 -87.5625 25.125 C-86.53261963 24.47942139 -86.53261963 24.47942139 -85.48193359 23.82080078 C-66.34377065 11.89963139 -45.13945232 2.74096929 -22.5625 0.125 C-21.77335205 0.02654785 -20.9842041 -0.0719043 -20.17114258 -0.17333984 C-13.3056343 -0.933793 -6.85866094 -0.70935781 0 0 Z " fill="#FA5C4E" transform="translate(482.5625,53.875)"/>
<path d="M0 0 C1.44536133 0.13728516 1.44536133 0.13728516 2.91992188 0.27734375 C5.76028126 0.54931343 8.59889387 0.8353564 11.4375 1.125 C13.34241867 1.31539698 15.24736488 1.50551879 17.15234375 1.6953125 C18.58073886 1.83844497 20.00912816 1.98163545 21.4375 2.125 C21.4375 2.785 21.4375 3.445 21.4375 4.125 C23.2009375 4.31255859 23.2009375 4.31255859 25 4.50390625 C48.07704977 7.42396277 70.92234264 20.20381362 90.4375 32.125 C91.47777344 32.75019531 92.51804687 33.37539062 93.58984375 34.01953125 C107.37717249 42.5407224 120.24950947 52.33207312 132.69482422 62.68652344 C134.2098666 63.93710199 135.74578987 65.16229979 137.28515625 66.3828125 C146.15933352 73.42326083 154.29168999 81.26695469 162.4375 89.125 C163.09282715 89.75696289 163.7481543 90.38892578 164.42333984 91.04003906 C171.16708185 97.57764048 177.54556336 104.18316757 183.375 111.56640625 C185.40664908 114.0867285 187.54368128 116.44464723 189.75 118.8125 C195.83931757 125.51391535 201.09712455 132.8257807 206.4375 140.125 C207.2430835 141.21723877 207.2430835 141.21723877 208.06494141 142.33154297 C218.71965423 156.78177942 228.43938461 171.63807066 237.625 187.0625 C238.2025 188.02897461 238.78 188.99544922 239.375 189.99121094 C239.90480469 190.89000977 240.43460938 191.78880859 240.98046875 192.71484375 C241.45508545 193.51784912 241.92970215 194.32085449 242.41870117 195.14819336 C243.4375 197.125 243.4375 197.125 243.4375 199.125 C244.0975 199.455 244.7575 199.785 245.4375 200.125 C246.80412352 202.77245006 248.07565426 205.41710483 249.3125 208.125 C250.1250962 209.87946527 250.93896149 211.63334315 251.75390625 213.38671875 C252.18848145 214.32306152 252.62305664 215.2594043 253.07080078 216.22412109 C254.44048544 219.13133672 255.8511966 222.01463409 257.27734375 224.89453125 C294.38426316 300.05635706 320.86753291 394.79961908 294.18359375 477.16015625 C287.49173411 496.73490514 276.91048609 514.22400103 265.36083984 531.27392578 C261.67480932 536.7194951 258.14360563 542.25759085 254.625 547.8125 C250.03961482 555.04710813 245.42483802 562.2603309 240.75 569.4375 C240.21487793 570.25919678 239.67975586 571.08089355 239.12841797 571.92749023 C238.07410198 573.54570895 237.01958141 575.16379438 235.96484375 576.78173828 C229.62710791 586.50513799 223.33207936 596.24786218 217.20629883 606.10644531 C214.1704354 610.98155447 211.06818829 615.81032692 207.9375 620.625 C203.98708863 626.70287465 200.1033659 632.81731404 196.27294922 638.97143555 C193.05618575 644.13956769 189.81501692 649.29179755 186.5625 654.4375 C186.06637207 655.22326416 185.57024414 656.00902832 185.05908203 656.81860352 C182.41853877 660.99882587 179.77055321 665.17413998 177.11328125 669.34375 C176.57106934 670.19670654 176.02885742 671.04966309 175.47021484 671.9284668 C174.43516236 673.5564488 173.39785958 675.18300311 172.35791016 676.80786133 C170.40321194 679.88599168 168.55602707 682.87877976 166.97265625 686.16796875 C165.2838982 689.42086912 163.24539703 692.11239253 161.01660156 695.00927734 C158.39963067 698.51556519 156.1199546 702.22323236 153.8125 705.9375 C152.75266476 707.62894422 151.69276724 709.32034942 150.6328125 711.01171875 C150.09946289 711.86556152 149.56611328 712.7194043 149.01660156 713.59912109 C146.58439984 717.48959094 144.13711332 721.3704768 141.6875 725.25 C141.2018457 726.01957031 140.71619141 726.78914062 140.21582031 727.58203125 C135.34946873 735.28318109 130.43547793 742.95368942 125.52075195 750.62402344 C119.33955689 760.27192441 113.18544251 769.93689371 107.03857422 779.60668945 C104.7833879 783.15384513 102.52687686 786.70015643 100.26977539 790.24609375 C99.01198433 792.2223592 97.75468622 794.19893846 96.49780273 796.17578125 C94.48001032 799.34783082 92.45898201 802.51780071 90.4375 805.6875 C89.76460937 806.74646484 89.09171875 807.80542969 88.3984375 808.89648438 C75.82572264 828.5929286 64.29328075 839.39774982 43.6875 850.0625 C40.75326962 851.58875221 37.82145157 853.11956694 34.890625 854.65234375 C33.82418762 855.20781387 33.82418762 855.20781387 32.73620605 855.77450562 C26.77542018 858.89837237 20.96721596 862.24929522 15.18652344 865.69360352 C12.4375 867.125 12.4375 867.125 9.4375 867.125 C9.4375 865.125 9.4375 865.125 11.234375 863.31079102 C11.96140625 862.58947998 12.6884375 861.86816895 13.4375 861.125 C14.56917543 859.50006901 15.65018749 857.8390781 16.6875 856.15234375 C17.28949219 855.18039062 17.89148438 854.2084375 18.51171875 853.20703125 C19.14722656 852.16933594 19.78273438 851.13164063 20.4375 850.0625 C21.79125772 847.87344496 23.14542888 845.68464556 24.5 843.49609375 C25.16902344 842.41183105 25.83804688 841.32756836 26.52734375 840.21044922 C29.13571496 835.99718294 31.78300032 831.80929622 34.4375 827.625 C38.96417904 820.4749047 43.4563837 813.30372906 47.9375 806.125 C52.48330059 798.84354087 57.03883814 791.56861489 61.625 784.3125 C62.10839844 783.54736084 62.59179688 782.78222168 63.08984375 781.99389648 C65.52916617 778.13532448 67.97419161 774.28047708 70.42578125 770.4296875 C75.56159764 762.34948076 80.604065 754.22811025 85.5 746 C89.53153173 739.22648154 93.69395424 732.56799438 98.01416016 725.97558594 C102.9829208 718.35810853 107.71217303 710.5953004 112.46386719 702.84130859 C116.41012038 696.40646932 120.38868627 689.99577394 124.4375 683.625 C129.13516225 676.23146995 133.7341096 668.78041424 138.3125 661.3125 C145.03299255 650.3569467 151.88890269 639.49518538 158.81445312 628.66845703 C161.37025479 624.6632913 163.90417559 620.64440676 166.4375 616.625 C170.14093926 610.75025968 173.86198162 604.8872099 177.59887695 599.03369141 C210.68506134 547.17820352 233.26566061 500.15996144 232.8125 437.3125 C232.80817963 436.17135742 232.80385925 435.03021484 232.79940796 433.85449219 C232.72640804 417.40114529 232.19297971 401.37330041 229.4375 385.125 C229.10418671 382.91425541 228.77221632 380.70330805 228.44140625 378.4921875 C225.57724774 360.26537476 220.78552391 342.74645885 215.4375 325.125 C215.15181152 324.16609863 214.86612305 323.20719727 214.57177734 322.21923828 C204.55958113 288.91848536 189.38069768 256.67161505 171.93066406 226.69824219 C170.61153263 224.42491888 169.31296348 222.14175192 168.0234375 219.8515625 C154.92880502 196.80815519 139.58052136 174.33025165 122.4375 154.125 C121.93428223 153.53154785 121.43106445 152.9380957 120.91259766 152.32666016 C115.09085386 145.48070467 109.3072923 138.68585755 102.73046875 132.54296875 C101.4375 131.125 101.4375 131.125 101.4375 129.125 C100.7775 129.125 100.1175 129.125 99.4375 129.125 C99.4375 128.465 99.4375 127.805 99.4375 127.125 C98.4475 126.795 97.4575 126.465 96.4375 126.125 C96.4375 125.465 96.4375 124.805 96.4375 124.125 C95.89222656 123.90972656 95.34695313 123.69445312 94.78515625 123.47265625 C91.6337844 121.66363247 89.35902863 119.16784822 86.875 116.5625 C81.39034503 110.95317476 75.6010421 105.98456013 69.4375 101.125 C68.24725134 100.15802788 67.0585324 99.18917073 65.87109375 98.21875 C25.25842113 65.1341518 -26.22353389 38.8921403 -79.6875 38.9375 C-80.59113281 38.93758057 -81.49476563 38.93766113 -82.42578125 38.93774414 C-92.27700631 39.02024294 -101.91401398 40.0966251 -111.5625 42.125 C-107.47825284 37.64049662 -102.96147545 34.60626011 -97.8125 31.4375 C-96.97267578 30.91639648 -96.13285156 30.39529297 -95.26757812 29.85839844 C-93.53689508 28.78860451 -91.80381288 27.72268219 -90.06835938 26.66064453 C-87.77206552 25.25342626 -85.48727218 23.82914629 -83.203125 22.40234375 C-64.83359083 11.08840025 -44.11846543 2.62266854 -22.5625 0.125 C-21.77335205 0.02654785 -20.9842041 -0.0719043 -20.17114258 -0.17333984 C-13.3056343 -0.933793 -6.85866094 -0.70935781 0 0 Z " fill="#E44E45" transform="translate(482.5625,53.875)"/>
<path d="M0 0 C1.37418091 0.00845947 1.37418091 0.00845947 2.77612305 0.01708984 C41.30187147 0.69515913 72.12995008 24.64353331 97.92578125 51.046875 C102.90059422 56.25358953 107.34309614 61.75812452 111.61621094 67.546875 C112.99642953 69.39124693 114.4186318 71.1963374 115.8515625 73 C138.90100336 102.31389217 155.78569323 139.5069685 161.9375 176.3125 C162.05174316 176.97282227 162.16598633 177.63314453 162.28369141 178.31347656 C167.23786773 208.47890574 166.35164621 245.08687932 148.9375 271.3125 C146.42164065 274.79045689 143.75960714 278.07929851 140.9375 281.3125 C140.40640625 281.93898438 139.8753125 282.56546875 139.328125 283.2109375 C128.83893435 294.68673519 113.47930401 300.69184456 98.16015625 301.515625 C61.45524522 302.21258161 31.75253216 282.32904238 6.21875 257.81640625 C-2.98109418 248.84989474 -11.57627789 239.75763286 -19.0625 229.3125 C-19.48869629 228.73064941 -19.91489258 228.14879883 -20.35400391 227.54931641 C-33.51314314 209.51930259 -44.675717 189.99876396 -53.0625 169.3125 C-53.37767578 168.54164063 -53.69285156 167.77078125 -54.01757812 166.9765625 C-69.62579874 128.26556858 -77.51670707 83.00854519 -61.75 43.125 C-53.3914429 24.16534608 -41.44088354 11.07921822 -22.109375 3.28515625 C-14.70197131 0.92048507 -7.77195028 -0.05073548 0 0 Z " fill="#FEF1D1" transform="translate(447.0625,231.6875)"/>
<path d="M0 0 C3.12841741 0.597072 5.0129944 1.54298444 7.46875 3.5546875 C8.11650391 4.08175293 8.76425781 4.60881836 9.43164062 5.15185547 C10.11419922 5.72049316 10.79675781 6.28913086 11.5 6.875 C12.20833984 7.45781738 12.91667969 8.04063477 13.64648438 8.64111328 C18.97041113 13.05651601 24.11291604 17.63535358 29.15625 22.3671875 C31.34556337 24.39410675 33.55866932 26.3565973 35.81640625 28.3046875 C40.19375575 32.12001715 44.3345623 36.1428623 48.4375 40.25 C49.18322266 40.99580322 49.92894531 41.74160645 50.69726562 42.51000977 C55.45852723 47.32065127 59.86934921 52.21613341 64.04296875 57.546875 C66.03171307 60.03975211 68.13857188 62.3552574 70.3125 64.6875 C76.40181757 71.38891535 81.65962455 78.7007807 87 86 C87.53705566 86.72815918 88.07411133 87.45631836 88.62744141 88.20654297 C99.28215423 102.65677942 109.00188461 117.51307066 118.1875 132.9375 C118.765 133.90397461 119.3425 134.87044922 119.9375 135.86621094 C120.46730469 136.76500977 120.99710938 137.66380859 121.54296875 138.58984375 C122.01758545 139.39284912 122.49220215 140.19585449 122.98120117 141.02319336 C124 143 124 143 124 145 C124.66 145.33 125.32 145.66 126 146 C127.36661386 148.64743133 128.63809876 151.29215241 129.875 154 C130.68504515 155.74793052 131.49630468 157.49529863 132.30859375 159.2421875 C132.74284668 160.17772461 133.17709961 161.11326172 133.62451172 162.07714844 C135.0229617 165.0487926 136.4598555 167.99865448 137.91015625 170.9453125 C143.2127193 181.74307145 148.23860401 192.59517142 152.75 203.75 C153.18046631 204.8033252 153.61093262 205.85665039 154.05444336 206.94189453 C154.4438208 207.92528809 154.83319824 208.90868164 155.234375 209.921875 C155.57694336 210.78393555 155.91951172 211.64599609 156.27246094 212.53417969 C157.04262629 215.14447166 157.1368303 217.29366617 157 220 C155 219 155 219 153.8515625 215.90234375 C153.43719411 214.58244767 153.02866903 213.26070752 152.625 211.9375 C151.04634341 206.96841254 149.36452247 202.32959708 146.88671875 197.7265625 C145.68004596 195.3770058 144.85632242 192.90376875 143.95849609 190.42407227 C142.71322644 187.27473901 141.29048113 184.21639956 139.8515625 181.15234375 C139.38971306 180.1666188 139.38971306 180.1666188 138.91853333 179.16098022 C135.59859525 172.10414714 132.17208432 165.10181768 128.6875 158.125 C128.36295837 157.47490967 128.03841675 156.82481934 127.70404053 156.1550293 C122.54422154 145.84612582 117.13613053 135.76485061 111 126 C110.64309082 125.42540039 110.28618164 124.85080078 109.91845703 124.25878906 C100.40330301 108.97726948 90.20659003 94.08993223 79 80 C78.27941406 79.08605469 77.55882812 78.17210937 76.81640625 77.23046875 C73.78815532 73.41223932 70.72090082 69.65737804 67.5 66 C65 63 65 63 65 61 C64.34 61 63.68 61 63 61 C61.77572421 59.5896823 60.62128187 58.11851069 59.5 56.625 C55.66028499 51.67007365 51.44246569 47.34885288 46.90625 43.03125 C45 41 45 41 45 39 C44.10486694 38.59599976 44.10486694 38.59599976 43.19165039 38.18383789 C40.99977436 36.99987812 39.64442964 35.8495338 37.93359375 34.05859375 C37.37148193 33.47956299 36.80937012 32.90053223 36.23022461 32.30395508 C35.63862549 31.6880249 35.04702637 31.07209473 34.4375 30.4375 C29.46032759 25.35823837 24.39045385 20.65116925 18.80859375 16.23046875 C15.48464137 13.59072354 12.2392831 10.86745777 9 8.125 C8.44755615 7.66005127 7.8951123 7.19510254 7.32592773 6.71606445 C4.78463005 4.56609905 2.2985801 2.41031664 0 0 Z " fill="#E6382D" transform="translate(602,108)"/>
<path d="M0 0 C1 3 1 3 -0.00048828 5.14135742 C-0.51853027 5.95451416 -1.03657227 6.7676709 -1.5703125 7.60546875 C-2.42109375 8.95801758 -2.42109375 8.95801758 -3.2890625 10.33789062 C-3.89492188 11.27826172 -4.50078125 12.21863281 -5.125 13.1875 C-5.70765625 14.10853516 -6.2903125 15.02957031 -6.890625 15.97851562 C-9.0937953 19.45863553 -11.30833547 22.93104405 -13.54589844 26.38916016 C-14.00254883 27.10249512 -14.45919922 27.81583008 -14.9296875 28.55078125 C-15.53272705 29.48337769 -15.53272705 29.48337769 -16.14794922 30.43481445 C-17.15937416 31.99575166 -17.15937416 31.99575166 -17 34 C-18.19232447 35.15831878 -19.38542869 36.31584608 -20.58251953 37.46923828 C-23.19723391 40.29291365 -24.99968056 43.63065207 -26.9375 46.9375 C-27.90960349 48.56100789 -28.88365011 50.18335348 -29.859375 51.8046875 C-30.37048828 52.65514648 -30.88160156 53.50560547 -31.40820312 54.38183594 C-34.10409973 58.81600697 -36.89410314 63.18931837 -39.6875 67.5625 C-40.27072021 68.47636475 -40.85394043 69.39022949 -41.45483398 70.33178711 C-43.30144124 73.22233502 -45.15041113 76.11135914 -47 79 C-48.31901867 81.06119264 -49.63802893 83.12239066 -50.95703125 85.18359375 C-52.9769886 88.33968542 -54.99719339 91.4956176 -57.01806641 94.65112305 C-63.16062975 104.2441202 -69.27996136 113.85181337 -75.38842773 123.46655273 C-76.51367652 125.2354827 -77.64095501 127.00312245 -78.76977539 128.76977539 C-81.4817383 133.01735283 -84.18015845 137.2695564 -86.80078125 141.57421875 C-87.43016602 142.60385742 -87.43016602 142.60385742 -88.07226562 143.65429688 C-88.92349293 145.04977346 -89.76958487 146.44839165 -90.61132812 147.84960938 C-91.68735184 149.60045607 -92.83710035 151.30561056 -94 153 C-94.66 153 -95.32 153 -96 153 C-94.38244318 148.37074898 -91.93367948 144.48217145 -89.3125 140.375 C-88.90322266 139.72660156 -88.49394531 139.07820312 -88.07226562 138.41015625 C-86.71977584 136.27027226 -85.35986563 134.13520358 -84 132 C-83.45939941 131.14639893 -82.91879883 130.29279785 -82.36181641 129.41333008 C-78.82430157 123.834178 -75.2373096 118.29073807 -71.61010742 112.76953125 C-65.86838818 104.02770907 -60.25134717 95.23505259 -54.84814453 86.28027344 C-51.67696769 81.04647544 -48.33710077 75.95467088 -44.90673828 70.88818359 C-40.72081413 64.6658639 -36.80957148 58.28041047 -32.8828125 51.89257812 C-29.52928698 46.44604429 -26.12124014 41.04344234 -22.625 35.6875 C-17.28561296 27.50698963 -12.11285093 19.22498331 -6.94970703 10.93237305 C-6.33595215 9.94664307 -5.72219727 8.96091309 -5.08984375 7.9453125 C-4.54191162 7.06375488 -3.99397949 6.18219727 -3.42944336 5.27392578 C-2.31343168 3.49859995 -1.16318712 1.74478068 0 0 Z " fill="#E0382C" transform="translate(665,710)"/>
<path d="M0 0 C0.66 0 1.32 0 2 0 C1.7107506 1.64625988 1.41843946 3.29198182 1.125 4.9375 C0.96257812 5.85402344 0.80015625 6.77054688 0.6328125 7.71484375 C0.15382852 10.2014211 -0.37218112 12.65429847 -0.9387207 15.12084961 C-5.34924558 35.00847827 -5.3833757 54.78145387 -5.20599365 75.03283691 C-5.17475362 78.98928895 -5.16148773 82.94580273 -5.14648438 86.90234375 C-5.11475178 94.60172529 -5.06386945 102.3008106 -5 110 C-6.86832942 106.50604784 -7.36428239 103.84018273 -7.6328125 99.86328125 C-7.71692383 98.65510742 -7.80103516 97.44693359 -7.88769531 96.20214844 C-7.96600586 94.91856445 -8.04431641 93.63498047 -8.125 92.3125 C-8.16669312 91.65495728 -8.20838623 90.99741455 -8.25134277 90.31994629 C-9.74472343 66.69515387 -8.75776727 43.50408794 -4.68359375 20.15625 C-3.92796181 15.7880476 -3.45564963 11.40895266 -3 7 C-2.34 7 -1.68 7 -1 7 C-0.67 4.69 -0.34 2.38 0 0 Z " fill="#F9493A" transform="translate(283,193)"/>
<path d="M0 0 C2.79541144 1.39770572 2.98249768 3.3336564 3.95288086 6.1652832 C4.19530518 6.89448975 4.43772949 7.62369629 4.6875 8.375 C5.22263558 9.93925523 5.75914392 11.50304136 6.296875 13.06640625 C6.57595703 13.88125488 6.85503906 14.69610352 7.14257812 15.53564453 C8.51595998 19.48294421 9.97814309 23.39635456 11.4375 27.3125 C14.79101089 36.35530051 17.98288039 45.45074855 21.15039062 54.56005859 C22.52995874 58.52195621 23.91957011 62.48028335 25.3125 66.4375 C25.67613647 67.47511475 25.67613647 67.47511475 26.04711914 68.53369141 C27.02089338 71.29850854 28.01201284 74.02800317 29.16796875 76.72265625 C30 79 30 79 30 83 C29.34 83 28.68 83 28 83 C27.87625 82.030625 27.7525 81.06125 27.625 80.0625 C27.41875 79.051875 27.2125 78.04125 27 77 C26.34 76.67 25.68 76.34 25 76 C24.4296875 74.234375 24.4296875 74.234375 23.875 71.75 C22.4473769 66.19576485 20.52070462 60.95641934 18.4375 55.625 C14.52551261 45.57590899 10.98056623 35.41793609 7.50170898 25.21337891 C6.90531616 23.46420166 6.90531616 23.46420166 6.296875 21.6796875 C5.91466797 20.55530273 5.53246094 19.43091797 5.13867188 18.27246094 C3.74046916 14.25412706 2.24229225 10.27729266 0.70800781 6.30908203 C0 4 0 4 0 0 Z " fill="#F84839" transform="translate(344,516)"/>
<path d="M0 0 C0.66 0 1.32 0 2 0 C2.24121582 0.73412109 2.48243164 1.46824219 2.73095703 2.22460938 C3.85891806 5.65086476 4.9919486 9.07542477 6.125 12.5 C6.50398438 13.65371094 6.88296875 14.80742188 7.2734375 15.99609375 C9.5824576 22.96163771 12.03142435 29.85363882 14.63116455 36.7142334 C17.80963301 45.10752202 20.83568611 53.55556208 23.875 62 C24.47386463 63.66149211 25.07282253 65.32295061 25.671875 66.984375 C27.11565329 70.98919864 28.55818801 74.99446806 30 79 C29.01 79 28.02 79 27 79 C25.74335022 76.09399739 25 74.20395416 25 71 C24.34 70.67 23.68 70.34 23 70 C22.26791382 68.05487061 22.26791382 68.05487061 21.58740234 65.54199219 C20.12673562 60.38660369 18.4192362 55.3670605 16.6015625 50.328125 C16.28472504 49.44324402 15.96788757 48.55836304 15.64144897 47.64666748 C14.63837297 44.84690816 13.63177611 42.04843062 12.625 39.25 C11.95809503 37.39071046 11.29142665 35.53133604 10.625 33.671875 C10.29924988 32.76352905 9.97349976 31.85518311 9.63787842 30.91931152 C8.99327562 29.12137271 8.34910424 27.32327915 7.7053833 25.52502441 C6.28991473 21.5747979 4.86712491 17.6281272 3.40917969 13.69335938 C3.054048 12.72616974 3.054048 12.72616974 2.69174194 11.73944092 C2.0742195 10.05998515 1.45023882 8.38290781 0.82568359 6.70605469 C0 4 0 4 0 0 Z " fill="#F84738" transform="translate(417,717)"/>
<path d="M0 0 C2.39268011 2.39268011 3.01060807 4.32861436 4.171875 7.50390625 C4.58598633 8.62893555 5.00009766 9.75396484 5.42675781 10.91308594 C5.86342773 12.11739258 6.30009766 13.32169922 6.75 14.5625 C7.19956055 15.7887207 7.64912109 17.01494141 8.11230469 18.27832031 C10.7844726 25.58686307 13.39694983 32.91448234 15.94995117 40.26538086 C17.52859092 44.7734552 19.25633858 49.20363153 21.0625 53.625 C29 73.16507256 29 73.16507256 29 78 C28.34 78 27.68 78 27 78 C24.85747648 72.36068056 22.7214031 66.71897708 20.59130859 61.07495117 C19.86554549 59.15468266 19.13801451 57.23508135 18.40869141 55.31616211 C17.36156787 52.56016146 16.32079513 49.80183536 15.28125 47.04296875 C14.95314331 46.18350143 14.62503662 45.32403412 14.2869873 44.43852234 C13.98667603 43.63791885 13.68636475 42.83731537 13.37695312 42.01245117 C13.11047974 41.3085173 12.84400635 40.60458344 12.56945801 39.87931824 C12 38 12 38 12 35 C11.34 34.67 10.68 34.34 10 34 C9.21875 31.890625 9.21875 31.890625 8.5 29.25 C7.70849135 26.4335149 6.91032791 23.77817957 5.8125 21.0625 C5 19 5 19 5 16 C4.34 15.67 3.68 15.34 3 15 C2.1484375 12.890625 2.1484375 12.890625 1.375 10.25 C0.98441406 8.95835937 0.98441406 8.95835937 0.5859375 7.640625 C0.00060132 5.00270994 -0.10651736 2.69198424 0 0 Z " fill="#F34738" transform="translate(462,841)"/>
<path d="M0 0 C3.12841741 0.597072 5.0129944 1.54298444 7.46875 3.5546875 C8.11650391 4.08175293 8.76425781 4.60881836 9.43164062 5.15185547 C10.11419922 5.72049316 10.79675781 6.28913086 11.5 6.875 C12.20833984 7.45781738 12.91667969 8.04063477 13.64648438 8.64111328 C18.97041113 13.05651601 24.11291604 17.63535358 29.15625 22.3671875 C31.33302302 24.38249659 33.53353873 26.3285649 35.78125 28.26171875 C40.3971219 32.28150123 44.69792381 36.58696021 49 40.9375 C49.77472656 41.71673828 50.54945313 42.49597656 51.34765625 43.29882812 C53.23410757 45.1969242 55.11816245 47.09733149 57 49 C56.01 49.33 55.02 49.66 54 50 C52.49403892 48.54782324 50.99537896 47.08807139 49.5 45.625 C48.6646875 44.81289062 47.829375 44.00078125 46.96875 43.1640625 C45 41 45 41 45 39 C44.10486694 38.59599976 44.10486694 38.59599976 43.19165039 38.18383789 C40.99977436 36.99987812 39.64442964 35.8495338 37.93359375 34.05859375 C37.37148193 33.47956299 36.80937012 32.90053223 36.23022461 32.30395508 C35.63862549 31.6880249 35.04702637 31.07209473 34.4375 30.4375 C29.46032759 25.35823837 24.39045385 20.65116925 18.80859375 16.23046875 C15.48464137 13.59072354 12.2392831 10.86745777 9 8.125 C8.44755615 7.66005127 7.8951123 7.19510254 7.32592773 6.71606445 C4.78463005 4.56609905 2.2985801 2.41031664 0 0 Z " fill="#EB3A2F" transform="translate(602,108)"/>
<path d="M0 0 C0.495 1.485 0.495 1.485 1 3 C-0.44782399 5.75819633 -1.95290695 8.31897605 -3.625 10.9375 C-4.36737915 12.12545166 -4.36737915 12.12545166 -5.12475586 13.33740234 C-9.40842493 20.15842938 -13.80474994 26.90844013 -18.21337891 33.64916992 C-22.48890379 40.18764442 -26.66147391 46.78440785 -30.78125 53.421875 C-31.13960937 53.99615234 -31.49796875 54.57042969 -31.8671875 55.16210938 C-32.69780119 56.50970848 -33.51341759 57.86658205 -34.3203125 59.22851562 C-34.76117187 59.96263672 -35.20203125 60.69675781 -35.65625 61.453125 C-36.05650391 62.13020508 -36.45675781 62.80728516 -36.86914062 63.50488281 C-37.24232422 63.99827148 -37.61550781 64.49166016 -38 65 C-38.66 65 -39.32 65 -40 65 C-38.31598196 60.0556447 -35.55692832 55.92442331 -32.75 51.5625 C-31.95916016 50.32209961 -31.95916016 50.32209961 -31.15234375 49.05664062 C-30.02191005 47.28421588 -28.88969205 45.5129281 -27.75585938 43.74267578 C-25.41637429 40.08836885 -23.08789196 36.42710905 -20.75927734 32.76586914 C-19.58827491 30.92486352 -18.41672706 29.0842047 -17.24462891 27.24389648 C-11.47125853 18.17846634 -5.73209641 9.09156683 0 0 Z " fill="#E3392D" transform="translate(708,642)"/>
<path d="M0 0 C2.82747469 1.41373734 2.85473769 2.93706398 3.84765625 5.90625 C4.20134277 6.94861816 4.5550293 7.99098633 4.91943359 9.06494141 C5.29664551 10.19851074 5.67385742 11.33208008 6.0625 12.5 C6.86710222 14.87286672 7.67313053 17.24525028 8.48046875 19.6171875 C8.89474121 20.83760742 9.30901367 22.05802734 9.73583984 23.31542969 C11.72282287 29.10676763 13.79366201 34.86702108 15.875 40.625 C16.24375244 41.64787109 16.61250488 42.67074219 16.99243164 43.72460938 C17.34297607 44.69462891 17.69352051 45.66464844 18.0546875 46.6640625 C18.38307617 47.57704102 18.71146484 48.49001953 19.04980469 49.43066406 C19.65909355 51.07818616 20.29314766 52.71688201 20.95800781 54.34277344 C22.46757977 58.05088394 23.23349662 60.17563559 22 64 C17.4208147 53.61337284 13.6423661 42.94270431 9.84179688 32.25317383 C8.74542042 29.17464093 7.63853508 26.10001415 6.53125 23.02539062 C5.8274818 21.05231263 5.12433469 19.07901298 4.421875 17.10546875 C4.09274109 16.19492233 3.76360718 15.28437592 3.42449951 14.34623718 C1.72709982 9.53690996 0.50668996 5.07943715 0 0 Z " fill="#F84838" transform="translate(312,426)"/>
<path d="M0 0 C3.03276257 1.51638129 3.18884757 3.73810608 4.3203125 6.88671875 C4.76979248 8.12574951 5.21927246 9.36478027 5.68237305 10.64135742 C6.16347957 11.98998928 6.64435051 13.33870519 7.125 14.6875 C7.61631596 16.05141432 8.10826275 17.41510156 8.60083008 18.77856445 C9.59489668 21.53226289 10.58534346 24.28722717 11.57373047 27.04296875 C12.86301801 30.63017384 14.17864004 34.20716095 15.50390625 37.78125 C16.06150635 39.29005737 16.06150635 39.29005737 16.63037109 40.8293457 C17.32179728 42.69875132 18.01602064 44.56712534 18.71337891 46.43432617 C19.01808105 47.26424072 19.3227832 48.09415527 19.63671875 48.94921875 C20.03443481 50.02175903 20.03443481 50.02175903 20.44018555 51.1159668 C21 53 21 53 21 56 C19.35 56 17.7 56 16 56 C17.485 55.505 17.485 55.505 19 55 C17.50180257 50.93683307 16.00125842 46.87453691 14.5 42.8125 C14.05092285 41.59626953 13.6018457 40.38003906 13.13916016 39.12695312 C10.97675592 33.28410478 8.7995947 27.44853407 6.5546875 21.63671875 C6.18537109 20.67983154 5.81605469 19.72294434 5.43554688 18.73706055 C4.74071937 16.94384895 4.04165317 15.15227266 3.33789062 13.36254883 C3.02787109 12.56228271 2.71785156 11.7620166 2.3984375 10.9375 C2.12692871 10.24527344 1.85541992 9.55304687 1.57568359 8.83984375 C1 7 1 7 1 4 C0.34 3.67 -0.32 3.34 -1 3 C-0.67 2.01 -0.34 1.02 0 0 Z " fill="#F84A3A" transform="translate(385,630)"/>
<path d="M0 0 C0.33 0 0.66 0 1 0 C0.50922473 6.72967182 -0.86343553 12.21808412 -3.4375 18.4375 C-3.78876953 19.29859375 -4.14003906 20.1596875 -4.50195312 21.046875 C-18.94192552 55.47096276 -18.94192552 55.47096276 -28 60 C-26.70220876 56.53730922 -25.18670217 53.47444217 -23.2421875 50.33203125 C-13.36228257 34.13848934 -5.56519401 18.14039203 0 0 Z " fill="#E3392C" transform="translate(777,521)"/>
<path d="M0 0 C1.44536133 0.13728516 1.44536133 0.13728516 2.91992188 0.27734375 C5.76028126 0.54931343 8.59889387 0.8353564 11.4375 1.125 C13.34241867 1.31539698 15.24736488 1.50551879 17.15234375 1.6953125 C18.58073886 1.83844497 20.00912816 1.98163545 21.4375 2.125 C21.4375 2.785 21.4375 3.445 21.4375 4.125 C22.736875 4.24875 24.03625 4.3725 25.375 4.5 C27.58984375 4.7109375 27.58984375 4.7109375 29.4375 5.125 C29.9325 6.115 29.9325 6.115 30.4375 7.125 C26.34192549 6.7593237 22.38102329 6.33987362 18.3671875 5.42578125 C3.93653089 2.17491905 -10.83373702 2.37612152 -25.5625 2.125 C-18.40018148 -2.64987902 -8.19431289 -0.84749777 0 0 Z " fill="#F23E33" transform="translate(482.5625,53.875)"/>
<path d="M0 0 C0.33 0.99 0.66 1.98 1 3 C-0.45220166 5.59496794 -1.95502205 7.98721328 -3.625 10.4375 C-4.64087622 11.9659789 -5.65648995 13.49463227 -6.671875 15.0234375 C-7.21263672 15.83006836 -7.75339844 16.63669922 -8.31054688 17.46777344 C-11.20534582 21.80662527 -14.03640061 26.18676917 -16.875 30.5625 C-17.40947754 31.38226318 -17.94395508 32.20202637 -18.49462891 33.04663086 C-19.00944824 33.83690674 -19.52426758 34.62718262 -20.0546875 35.44140625 C-20.54936523 36.19953613 -21.04404297 36.95766602 -21.55371094 37.73876953 C-23.41302316 40.64574957 -25.18037547 43.60544995 -26.92626953 46.58178711 C-27.28060059 47.04979736 -27.63493164 47.51780762 -28 48 C-28.66 48 -29.32 48 -30 48 C-28.60827128 44.19851876 -26.84631438 40.97083138 -24.65625 37.5703125 C-23.99125488 36.53406738 -23.32625977 35.49782227 -22.64111328 34.43017578 C-21.9345459 33.33946777 -21.22797852 32.24875977 -20.5 31.125 C-19.77434198 29.99868642 -19.04891985 28.87222084 -18.32373047 27.74560547 C-12.96841473 19.43926372 -7.53125867 11.19006111 -2 3 C-1.34 2.01 -0.68 1.02 0 0 Z " fill="#E33B2E" transform="translate(740,593)"/>
<path d="M0 0 C-0.58523438 0.30550781 -1.17046875 0.61101562 -1.7734375 0.92578125 C-22.11764489 11.25548473 -22.11764489 11.25548473 -40 25 C-42.625 25.625 -42.625 25.625 -45 26 C-40.91571733 21.51545763 -36.39899012 18.48138944 -31.25 15.3125 C-30.00657837 14.54063354 -30.00657837 14.54063354 -28.73803711 13.75317383 C-27.0183907 12.68989099 -25.29627738 11.63058803 -23.57177734 10.57519531 C-21.88366684 9.54123965 -20.19896347 8.50169634 -18.51806641 7.45605469 C-16.20758492 6.01956853 -13.88720562 4.60082114 -11.5625 3.1875 C-10.85963867 2.74897705 -10.15677734 2.3104541 -9.43261719 1.85864258 C-5.82401632 -0.29917332 -4.02048321 -1.36105812 0 0 Z " fill="#EE483B" transform="translate(416,70)"/>
<path d="M0 0 C2.39458748 3.59188122 2.74751873 6.52732371 3.4375 10.72265625 C3.83658575 13.18119771 3.83658575 13.18119771 6 15 C6.43973474 17.68726788 6.7574663 20.2931507 7 23 C7.0928125 23.98097656 7.185625 24.96195312 7.28125 25.97265625 C7.52977401 28.64774106 7.76874744 31.32337458 8 34 C6 33 6 33 5.22216797 30.71850586 C4.43029903 27.46019029 3.64117144 24.2019769 2.875 20.9375 C2.59785156 19.81666016 2.32070313 18.69582031 2.03515625 17.54101562 C0.6059954 11.54628426 -0.34695451 6.16221373 0 0 Z " fill="#F95042" transform="translate(280,317)"/>
<path d="M0 0 C0.66 0.33 1.32 0.66 2 1 C1.05640625 1.84820312 0.1128125 2.69640625 -0.859375 3.5703125 C-9.61110867 11.5335089 -17.52019368 19.83479971 -25 29 C-25.33 28.34 -25.66 27.68 -26 27 C-18.29240805 16.7397329 -10.31514391 7.7094395 0 0 Z " fill="#FA4A3B" transform="translate(333,117)"/>
<path d="M0 0 C0.33 0 0.66 0 1 0 C1.76213214 9.1573108 2.13327329 18.18923439 1.6875 27.375 C1.65277588 28.18880127 1.61805176 29.00260254 1.58227539 29.84106445 C1.36192336 33.66225166 1.16269808 35.75595288 -1 39 C-1.02467917 33.76725612 -1.04285003 28.53454597 -1.05493164 23.30175781 C-1.05996711 21.52082733 -1.06679581 19.739901 -1.07543945 17.95898438 C-1.08753942 15.40233335 -1.09323609 12.84573688 -1.09765625 10.2890625 C-1.10281754 9.49005524 -1.10797882 8.69104797 -1.11329651 7.86782837 C-1.11387171 2.22774341 -1.11387171 2.22774341 0 0 Z " fill="#E53428" transform="translate(785,448)"/>
<path d="M0 0 C5.62303757 4.67466337 10.79741554 9.67765667 15.9375 14.875 C16.71673828 15.65875 17.49597656 16.4425 18.29882812 17.25 C20.20154085 19.16438581 22.10186171 21.08108034 24 23 C23.01 23.33 22.02 23.66 21 24 C19.49403892 22.54782324 17.99537896 21.08807139 16.5 19.625 C15.6646875 18.81289062 14.829375 18.00078125 13.96875 17.1640625 C12 15 12 15 12 13 C11.14148438 12.62681641 11.14148438 12.62681641 10.265625 12.24609375 C7.66499322 10.81574627 5.85253401 9.15335326 3.75 7.0625 C3.04359375 6.37285156 2.3371875 5.68320313 1.609375 4.97265625 C0 3 0 3 0 0 Z " fill="#EA4237" transform="translate(635,134)"/>
<path d="M0 0 C-0.51272461 0.26103516 -1.02544922 0.52207031 -1.55371094 0.79101562 C-11.7704082 6.016035 -21.6466905 11.3163976 -31 18 C-31 17.01 -31 16.02 -31 15 C-25.65376594 9.92961585 -18.56118586 6.5083981 -12.125 3 C-11.38773682 2.58991699 -10.65047363 2.17983398 -9.89086914 1.75732422 C-9.18696045 1.38365723 -8.48305176 1.00999023 -7.7578125 0.625 C-7.1302002 0.28726563 -6.50258789 -0.05046875 -5.85595703 -0.3984375 C-3.55474442 -1.14431857 -2.25640081 -0.76898639 0 0 Z " fill="#F8493B" transform="translate(369,98)"/>
<path d="M0 0 C0 0.66 0 1.32 0 2 C-5.98172726 7.53027614 -13.81103625 11.20305892 -20.9375 15 C-21.87360107 15.50523193 -22.80970215 16.01046387 -23.77416992 16.53100586 C-24.66209229 16.99514893 -25.55001465 17.45929199 -26.46484375 17.9375 C-27.66548462 18.56978516 -27.66548462 18.56978516 -28.89038086 19.21484375 C-31 20 -31 20 -34 19 C-32.97229492 18.45641846 -32.97229492 18.45641846 -31.92382812 17.90185547 C-28.77878017 16.2332387 -25.63940137 14.55421469 -22.5 12.875 C-21.42234375 12.30523438 -20.3446875 11.73546875 -19.234375 11.1484375 C-13.63992467 8.14653733 -8.43200668 5.08998207 -3.50585938 1.07080078 C-2 0 -2 0 0 0 Z " fill="#DC372B" transform="translate(553,886)"/>
<path d="M0 0 C4.23433644 3.67675008 5.40519334 8.79510143 7.25 13.9375 C7.62640625 14.93974609 8.0028125 15.94199219 8.390625 16.97460938 C8.74125 17.94076172 9.091875 18.90691406 9.453125 19.90234375 C9.77442383 20.78398193 10.09572266 21.66562012 10.42675781 22.57397461 C11.03754899 25.15891154 10.87796991 26.52594976 10 29 C7.23608694 23.15326083 4.91952857 17.21191176 2.75 11.125 C2.47978027 10.37549072 2.20956055 9.62598145 1.93115234 8.85375977 C0.85193406 5.7857955 0 3.27665796 0 0 Z " fill="#F94635" transform="translate(374,600)"/>
<path d="M0 0 C2.80128888 4.20193332 4.37715915 8.73946014 6.1875 13.4375 C6.56841797 14.39205078 6.94933594 15.34660156 7.34179688 16.33007812 C7.69693359 17.25111328 8.05207031 18.17214844 8.41796875 19.12109375 C8.74563232 19.9608374 9.0732959 20.80058105 9.41088867 21.66577148 C10.05336027 24.21142874 9.86440934 25.55336565 9 28 C-0.51203501 7.56673961 -0.51203501 7.56673961 0 0 Z " fill="#F74738" transform="translate(447,799)"/>
<path d="M0 0 C6.62880809 0.48006249 11.91906403 1.8045727 18 4.4375 C18.76183594 4.75009766 19.52367187 5.06269531 20.30859375 5.38476562 C25.86320846 7.72641693 25.86320846 7.72641693 27 10 C20.99896765 9.36352687 15.69576616 7.12278022 10.125 4.9375 C8.66320312 4.37192383 8.66320312 4.37192383 7.171875 3.79492188 C4.77922451 2.86835624 2.38873946 1.93659209 0 1 C0 0.67 0 0.34 0 0 Z " fill="#F03F34" transform="translate(514,61)"/>
<path d="M0 0 C0.33 0 0.66 0 1 0 C1.02694851 1.95825873 1.04637218 3.91662226 1.0625 5.875 C1.07410156 6.96554687 1.08570313 8.05609375 1.09765625 9.1796875 C1 12 1 12 0 14 C-0.15344209 15.88472859 -0.24959571 17.77427874 -0.31640625 19.6640625 C-0.35830078 20.78554688 -0.40019531 21.90703125 -0.44335938 23.0625 C-0.48267578 24.238125 -0.52199219 25.41375 -0.5625 26.625 C-0.60568359 27.80835938 -0.64886719 28.99171875 -0.69335938 30.2109375 C-0.79967426 33.14050328 -0.90170642 36.07015588 -1 39 C-1.33 39 -1.66 39 -2 39 C-2.04949353 34.08871933 -2.08576382 29.17758434 -2.10986328 24.26611328 C-2.1199115 22.59584015 -2.13355236 20.92558458 -2.15087891 19.25537109 C-2.17517926 16.85249496 -2.18649487 14.44985173 -2.1953125 12.046875 C-2.20563507 11.30193787 -2.21595764 10.55700073 -2.22659302 9.78948975 C-2.22740368 6.03072358 -2.10367118 3.18826289 0 0 Z " fill="#E7574F" transform="translate(785,436)"/>
<path d="M0 0 C3.67085094 1.83542547 4.33667251 6.61735065 5.6875 10.3125 C6.02072266 11.18068359 6.35394531 12.04886719 6.69726562 12.94335938 C7.00728516 13.78318359 7.31730469 14.62300781 7.63671875 15.48828125 C8.06537231 16.64130737 8.06537231 16.64130737 8.50268555 17.81762695 C9.05847282 20.25659722 8.79822213 21.65661696 8 24 C0 6.76595745 0 6.76595745 0 0 Z " fill="#F94636" transform="translate(335,491)"/>
<path d="M0 0 C0.33 0.66 0.66 1.32 1 2 C-3.20421799 10.60991608 -8.7399415 20.57764056 -16 27 C-14.62338544 23.25123631 -12.90090804 20.05504795 -10.7421875 16.69921875 C-9.80439453 15.23452148 -9.80439453 15.23452148 -8.84765625 13.74023438 C-8.19667969 12.73283203 -7.54570313 11.72542969 -6.875 10.6875 C-6.21628906 9.66076172 -5.55757812 8.63402344 -4.87890625 7.57617188 C-3.2563783 5.04832035 -1.62997014 2.52305663 0 0 Z " fill="#D3443C" transform="translate(527,866)"/>
<path d="M0 0 C0.33 0.99 0.66 1.98 1 3 C-0.33481289 5.43042259 -1.69867994 7.65295724 -3.25 9.9375 C-3.65863281 10.55818359 -4.06726563 11.17886719 -4.48828125 11.81835938 C-6.56514429 14.95368799 -8.70099928 18.02174906 -11 21 C-11.99 20.67 -12.98 20.34 -14 20 C-13.49210938 19.39414062 -12.98421875 18.78828125 -12.4609375 18.1640625 C-7.71675735 12.38931138 -3.65937194 6.51479096 0 0 Z " fill="#DE372B" transform="translate(567,864)"/>
<path d="M0 0 C0.66 0.33 1.32 0.66 2 1 C0.75424629 3.06516938 -0.49641715 5.12708989 -1.75 7.1875 C-2.09804688 7.76564453 -2.44609375 8.34378906 -2.8046875 8.93945312 C-4.98169747 12.50733057 -7.31952362 15.79429514 -10 19 C-9.51180778 13.9121217 -7.90712067 10.85610339 -5 6.6875 C-4.278125 5.63949219 -3.55625 4.59148437 -2.8125 3.51171875 C-1 1 -1 1 0 0 Z " fill="#FA4E3F" transform="translate(305,147)"/>
<path d="M0 0 C0.66 0.33 1.32 0.66 2 1 C1.2059375 1.77085938 0.411875 2.54171875 -0.40625 3.3359375 C-1.43776041 4.34869317 -2.46899627 5.36172852 -3.5 6.375 C-4.02464844 6.88289062 -4.54929687 7.39078125 -5.08984375 7.9140625 C-6.43153181 9.23832604 -7.71995815 10.61605865 -9 12 C-9 12.66 -9 13.32 -9 14 C-10.75 15.5078125 -10.75 15.5078125 -13 17.125 C-13.7425 17.66382813 -14.485 18.20265625 -15.25 18.7578125 C-15.8275 19.16773438 -16.405 19.57765625 -17 20 C-15.46624703 16.45931496 -13.34731974 13.9608491 -10.75 11.125 C-9.55310547 9.81789062 -9.55310547 9.81789062 -8.33203125 8.484375 C-5.61410948 5.58890055 -2.84415383 2.77122681 0 0 Z " fill="#F8695C" transform="translate(329,122)"/>
<path d="M0 0 C0.33 0 0.66 0 1 0 C1 10.23 1 20.46 1 31 C0.67 31 0.34 31 0 31 C-0.02505615 30.31897217 -0.0501123 29.63794434 -0.07592773 28.9362793 C-0.19190952 25.85316245 -0.31462616 22.77034954 -0.4375 19.6875 C-0.47681641 18.61564453 -0.51613281 17.54378906 -0.55664062 16.43945312 C-0.59853516 15.41142578 -0.64042969 14.38339844 -0.68359375 13.32421875 C-0.73858032 11.9024231 -0.73858032 11.9024231 -0.79467773 10.4519043 C-0.91430187 7.863829 -0.91430187 7.863829 -2 5 C-1.0625 2.3125 -1.0625 2.3125 0 0 Z " fill="#FC5649" transform="translate(276,248)"/>
<path d="M0 0 C0.66 0 1.32 0 2 0 C2.69918305 2.58067563 3.38461049 5.16372847 4.0625 7.75 C4.26166016 8.47960937 4.46082031 9.20921875 4.66601562 9.9609375 C5.63744407 13.71031044 6.15449387 16.30274238 5 20 C4.34 18.02 3.68 16.04 3 14 C2.34 14 1.68 14 1 14 C1.020625 12.80375 1.04125 11.6075 1.0625 10.375 C1.06882571 6.81995131 0.69888875 3.49444376 0 0 Z " fill="#FB6659" transform="translate(286,340)"/>
<path d="M0 0 C4.00735217 0.60110283 6.55469371 2.66602028 9.75 5.0625 C10.73484375 5.79597656 11.7196875 6.52945313 12.734375 7.28515625 C13.48203125 7.85105469 14.2296875 8.41695312 15 9 C14.01 9.33 13.02 9.66 12 10 C9.79820104 8.61466465 7.84078757 7.23042903 5.8125 5.625 C4.97428711 4.98691406 4.97428711 4.98691406 4.11914062 4.3359375 C2.72034615 3.25652589 1.35681358 2.13172978 0 1 C0 0.67 0 0.34 0 0 Z " fill="#EC3E34" transform="translate(587,97)"/>
<path d="M0 0 C0 0.66 0 1.32 0 2 C-1.93108963 3.03290841 -3.870118 4.05098672 -5.8125 5.0625 C-6.89144531 5.63097656 -7.97039062 6.19945312 -9.08203125 6.78515625 C-12 8 -12 8 -15 7 C-12.34222951 4.34222951 -9.45695173 3.43046279 -6 2 C-5.236875 1.608125 -4.47375 1.21625 -3.6875 0.8125 C-2 0 -2 0 0 0 Z " fill="#DE392E" transform="translate(517,907)"/>
<path d="M0 0 C1.56135347 3.12270693 0.19938014 5.30517558 -0.8125 8.5625 C-1.16957031 9.73941406 -1.52664063 10.91632813 -1.89453125 12.12890625 C-3 15 -3 15 -5 16 C-5 12.7 -5 9.4 -5 6 C-4.34 6 -3.68 6 -3 6 C-2.01 4.02 -1.02 2.04 0 0 Z " fill="#FB6658" transform="translate(292,174)"/>
<path d="M0 0 C5.34844008 0.53484401 9.35796103 2.46690767 14 5 C14 5.66 14 6.32 14 7 C9.0276578 5.50829734 4.58154261 3.39542583 0 1 C0 0.67 0 0.34 0 0 Z " fill="#ED3F34" transform="translate(543,72)"/>
<path d="M0 0 C0.66 0 1.32 0 2 0 C3.45184478 4.53701494 4.23509196 8.18061476 4 13 C3.34 12.67 2.68 12.34 2 12 C1.3671875 9.27734375 1.3671875 9.27734375 0.875 5.9375 C0.70742188 4.83277344 0.53984375 3.72804688 0.3671875 2.58984375 C0.24601563 1.73519531 0.12484375 0.88054687 0 0 Z " fill="#E5372D" transform="translate(769,359)"/>
<path d="M0 0 C-0.99 0.33 -1.98 0.66 -3 1 C-3 1.66 -3 2.32 -3 3 C-6.3 3 -9.6 3 -13 3 C-10.37358828 1.24905885 -8.89308789 0.54725362 -5.9375 -0.1875 C-5.24527344 -0.36667969 -4.55304687 -0.54585937 -3.83984375 -0.73046875 C-2 -1 -2 -1 0 0 Z " fill="#F73126" transform="translate(565,530)"/>
<path d="M0 0 C-2.54605302 2.00047023 -4.9664636 3.82572785 -8 5 C-8.99 4.67 -9.98 4.34 -11 4 C-10.67 3.01 -10.34 2.02 -10 1 C-6.78548731 -0.60725635 -3.56387464 -0.05748185 0 0 Z " fill="#E9574C" transform="translate(424,67)"/>
<path d="M0 0 C2.96052484 3.36423277 3.92289822 6.69159287 5 11 C2 10 2 10 0.8125 7.75 C0.00061706 5.00208853 -0.16260121 2.84552111 0 0 Z " fill="#F94233" transform="translate(412,703)"/>
<path d="M0 0 C-1.4317616 0.69937202 -2.87067032 1.38412718 -4.3125 2.0625 C-5.51326172 2.63677734 -5.51326172 2.63677734 -6.73828125 3.22265625 C-9 4 -9 4 -12 3 C-10.75823305 2.29773859 -9.50614401 1.61370891 -8.25 0.9375 C-7.20585937 0.36322266 -7.20585937 0.36322266 -6.140625 -0.22265625 C-3.63859372 -1.1312406 -2.4667645 -0.88336837 0 0 Z " fill="#EE4337" transform="translate(430,64)"/>
<path d="M0 0 C0.33 0.66 0.66 1.32 1 2 C-0.43775696 5.21783702 -2.04417512 8.06626269 -4 11 C-4.66 11 -5.32 11 -6 11 C-4.54955729 6.89041233 -2.48889248 3.56741255 0 0 Z " fill="#D5483F" transform="translate(503,904)"/>
<path d="M0 0 C4.21878192 -0.19622241 7.17010894 0.19769832 11 2 C11 2.33 11 2.66 11 3 C7.37 3 3.74 3 0 3 C0 2.01 0 1.02 0 0 Z " fill="#FDE3C7" transform="translate(437,232)"/>
<path d="M0 0 C0.33 0.99 0.66 1.98 1 3 C-0.62339805 4.70884005 -2.29319053 6.37446717 -4 8 C-4.66 8 -5.32 8 -6 8 C-4.55746343 4.63408134 -2.66735273 2.48952921 0 0 Z " fill="#F95343" transform="translate(322,126)"/>
<path d="M0 0 C2.56616632 3.84924948 2.55097676 6.4349304 3 11 C1 10 1 10 0 7 C-0.03954234 4.66700175 -0.04401732 2.33291811 0 0 Z " fill="#FA4433" transform="translate(285,340)"/>
<path d="M0 0 C3.0831351 1.19899698 6.06279492 2.47700477 9 4 C9 4.66 9 5.32 9 6 C5.59687262 4.94124926 2.98646769 3.99097846 0 2 C0 1.34 0 0.68 0 0 Z " fill="#ED3D34" transform="translate(569,85)"/>
<path d="M0 0 C0 0.66 0 1.32 0 2 C-2.90548882 4.04169485 -4.40142046 5 -8 5 C-8 4.34 -8 3.68 -8 3 C-2.25 0 -2.25 0 0 0 Z " fill="#DE4035" transform="translate(500,916)"/>
<path d="M0 0 C0.66 0 1.32 0 2 0 C1.25 6.75 1.25 6.75 -1 9 C-0.67 6.03 -0.34 3.06 0 0 Z " fill="#FC4839" transform="translate(286,183)"/>
<path d="M0 0 C0.66 0.33 1.32 0.66 2 1 C0.35 3.64 -1.3 6.28 -3 9 C-3.33 7.68 -3.66 6.36 -4 5 C-2.0625 2.25 -2.0625 2.25 0 0 Z " fill="#FC4434" transform="translate(305,147)"/>
<path d="M0 0 C3.34373475 0.55728913 6.03312999 1.35173889 9 3 C9 3.66 9 4.32 9 5 C5.12867972 4.42647107 2.91827204 2.51295648 0 0 Z " fill="#ED3930" transform="translate(559,80)"/>
<path d="M0 0 C0.66 0.99 1.32 1.98 2 3 C1.67 3.99 1.34 4.98 1 6 C0.34 4.35 -0.32 2.7 -1 1 C-0.67 0.67 -0.34 0.34 0 0 Z " fill="#F26B5E" transform="translate(361,570)"/>
<path d="M0 0 C2 3 2 3 2 5 C1.01 4.67 0.02 4.34 -1 4 C-0.67 2.68 -0.34 1.36 0 0 Z " fill="#EF675B" transform="translate(442,793)"/>
<path d="M0 0 C0.33 0 0.66 0 1 0 C1 1.98 1 3.96 1 6 C0.67 6 0.34 6 0 6 C0 4.02 0 2.04 0 0 Z " fill="#EF6C60" transform="translate(274,293)"/>
<path d="M0 0 C0.99 0.495 0.99 0.495 2 1 C1.67 1.99 1.34 2.98 1 4 C0.67 2.68 0.34 1.36 0 0 Z " fill="#F2695D" transform="translate(377,616)"/>
<path d="M0 0 C0.33 0 0.66 0 1 0 C1 1.65 1 3.3 1 5 C0.67 5 0.34 5 0 5 C0 3.35 0 1.7 0 0 Z " fill="#F36C5E" transform="translate(330,483)"/>
<path d="M0 0 C1 4 1 4 1 4 Z " fill="#F1685B" transform="translate(434,771)"/>
<path d="M0 0 C0.33 0.99 0.66 1.98 1 3 C0.34 2.67 -0.32 2.34 -1 2 C-0.67 1.34 -0.34 0.68 0 0 Z " fill="#F06F62" transform="translate(290,168)"/>
<path d="" fill="#F06A5D" transform="translate(0,0)"/>
<path d="M0 0 C0.66 0 1.32 0 2 0 C1.67 0.66 1.34 1.32 1 2 C0.67 1.34 0.34 0.68 0 0 Z " fill="#F26A5E" transform="translate(425,749)"/>
<path d="" fill="#F36D5F" transform="translate(0,0)"/>
<path d="M0 0 C0.66 0.66 1.32 1.32 2 2 C1.34 2 0.68 2 0 2 C0 1.34 0 0.68 0 0 Z " fill="#F36B5E" transform="translate(384,641)"/>
<path d="" fill="#F36A5E" transform="translate(0,0)"/>
<path d="M0 0 C0.66 0 1.32 0 2 0 C1.67 0.66 1.34 1.32 1 2 C0.67 1.34 0.34 0.68 0 0 Z " fill="#F36C5F" transform="translate(369,597)"/>
<path d="M0 0 C0.99 0.495 0.99 0.495 2 1 C1.01 1.495 1.01 1.495 0 2 C0 1.34 0 0.68 0 0 Z " fill="#F06B60" transform="translate(336,505)"/>
<path d="" fill="#F16C5F" transform="translate(0,0)"/>
<path d="" fill="#EF6D60" transform="translate(0,0)"/>
<path d="" fill="#F16C60" transform="translate(0,0)"/>
<path d="" fill="#E3675A" transform="translate(0,0)"/>
<path d="" fill="#E9665A" transform="translate(0,0)"/>
<path d="" fill="#E7665B" transform="translate(0,0)"/>
<path d="" fill="#EC665A" transform="translate(0,0)"/>
<path d="" fill="#E96557" transform="translate(0,0)"/>
<path d="" fill="#EE675B" transform="translate(0,0)"/>
<path d="" fill="#F0695D" transform="translate(0,0)"/>
<path d="" fill="#EF675A" transform="translate(0,0)"/>
<path d="" fill="#F26A5D" transform="translate(0,0)"/>
<path d="" fill="#EF6A5E" transform="translate(0,0)"/>
<path d="" fill="#ED6D5D" transform="translate(0,0)"/>
<path d="" fill="#F06D5F" transform="translate(0,0)"/>
<path d="" fill="#F36C5E" transform="translate(0,0)"/>
<path d="" fill="#F26B5D" transform="translate(0,0)"/>
<path d="" fill="#F16A5C" transform="translate(0,0)"/>
<path d="" fill="#EF6B5C" transform="translate(0,0)"/>
<path d="" fill="#F3695C" transform="translate(0,0)"/>
<path d="" fill="#F3685E" transform="translate(0,0)"/>
<path d="" fill="#F2685E" transform="translate(0,0)"/>
<path d="" fill="#EF6A5D" transform="translate(0,0)"/>
<path d="" fill="#EF6A5A" transform="translate(0,0)"/>
<path d="" fill="#F46D5E" transform="translate(0,0)"/>
<path d="" fill="#F16B5E" transform="translate(0,0)"/>
<path d="" fill="#F06C5E" transform="translate(0,0)"/>
<path d="" fill="#F36C5E" transform="translate(0,0)"/>
<path d="" fill="#EF6B5E" transform="translate(0,0)"/>
<path d="" fill="#DB6055" transform="translate(0,0)"/>
<path d="" fill="#F46B5E" transform="translate(0,0)"/>
<path d="" fill="#F06A5D" transform="translate(0,0)"/>
<path d="" fill="#F16C5F" transform="translate(0,0)"/>
<path d="" fill="#F06B5E" transform="translate(0,0)"/>
<path d="" fill="#EF6E64" transform="translate(0,0)"/>
<path d="" fill="#E95D54" transform="translate(0,0)"/>
<path d="M0 0 C2 1 2 1 2 1 Z " fill="#E55E55" transform="translate(566,81)"/>
<path d="M0 0 C2 1 2 1 2 1 Z " fill="#EC655A" transform="translate(513,58)"/>
<path d="M0 0 C2 1 2 1 2 1 Z " fill="#EC6A5E" transform="translate(440,56)"/>
<path d="" fill="#745B57" transform="translate(0,0)"/>
<path d="" fill="#D0685E" transform="translate(0,0)"/>
<path d="" fill="#D76358" transform="translate(0,0)"/>
<path d="" fill="#DC5F55" transform="translate(0,0)"/>
<path d="" fill="#E0675D" transform="translate(0,0)"/>
<path d="" fill="#DD5C53" transform="translate(0,0)"/>
<path d="" fill="#E2675C" transform="translate(0,0)"/>
<path d="" fill="#E3675C" transform="translate(0,0)"/>
<path d="" fill="#E4685E" transform="translate(0,0)"/>
<path d="" fill="#DB6154" transform="translate(0,0)"/>
<path d="" fill="#DC5C54" transform="translate(0,0)"/>
<path d="" fill="#E9665B" transform="translate(0,0)"/>
<path d="" fill="#E7695A" transform="translate(0,0)"/>
<path d="" fill="#E96659" transform="translate(0,0)"/>
<path d="" fill="#EA685B" transform="translate(0,0)"/>
<path d="" fill="#EB685C" transform="translate(0,0)"/>
<path d="" fill="#EA6458" transform="translate(0,0)"/>
<path d="" fill="#E96759" transform="translate(0,0)"/>
<path d="" fill="#EB675C" transform="translate(0,0)"/>
<path d="" fill="#EA695E" transform="translate(0,0)"/>
<path d="" fill="#EE685A" transform="translate(0,0)"/>
<path d="" fill="#DD5D52" transform="translate(0,0)"/>
<path d="" fill="#EE665A" transform="translate(0,0)"/>
<path d="" fill="#F06558" transform="translate(0,0)"/>
<path d="" fill="#D95B51" transform="translate(0,0)"/>
<path d="" fill="#F0685A" transform="translate(0,0)"/>
<path d="" fill="#DA5A50" transform="translate(0,0)"/>
<path d="" fill="#E45950" transform="translate(0,0)"/>
<path d="" fill="#F2665B" transform="translate(0,0)"/>
<path d="" fill="#EF6A5C" transform="translate(0,0)"/>
<path d="" fill="#EE685B" transform="translate(0,0)"/>
<path d="" fill="#EE6A5D" transform="translate(0,0)"/>
<path d="" fill="#DC5C51" transform="translate(0,0)"/>
<path d="" fill="#F1675B" transform="translate(0,0)"/>
<path d="" fill="#F06758" transform="translate(0,0)"/>
<path d="" fill="#F16A5B" transform="translate(0,0)"/>
<path d="" fill="#D95C4E" transform="translate(0,0)"/>
<path d="" fill="#DC5E54" transform="translate(0,0)"/>
<path d="" fill="#F3665A" transform="translate(0,0)"/>
<path d="" fill="#EF695D" transform="translate(0,0)"/>
<path d="" fill="#EC6C5C" transform="translate(0,0)"/>
<path d="" fill="#DD5E54" transform="translate(0,0)"/>
<path d="" fill="#DC5B53" transform="translate(0,0)"/>
<path d="" fill="#F46A5C" transform="translate(0,0)"/>
<path d="" fill="#DC5B52" transform="translate(0,0)"/>
<path d="" fill="#EF695C" transform="translate(0,0)"/>
<path d="" fill="#F16C61" transform="translate(0,0)"/>
<path d="" fill="#F26A5D" transform="translate(0,0)"/>
<path d="" fill="#F06A5F" transform="translate(0,0)"/>
<path d="" fill="#F26A5F" transform="translate(0,0)"/>
<path d="" fill="#F3685A" transform="translate(0,0)"/>
<path d="" fill="#F26B5D" transform="translate(0,0)"/>
<path d="" fill="#F26C60" transform="translate(0,0)"/>
<path d="" fill="#DE5E56" transform="translate(0,0)"/>
<path d="" fill="#F0685B" transform="translate(0,0)"/>
<path d="" fill="#EF6A5B" transform="translate(0,0)"/>
<path d="" fill="#EF6B5B" transform="translate(0,0)"/>
<path d="" fill="#F26B5C" transform="translate(0,0)"/>
<path d="" fill="#F16B5F" transform="translate(0,0)"/>
<path d="" fill="#F46D5F" transform="translate(0,0)"/>
<path d="" fill="#F16C5F" transform="translate(0,0)"/>
<path d="" fill="#DC6055" transform="translate(0,0)"/>
<path d="" fill="#F0685A" transform="translate(0,0)"/>
<path d="" fill="#F26C61" transform="translate(0,0)"/>
<path d="" fill="#E46055" transform="translate(0,0)"/>
<path d="" fill="#F26F61" transform="translate(0,0)"/>
<path d="" fill="#F1675B" transform="translate(0,0)"/>
<path d="" fill="#DE5F54" transform="translate(0,0)"/>
<path d="" fill="#F46B5F" transform="translate(0,0)"/>
<path d="" fill="#F36A5C" transform="translate(0,0)"/>
<path d="" fill="#DF6055" transform="translate(0,0)"/>
<path d="" fill="#DD6158" transform="translate(0,0)"/>
<path d="" fill="#DD5F58" transform="translate(0,0)"/>
<path d="" fill="#DD6158" transform="translate(0,0)"/>
<path d="" fill="#DB5A4F" transform="translate(0,0)"/>
<path d="" fill="#F26B5E" transform="translate(0,0)"/>
<path d="" fill="#F36D60" transform="translate(0,0)"/>
<path d="" fill="#F46C5D" transform="translate(0,0)"/>
<path d="" fill="#F26A5B" transform="translate(0,0)"/>
<path d="" fill="#F46D60" transform="translate(0,0)"/>
<path d="" fill="#F26C60" transform="translate(0,0)"/>
<path d="" fill="#E35F57" transform="translate(0,0)"/>
<path d="" fill="#F36D5D" transform="translate(0,0)"/>
<path d="" fill="#F26C60" transform="translate(0,0)"/>
<path d="" fill="#F26E61" transform="translate(0,0)"/>
<path d="" fill="#F0695E" transform="translate(0,0)"/>
<path d="" fill="#F16D62" transform="translate(0,0)"/>
<path d="" fill="#F16B60" transform="translate(0,0)"/>
<path d="" fill="#F16C60" transform="translate(0,0)"/>
<path d="" fill="#DF6358" transform="translate(0,0)"/>
<path d="" fill="#D9635B" transform="translate(0,0)"/>
<path d="" fill="#F46B5E" transform="translate(0,0)"/>
<path d="" fill="#F16D61" transform="translate(0,0)"/>
<path d="" fill="#F26A5F" transform="translate(0,0)"/>
<path d="" fill="#F36C62" transform="translate(0,0)"/>
<path d="" fill="#F36C5C" transform="translate(0,0)"/>
<path d="" fill="#DC615A" transform="translate(0,0)"/>
<path d="" fill="#DE645A" transform="translate(0,0)"/>
<path d="" fill="#DD635B" transform="translate(0,0)"/>
<path d="" fill="#F36C5F" transform="translate(0,0)"/>
<path d="" fill="#F46B60" transform="translate(0,0)"/>
<path d="" fill="#F36B5E" transform="translate(0,0)"/>
<path d="" fill="#F36B5D" transform="translate(0,0)"/>
<path d="" fill="#DF6557" transform="translate(0,0)"/>
<path d="" fill="#F36A5D" transform="translate(0,0)"/>
<path d="" fill="#F06C5C" transform="translate(0,0)"/>
<path d="" fill="#F26D60" transform="translate(0,0)"/>
<path d="" fill="#F26C62" transform="translate(0,0)"/>
<path d="" fill="#F36B61" transform="translate(0,0)"/>
<path d="" fill="#F26D60" transform="translate(0,0)"/>
<path d="" fill="#F16E62" transform="translate(0,0)"/>
<path d="" fill="#F36A5E" transform="translate(0,0)"/>
<path d="" fill="#F16F63" transform="translate(0,0)"/>
<path d="" fill="#F27065" transform="translate(0,0)"/>
<path d="" fill="#F36E61" transform="translate(0,0)"/>
<path d="" fill="#F16D61" transform="translate(0,0)"/>
<path d="" fill="#F36C60" transform="translate(0,0)"/>
<path d="" fill="#F36E60" transform="translate(0,0)"/>
<path d="" fill="#F16E5F" transform="translate(0,0)"/>
<path d="" fill="#DE645B" transform="translate(0,0)"/>
<path d="" fill="#F16D62" transform="translate(0,0)"/>
<path d="" fill="#F36B5F" transform="translate(0,0)"/>
<path d="" fill="#F17064" transform="translate(0,0)"/>
<path d="" fill="#F07064" transform="translate(0,0)"/>
<path d="" fill="#F17062" transform="translate(0,0)"/>
<path d="" fill="#F46D61" transform="translate(0,0)"/>
<path d="" fill="#F16F63" transform="translate(0,0)"/>
<path d="" fill="#F06D62" transform="translate(0,0)"/>
<path d="" fill="#DE6357" transform="translate(0,0)"/>
<path d="" fill="#F26D60" transform="translate(0,0)"/>
<path d="" fill="#F06F60" transform="translate(0,0)"/>
<path d="" fill="#F37063" transform="translate(0,0)"/>
<path d="" fill="#F36D5F" transform="translate(0,0)"/>
<path d="" fill="#E35F55" transform="translate(0,0)"/>
<path d="" fill="#EF7264" transform="translate(0,0)"/>
<path d="" fill="#E16358" transform="translate(0,0)"/>
<path d="" fill="#F16D5F" transform="translate(0,0)"/>
<path d="" fill="#F26C60" transform="translate(0,0)"/>
<path d="" fill="#F36E63" transform="translate(0,0)"/>
<path d="" fill="#E15D54" transform="translate(0,0)"/>
<path d="" fill="#F27063" transform="translate(0,0)"/>
<path d="" fill="#EF6D5F" transform="translate(0,0)"/>
<path d="" fill="#EF6E61" transform="translate(0,0)"/>
<path d="" fill="#E26057" transform="translate(0,0)"/>
<path d="" fill="#F06D62" transform="translate(0,0)"/>
<path d="" fill="#E35E55" transform="translate(0,0)"/>
<path d="" fill="#DF5C51" transform="translate(0,0)"/>
<path d="" fill="#DF5F57" transform="translate(0,0)"/>
<path d="" fill="#F06F62" transform="translate(0,0)"/>
<path d="" fill="#F06F62" transform="translate(0,0)"/>
<path d="" fill="#EF6F63" transform="translate(0,0)"/>
<path d="" fill="#EF6D62" transform="translate(0,0)"/>
<path d="" fill="#E35F56" transform="translate(0,0)"/>
<path d="" fill="#EF6F63" transform="translate(0,0)"/>
<path d="" fill="#E45D54" transform="translate(0,0)"/>
<path d="" fill="#E35D55" transform="translate(0,0)"/>
<path d="" fill="#E15F54" transform="translate(0,0)"/>
<path d="" fill="#F06D5E" transform="translate(0,0)"/>
<path d="" fill="#E05E52" transform="translate(0,0)"/>
<path d="" fill="#F26D63" transform="translate(0,0)"/>
<path d="" fill="#E15F53" transform="translate(0,0)"/>
<path d="" fill="#F26C61" transform="translate(0,0)"/>
<path d="" fill="#DE5F54" transform="translate(0,0)"/>
<path d="" fill="#DF5D56" transform="translate(0,0)"/>
<path d="" fill="#EF6D62" transform="translate(0,0)"/>
<path d="" fill="#E05E53" transform="translate(0,0)"/>
<path d="" fill="#E55D52" transform="translate(0,0)"/>
<path d="" fill="#ED6B5F" transform="translate(0,0)"/>
<path d="" fill="#EF6F61" transform="translate(0,0)"/>
<path d="" fill="#DF6054" transform="translate(0,0)"/>
<path d="" fill="#F16D61" transform="translate(0,0)"/>
<path d="" fill="#F16E61" transform="translate(0,0)"/>
<path d="" fill="#E25C51" transform="translate(0,0)"/>
<path d="" fill="#F26E63" transform="translate(0,0)"/>
<path d="" fill="#DC6358" transform="translate(0,0)"/>
<path d="" fill="#E45D50" transform="translate(0,0)"/>
<path d="" fill="#E35B50" transform="translate(0,0)"/>
<path d="" fill="#E05C53" transform="translate(0,0)"/>
<path d="" fill="#E25D52" transform="translate(0,0)"/>
<path d="" fill="#F06E62" transform="translate(0,0)"/>
<path d="" fill="#E2584D" transform="translate(0,0)"/>
<path d="" fill="#E25B50" transform="translate(0,0)"/>
<path d="" fill="#E05C51" transform="translate(0,0)"/>
<path d="" fill="#E15C52" transform="translate(0,0)"/>
<path d="" fill="#E45C52" transform="translate(0,0)"/>
<path d="" fill="#DF6055" transform="translate(0,0)"/>
<path d="" fill="#EB6E61" transform="translate(0,0)"/>
<path d="" fill="#E15F54" transform="translate(0,0)"/>
<path d="" fill="#E45D51" transform="translate(0,0)"/>
<path d="" fill="#EF7165" transform="translate(0,0)"/>
<path d="" fill="#E05D53" transform="translate(0,0)"/>
<path d="" fill="#E45C52" transform="translate(0,0)"/>
<path d="" fill="#EE6056" transform="translate(0,0)"/>
<path d="" fill="#EB7167" transform="translate(0,0)"/>
<path d="" fill="#EF7367" transform="translate(0,0)"/>
<path d="" fill="#F27066" transform="translate(0,0)"/>
<path d="" fill="#F17062" transform="translate(0,0)"/>
<path d="" fill="#E35A4F" transform="translate(0,0)"/>
<path d="" fill="#F36F63" transform="translate(0,0)"/>
<path d="" fill="#E35D54" transform="translate(0,0)"/>
<path d="" fill="#E65C55" transform="translate(0,0)"/>
<path d="" fill="#F07165" transform="translate(0,0)"/>
<path d="" fill="#E75C51" transform="translate(0,0)"/>
<path d="" fill="#F17265" transform="translate(0,0)"/>
<path d="" fill="#E65B4F" transform="translate(0,0)"/>
<path d="" fill="#E75B52" transform="translate(0,0)"/>
<path d="" fill="#E85C53" transform="translate(0,0)"/>
<path d="" fill="#E85E53" transform="translate(0,0)"/>
<path d="" fill="#F16C5F" transform="translate(0,0)"/>
<path d="" fill="#F06B5F" transform="translate(0,0)"/>
<path d="" fill="#EE6B5F" transform="translate(0,0)"/>
<path d="" fill="#E76357" transform="translate(0,0)"/>
<path d="" fill="#EB5E55" transform="translate(0,0)"/>
<path d="" fill="#E96056" transform="translate(0,0)"/>
<path d="" fill="#E86057" transform="translate(0,0)"/>
<path d="" fill="#E76256" transform="translate(0,0)"/>
<path d="" fill="#ED6659" transform="translate(0,0)"/>
<path d="" fill="#EB6B5E" transform="translate(0,0)"/>
<path d="" fill="#ED6358" transform="translate(0,0)"/>
<path d="" fill="#E96158" transform="translate(0,0)"/>
<path d="" fill="#E96157" transform="translate(0,0)"/>
<path d="" fill="#EC675A" transform="translate(0,0)"/>
<path d="" fill="#E85F55" transform="translate(0,0)"/>
<path d="" fill="#ED625A" transform="translate(0,0)"/>
<path d="" fill="#EC695D" transform="translate(0,0)"/>
<path d="" fill="#EA6359" transform="translate(0,0)"/>
<path d="" fill="#EC665B" transform="translate(0,0)"/>
<path d="" fill="#EB675D" transform="translate(0,0)"/>
</svg>
